  0
SECTION
  2
HEADER
  9
$ACADVER
  1
AC1009
  9
$FILLMODE
 70
 0
  9
$SPLFRAME
 70
 1
  9
$EXTMIN
 10
0
 20
0
 30
0.0
  9
$EXTMAX
 10
1058.33
 20
1058.33
 30
0.0
  0
ENDSEC
  0
SECTION
  2
TABLES
  0
TABLE
  2
LAYER
 70
1
  0
LAYER
  2
0
 70
     0
 62
     7
  6
CONTINUOUS
  0
ENDTAB
  0
ENDSEC
  0
SECTION
  2
ENTITIES
  0
LINE
  8
0
 62
     0
 10
0.0950846
 20
122.319
 30
0.0
 11
330.295
 21
122.319
 31
0.0
  0
LINE
  8
0
 62
     0
 10
330.295
 20
122.319
 30
0.0
 11
330.295
 21
0.39963
 31
0.0
  0
LINE
  8
0
 62
     0
 10
330.295
 20
0.39963
 30
0.0
 11
0.0950846
 21
0.39963
 31
0.0
  0
LINE
  8
0
 62
     0
 10
0.0950846
 20
0.39963
 30
0.0
 11
0.0950846
 21
122.319
 31
0.0
  0
LINE
  8
0
 62
     0
 10
127.237
 20
19.3063
 30
0.0
 11
127.237
 21
14.6058
 31
0.0
  0
LINE
  8
0
 62
     0
 10
127.237
 20
14.6058
 30
0.0
 11
87.6131
 21
14.6058
 31
0.0
  0
LINE
  8
0
 62
     0
 10
87.6131
 20
14.6058
 30
0.0
 11
87.6131
 21
17.836
 31
0.0
  0
LINE
  8
0
 62
     0
 10
87.6131
 20
17.836
 30
0.0
 11
80.862
 21
17.836
 31
0.0
  0
LINE
  8
0
 62
     0
 10
80.862
 20
17.836
 30
0.0
 11
80.862
 21
14.6058
 31
0.0
  0
LINE
  8
0
 62
     0
 10
80.862
 20
14.6058
 30
0.0
 11
80.0379
 21
14.6058
 31
0.0
  0
LINE
  8
0
 62
     0
 10
80.0379
 20
14.6058
 30
0.0
 11
80.0379
 21
11.807
 31
0.0
  0
LINE
  8
0
 62
     0
 10
80.0379
 20
11.807
 30
0.0
 11
80.862
 21
11.807
 31
0.0
  0
LINE
  8
0
 62
     0
 10
80.862
 20
11.807
 30
0.0
 11
80.862
 21
5.53695
 31
0.0
  0
LINE
  8
0
 62
     0
 10
80.862
 20
5.53695
 30
0.0
 11
82.587
 21
5.53695
 31
0.0
  0
LINE
  8
0
 62
     0
 10
82.587
 20
5.53695
 30
0.0
 11
82.587
 21
4.3367
 31
0.0
  0
LINE
  8
0
 62
     0
 10
82.587
 20
4.3367
 30
0.0
 11
85.8876
 21
4.3367
 31
0.0
  0
LINE
  8
0
 62
     0
 10
85.8876
 20
4.3367
 30
0.0
 11
85.8876
 21
5.53695
 31
0.0
  0
LINE
  8
0
 62
     0
 10
85.8876
 20
5.53695
 30
0.0
 11
87.6131
 21
5.53695
 31
0.0
  0
LINE
  8
0
 62
     0
 10
87.6131
 20
5.53695
 30
0.0
 11
87.6131
 21
10.0059
 31
0.0
  0
LINE
  8
0
 62
     0
 10
87.6131
 20
10.0059
 30
0.0
 11
127.237
 21
10.0059
 31
0.0
  0
LINE
  8
0
 62
     0
 10
127.237
 20
10.0059
 30
0.0
 11
127.237
 21
5.30684
 31
0.0
  0
LINE
  8
0
 62
     0
 10
127.237
 20
5.30684
 30
0.0
 11
141.238
 21
5.30684
 31
0.0
  0
LINE
  8
0
 62
     0
 10
141.238
 20
5.30684
 30
0.0
 11
141.238
 21
10.0059
 31
0.0
  0
LINE
  8
0
 62
     0
 10
141.238
 20
10.0059
 30
0.0
 11
180.862
 21
10.0059
 31
0.0
  0
LINE
  8
0
 62
     0
 10
180.862
 20
10.0059
 30
0.0
 11
180.862
 21
5.53695
 31
0.0
  0
LINE
  8
0
 62
     0
 10
180.862
 20
5.53695
 30
0.0
 11
182.587
 21
5.53695
 31
0.0
  0
LINE
  8
0
 62
     0
 10
182.587
 20
5.53695
 30
0.0
 11
182.587
 21
4.3367
 31
0.0
  0
LINE
  8
0
 62
     0
 10
182.587
 20
4.3367
 30
0.0
 11
185.888
 21
4.3367
 31
0.0
  0
LINE
  8
0
 62
     0
 10
185.888
 20
4.3367
 30
0.0
 11
185.888
 21
5.53695
 31
0.0
  0
LINE
  8
0
 62
     0
 10
185.888
 20
5.53695
 30
0.0
 11
187.613
 21
5.53695
 31
0.0
  0
LINE
  8
0
 62
     0
 10
187.613
 20
5.53695
 30
0.0
 11
187.613
 21
11.807
 31
0.0
  0
LINE
  8
0
 62
     0
 10
187.613
 20
11.807
 30
0.0
 11
188.437
 21
11.807
 31
0.0
  0
LINE
  8
0
 62
     0
 10
188.437
 20
11.807
 30
0.0
 11
188.437
 21
14.6058
 31
0.0
  0
LINE
  8
0
 62
     0
 10
188.437
 20
14.6058
 30
0.0
 11
187.613
 21
14.6058
 31
0.0
  0
LINE
  8
0
 62
     0
 10
187.613
 20
14.6058
 30
0.0
 11
187.613
 21
17.836
 31
0.0
  0
LINE
  8
0
 62
     0
 10
187.613
 20
17.836
 30
0.0
 11
180.862
 21
17.836
 31
0.0
  0
LINE
  8
0
 62
     0
 10
180.862
 20
17.836
 30
0.0
 11
180.862
 21
14.6058
 31
0.0
  0
LINE
  8
0
 62
     0
 10
180.862
 20
14.6058
 30
0.0
 11
141.238
 21
14.6058
 31
0.0
  0
LINE
  8
0
 62
     0
 10
141.238
 20
14.6058
 30
0.0
 11
141.238
 21
19.3063
 31
0.0
  0
LINE
  8
0
 62
     0
 10
141.238
 20
19.3063
 30
0.0
 11
127.237
 21
19.3063
 31
0.0
  0
LINE
  8
0
 62
     0
 10
8.17453
 20
19.3063
 30
0.0
 11
22.174
 21
19.3063
 31
0.0
  0
LINE
  8
0
 62
     0
 10
22.174
 20
19.3063
 30
0.0
 11
22.174
 21
5.30684
 31
0.0
  0
LINE
  8
0
 62
     0
 10
22.174
 20
5.30684
 30
0.0
 11
8.17453
 21
5.30684
 31
0.0
  0
LINE
  8
0
 62
     0
 10
8.17453
 20
5.30684
 30
0.0
 11
8.17453
 21
19.3063
 31
0.0
  0
LINE
  8
0
 62
     0
 10
31.987
 20
19.3063
 30
0.0
 11
45.9878
 21
19.3063
 31
0.0
  0
LINE
  8
0
 62
     0
 10
45.9878
 20
19.3063
 30
0.0
 11
45.9878
 21
5.30684
 31
0.0
  0
LINE
  8
0
 62
     0
 10
45.9878
 20
5.30684
 30
0.0
 11
31.987
 21
5.30684
 31
0.0
  0
LINE
  8
0
 62
     0
 10
31.987
 20
5.30684
 30
0.0
 11
31.987
 21
19.3063
 31
0.0
  0
LINE
  8
0
 62
     0
 10
55.7996
 20
19.3063
 30
0.0
 11
69.7988
 21
19.3063
 31
0.0
  0
LINE
  8
0
 62
     0
 10
69.7988
 20
19.3063
 30
0.0
 11
69.7988
 21
5.30684
 31
0.0
  0
LINE
  8
0
 62
     0
 10
69.7988
 20
5.30684
 30
0.0
 11
55.7996
 21
5.30684
 31
0.0
  0
LINE
  8
0
 62
     0
 10
55.7996
 20
5.30684
 30
0.0
 11
55.7996
 21
19.3063
 31
0.0
  0
LINE
  8
0
 62
     0
 10
198.675
 20
19.3063
 30
0.0
 11
212.674
 21
19.3063
 31
0.0
  0
LINE
  8
0
 62
     0
 10
212.674
 20
19.3063
 30
0.0
 11
212.674
 21
5.30684
 31
0.0
  0
LINE
  8
0
 62
     0
 10
212.674
 20
5.30684
 30
0.0
 11
198.675
 21
5.30684
 31
0.0
  0
LINE
  8
0
 62
     0
 10
198.675
 20
5.30684
 30
0.0
 11
198.675
 21
19.3063
 31
0.0
  0
LINE
  8
0
 62
     0
 10
222.487
 20
19.3063
 30
0.0
 11
236.488
 21
19.3063
 31
0.0
  0
LINE
  8
0
 62
     0
 10
236.488
 20
19.3063
 30
0.0
 11
236.488
 21
5.30684
 31
0.0
  0
LINE
  8
0
 62
     0
 10
236.488
 20
5.30684
 30
0.0
 11
222.487
 21
5.30684
 31
0.0
  0
LINE
  8
0
 62
     0
 10
222.487
 20
5.30684
 30
0.0
 11
222.487
 21
19.3063
 31
0.0
  0
LINE
  8
0
 62
     0
 10
246.3
 20
19.3063
 30
0.0
 11
260.299
 21
19.3063
 31
0.0
  0
LINE
  8
0
 62
     0
 10
260.299
 20
19.3063
 30
0.0
 11
260.299
 21
5.30684
 31
0.0
  0
LINE
  8
0
 62
     0
 10
260.299
 20
5.30684
 30
0.0
 11
246.3
 21
5.30684
 31
0.0
  0
LINE
  8
0
 62
     0
 10
246.3
 20
5.30684
 30
0.0
 11
246.3
 21
19.3063
 31
0.0
  0
LINE
  8
0
 62
     0
 10
272.493
 20
19.3063
 30
0.0
 11
286.494
 21
19.3063
 31
0.0
  0
LINE
  8
0
 62
     0
 10
286.494
 20
19.3063
 30
0.0
 11
286.494
 21
5.30684
 31
0.0
  0
LINE
  8
0
 62
     0
 10
286.494
 20
5.30684
 30
0.0
 11
272.493
 21
5.30684
 31
0.0
  0
LINE
  8
0
 62
     0
 10
272.493
 20
5.30684
 30
0.0
 11
272.493
 21
19.3063
 31
0.0
  0
LINE
  8
0
 62
     0
 10
291.543
 20
19.3063
 30
0.0
 11
305.544
 21
19.3063
 31
0.0
  0
LINE
  8
0
 62
     0
 10
305.544
 20
19.3063
 30
0.0
 11
305.544
 21
5.30684
 31
0.0
  0
LINE
  8
0
 62
     0
 10
305.544
 20
5.30684
 30
0.0
 11
291.543
 21
5.30684
 31
0.0
  0
LINE
  8
0
 62
     0
 10
291.543
 20
5.30684
 30
0.0
 11
291.543
 21
19.3063
 31
0.0
  0
LINE
  8
0
 62
     0
 10
310.593
 20
19.3063
 30
0.0
 11
324.594
 21
19.3063
 31
0.0
  0
LINE
  8
0
 62
     0
 10
324.594
 20
19.3063
 30
0.0
 11
324.594
 21
5.30684
 31
0.0
  0
LINE
  8
0
 62
     0
 10
324.594
 20
5.30684
 30
0.0
 11
310.593
 21
5.30684
 31
0.0
  0
LINE
  8
0
 62
     0
 10
310.593
 20
5.30684
 30
0.0
 11
310.593
 21
19.3063
 31
0.0
  0
LINE
  8
0
 62
     0
 10
17.6995
 20
38.3551
 30
0.0
 11
17.6995
 21
33.6558
 31
0.0
  0
LINE
  8
0
 62
     0
 10
17.6995
 20
33.6558
 30
0.0
 11
16.174
 21
33.6558
 31
0.0
  0
LINE
  8
0
 62
     0
 10
16.174
 20
33.6558
 30
0.0
 11
16.174
 21
36.8861
 31
0.0
  0
LINE
  8
0
 62
     0
 10
16.174
 20
36.8861
 30
0.0
 11
9.42439
 21
36.8861
 31
0.0
  0
LINE
  8
0
 62
     0
 10
9.42439
 20
36.8861
 30
0.0
 11
9.42439
 21
33.6558
 31
0.0
  0
LINE
  8
0
 62
     0
 10
9.42439
 20
33.6558
 30
0.0
 11
8.59896
 21
33.6558
 31
0.0
  0
LINE
  8
0
 62
     0
 10
8.59896
 20
33.6558
 30
0.0
 11
8.59896
 21
30.8556
 31
0.0
  0
LINE
  8
0
 62
     0
 10
8.59896
 20
30.8556
 30
0.0
 11
9.42439
 21
30.8556
 31
0.0
  0
LINE
  8
0
 62
     0
 10
9.42439
 20
30.8556
 30
0.0
 11
9.42439
 21
24.587
 31
0.0
  0
LINE
  8
0
 62
     0
 10
9.42439
 20
24.587
 30
0.0
 11
11.1497
 21
24.587
 31
0.0
  0
LINE
  8
0
 62
     0
 10
11.1497
 20
24.587
 30
0.0
 11
11.1497
 21
23.3853
 31
0.0
  0
LINE
  8
0
 62
     0
 10
11.1497
 20
23.3853
 30
0.0
 11
14.4501
 21
23.3853
 31
0.0
  0
LINE
  8
0
 62
     0
 10
14.4501
 20
23.3853
 30
0.0
 11
14.4501
 21
24.587
 31
0.0
  0
LINE
  8
0
 62
     0
 10
14.4501
 20
24.587
 30
0.0
 11
16.174
 21
24.587
 31
0.0
  0
LINE
  8
0
 62
     0
 10
16.174
 20
24.587
 30
0.0
 11
16.174
 21
29.0559
 31
0.0
  0
LINE
  8
0
 62
     0
 10
16.174
 20
29.0559
 30
0.0
 11
17.6995
 21
29.0559
 31
0.0
  0
LINE
  8
0
 62
     0
 10
17.6995
 20
29.0559
 30
0.0
 11
17.6995
 21
24.3555
 31
0.0
  0
LINE
  8
0
 62
     0
 10
17.6995
 20
24.3555
 30
0.0
 11
31.699
 21
24.3555
 31
0.0
  0
LINE
  8
0
 62
     0
 10
31.699
 20
24.3555
 30
0.0
 11
31.699
 21
29.0559
 31
0.0
  0
LINE
  8
0
 62
     0
 10
31.699
 20
29.0559
 30
0.0
 11
33.2245
 21
29.0559
 31
0.0
  0
LINE
  8
0
 62
     0
 10
33.2245
 20
29.0559
 30
0.0
 11
33.2245
 21
24.587
 31
0.0
  0
LINE
  8
0
 62
     0
 10
33.2245
 20
24.587
 30
0.0
 11
34.9498
 21
24.587
 31
0.0
  0
LINE
  8
0
 62
     0
 10
34.9498
 20
24.587
 30
0.0
 11
34.9498
 21
23.3853
 31
0.0
  0
LINE
  8
0
 62
     0
 10
34.9498
 20
23.3853
 30
0.0
 11
38.2489
 21
23.3853
 31
0.0
  0
LINE
  8
0
 62
     0
 10
38.2489
 20
23.3853
 30
0.0
 11
38.2489
 21
24.587
 31
0.0
  0
LINE
  8
0
 62
     0
 10
38.2489
 20
24.587
 30
0.0
 11
39.9743
 21
24.587
 31
0.0
  0
LINE
  8
0
 62
     0
 10
39.9743
 20
24.587
 30
0.0
 11
39.9743
 21
30.8556
 31
0.0
  0
LINE
  8
0
 62
     0
 10
39.9743
 20
30.8556
 30
0.0
 11
40.7995
 21
30.8556
 31
0.0
  0
LINE
  8
0
 62
     0
 10
40.7995
 20
30.8556
 30
0.0
 11
40.7995
 21
33.6558
 31
0.0
  0
LINE
  8
0
 62
     0
 10
40.7995
 20
33.6558
 30
0.0
 11
39.9743
 21
33.6558
 31
0.0
  0
LINE
  8
0
 62
     0
 10
39.9743
 20
33.6558
 30
0.0
 11
39.9743
 21
36.8861
 31
0.0
  0
LINE
  8
0
 62
     0
 10
39.9743
 20
36.8861
 30
0.0
 11
33.2245
 21
36.8861
 31
0.0
  0
LINE
  8
0
 62
     0
 10
33.2245
 20
36.8861
 30
0.0
 11
33.2245
 21
33.6558
 31
0.0
  0
LINE
  8
0
 62
     0
 10
33.2245
 20
33.6558
 30
0.0
 11
31.699
 21
33.6558
 31
0.0
  0
LINE
  8
0
 62
     0
 10
31.699
 20
33.6558
 30
0.0
 11
31.699
 21
38.3551
 31
0.0
  0
LINE
  8
0
 62
     0
 10
31.699
 20
38.3551
 30
0.0
 11
17.6995
 21
38.3551
 31
0.0
  0
LINE
  8
0
 62
     0
 10
255.825
 20
38.3551
 30
0.0
 11
255.825
 21
33.6558
 31
0.0
  0
LINE
  8
0
 62
     0
 10
255.825
 20
33.6558
 30
0.0
 11
254.299
 21
33.6558
 31
0.0
  0
LINE
  8
0
 62
     0
 10
254.299
 20
33.6558
 30
0.0
 11
254.299
 21
36.8861
 31
0.0
  0
LINE
  8
0
 62
     0
 10
254.299
 20
36.8861
 30
0.0
 11
247.549
 21
36.8861
 31
0.0
  0
LINE
  8
0
 62
     0
 10
247.549
 20
36.8861
 30
0.0
 11
247.549
 21
33.6558
 31
0.0
  0
LINE
  8
0
 62
     0
 10
247.549
 20
33.6558
 30
0.0
 11
246.724
 21
33.6558
 31
0.0
  0
LINE
  8
0
 62
     0
 10
246.724
 20
33.6558
 30
0.0
 11
246.724
 21
30.8556
 31
0.0
  0
LINE
  8
0
 62
     0
 10
246.724
 20
30.8556
 30
0.0
 11
247.549
 21
30.8556
 31
0.0
  0
LINE
  8
0
 62
     0
 10
247.549
 20
30.8556
 30
0.0
 11
247.549
 21
24.587
 31
0.0
  0
LINE
  8
0
 62
     0
 10
247.549
 20
24.587
 30
0.0
 11
249.275
 21
24.587
 31
0.0
  0
LINE
  8
0
 62
     0
 10
249.275
 20
24.587
 30
0.0
 11
249.275
 21
23.3853
 31
0.0
  0
LINE
  8
0
 62
     0
 10
249.275
 20
23.3853
 30
0.0
 11
252.575
 21
23.3853
 31
0.0
  0
LINE
  8
0
 62
     0
 10
252.575
 20
23.3853
 30
0.0
 11
252.575
 21
24.587
 31
0.0
  0
LINE
  8
0
 62
     0
 10
252.575
 20
24.587
 30
0.0
 11
254.299
 21
24.587
 31
0.0
  0
LINE
  8
0
 62
     0
 10
254.299
 20
24.587
 30
0.0
 11
254.299
 21
29.0559
 31
0.0
  0
LINE
  8
0
 62
     0
 10
254.299
 20
29.0559
 30
0.0
 11
255.825
 21
29.0559
 31
0.0
  0
LINE
  8
0
 62
     0
 10
255.825
 20
29.0559
 30
0.0
 11
255.825
 21
24.3555
 31
0.0
  0
LINE
  8
0
 62
     0
 10
255.825
 20
24.3555
 30
0.0
 11
269.824
 21
24.3555
 31
0.0
  0
LINE
  8
0
 62
     0
 10
269.824
 20
24.3555
 30
0.0
 11
269.824
 21
29.0559
 31
0.0
  0
LINE
  8
0
 62
     0
 10
269.824
 20
29.0559
 30
0.0
 11
271.35
 21
29.0559
 31
0.0
  0
LINE
  8
0
 62
     0
 10
271.35
 20
29.0559
 30
0.0
 11
271.35
 21
24.587
 31
0.0
  0
LINE
  8
0
 62
     0
 10
271.35
 20
24.587
 30
0.0
 11
273.075
 21
24.587
 31
0.0
  0
LINE
  8
0
 62
     0
 10
273.075
 20
24.587
 30
0.0
 11
273.075
 21
23.3853
 31
0.0
  0
LINE
  8
0
 62
     0
 10
273.075
 20
23.3853
 30
0.0
 11
276.374
 21
23.3853
 31
0.0
  0
LINE
  8
0
 62
     0
 10
276.374
 20
23.3853
 30
0.0
 11
276.374
 21
24.587
 31
0.0
  0
LINE
  8
0
 62
     0
 10
276.374
 20
24.587
 30
0.0
 11
278.099
 21
24.587
 31
0.0
  0
LINE
  8
0
 62
     0
 10
278.099
 20
24.587
 30
0.0
 11
278.099
 21
30.8556
 31
0.0
  0
LINE
  8
0
 62
     0
 10
278.099
 20
30.8556
 30
0.0
 11
278.924
 21
30.8556
 31
0.0
  0
LINE
  8
0
 62
     0
 10
278.924
 20
30.8556
 30
0.0
 11
278.924
 21
33.6558
 31
0.0
  0
LINE
  8
0
 62
     0
 10
278.924
 20
33.6558
 30
0.0
 11
278.099
 21
33.6558
 31
0.0
  0
LINE
  8
0
 62
     0
 10
278.099
 20
33.6558
 30
0.0
 11
278.099
 21
36.8861
 31
0.0
  0
LINE
  8
0
 62
     0
 10
278.099
 20
36.8861
 30
0.0
 11
271.35
 21
36.8861
 31
0.0
  0
LINE
  8
0
 62
     0
 10
271.35
 20
36.8861
 30
0.0
 11
271.35
 21
33.6558
 31
0.0
  0
LINE
  8
0
 62
     0
 10
271.35
 20
33.6558
 30
0.0
 11
269.824
 21
33.6558
 31
0.0
  0
LINE
  8
0
 62
     0
 10
269.824
 20
33.6558
 30
0.0
 11
269.824
 21
38.3551
 31
0.0
  0
LINE
  8
0
 62
     0
 10
269.824
 20
38.3551
 30
0.0
 11
255.825
 21
38.3551
 31
0.0
  0
LINE
  8
0
 62
     0
 10
48.6572
 20
38.3551
 30
0.0
 11
62.6565
 21
38.3551
 31
0.0
  0
LINE
  8
0
 62
     0
 10
62.6565
 20
38.3551
 30
0.0
 11
62.6565
 21
24.3555
 31
0.0
  0
LINE
  8
0
 62
     0
 10
62.6565
 20
24.3555
 30
0.0
 11
48.6572
 21
24.3555
 31
0.0
  0
LINE
  8
0
 62
     0
 10
48.6572
 20
24.3555
 30
0.0
 11
48.6572
 21
38.3551
 31
0.0
  0
LINE
  8
0
 62
     0
 10
67.7072
 20
38.3551
 30
0.0
 11
81.7065
 21
38.3551
 31
0.0
  0
LINE
  8
0
 62
     0
 10
81.7065
 20
38.3551
 30
0.0
 11
81.7065
 21
24.3555
 31
0.0
  0
LINE
  8
0
 62
     0
 10
81.7065
 20
24.3555
 30
0.0
 11
67.7072
 21
24.3555
 31
0.0
  0
LINE
  8
0
 62
     0
 10
67.7072
 20
24.3555
 30
0.0
 11
67.7072
 21
38.3551
 31
0.0
  0
LINE
  8
0
 62
     0
 10
86.7572
 20
38.3551
 30
0.0
 11
100.757
 21
38.3551
 31
0.0
  0
LINE
  8
0
 62
     0
 10
100.757
 20
38.3551
 30
0.0
 11
100.757
 21
24.3555
 31
0.0
  0
LINE
  8
0
 62
     0
 10
100.757
 20
24.3555
 30
0.0
 11
86.7572
 21
24.3555
 31
0.0
  0
LINE
  8
0
 62
     0
 10
86.7572
 20
24.3555
 30
0.0
 11
86.7572
 21
38.3551
 31
0.0
  0
LINE
  8
0
 62
     0
 10
105.807
 20
38.3551
 30
0.0
 11
119.807
 21
38.3551
 31
0.0
  0
LINE
  8
0
 62
     0
 10
119.807
 20
38.3551
 30
0.0
 11
119.807
 21
24.3555
 31
0.0
  0
LINE
  8
0
 62
     0
 10
119.807
 20
24.3555
 30
0.0
 11
105.807
 21
24.3555
 31
0.0
  0
LINE
  8
0
 62
     0
 10
105.807
 20
24.3555
 30
0.0
 11
105.807
 21
38.3551
 31
0.0
  0
LINE
  8
0
 62
     0
 10
124.857
 20
38.3551
 30
0.0
 11
138.857
 21
38.3551
 31
0.0
  0
LINE
  8
0
 62
     0
 10
138.857
 20
38.3551
 30
0.0
 11
138.857
 21
24.3555
 31
0.0
  0
LINE
  8
0
 62
     0
 10
138.857
 20
24.3555
 30
0.0
 11
124.857
 21
24.3555
 31
0.0
  0
LINE
  8
0
 62
     0
 10
124.857
 20
24.3555
 30
0.0
 11
124.857
 21
38.3551
 31
0.0
  0
LINE
  8
0
 62
     0
 10
143.907
 20
38.3551
 30
0.0
 11
157.907
 21
38.3551
 31
0.0
  0
LINE
  8
0
 62
     0
 10
157.907
 20
38.3551
 30
0.0
 11
157.907
 21
24.3555
 31
0.0
  0
LINE
  8
0
 62
     0
 10
157.907
 20
24.3555
 30
0.0
 11
143.907
 21
24.3555
 31
0.0
  0
LINE
  8
0
 62
     0
 10
143.907
 20
24.3555
 30
0.0
 11
143.907
 21
38.3551
 31
0.0
  0
LINE
  8
0
 62
     0
 10
162.957
 20
38.3551
 30
0.0
 11
176.957
 21
38.3551
 31
0.0
  0
LINE
  8
0
 62
     0
 10
176.957
 20
38.3551
 30
0.0
 11
176.957
 21
24.3555
 31
0.0
  0
LINE
  8
0
 62
     0
 10
176.957
 20
24.3555
 30
0.0
 11
162.957
 21
24.3555
 31
0.0
  0
LINE
  8
0
 62
     0
 10
162.957
 20
24.3555
 30
0.0
 11
162.957
 21
38.3551
 31
0.0
  0
LINE
  8
0
 62
     0
 10
182.007
 20
38.3551
 30
0.0
 11
196.007
 21
38.3551
 31
0.0
  0
LINE
  8
0
 62
     0
 10
196.007
 20
38.3551
 30
0.0
 11
196.007
 21
24.3555
 31
0.0
  0
LINE
  8
0
 62
     0
 10
196.007
 20
24.3555
 30
0.0
 11
182.007
 21
24.3555
 31
0.0
  0
LINE
  8
0
 62
     0
 10
182.007
 20
24.3555
 30
0.0
 11
182.007
 21
38.3551
 31
0.0
  0
LINE
  8
0
 62
     0
 10
201.057
 20
38.3551
 30
0.0
 11
215.057
 21
38.3551
 31
0.0
  0
LINE
  8
0
 62
     0
 10
215.057
 20
38.3551
 30
0.0
 11
215.057
 21
24.3555
 31
0.0
  0
LINE
  8
0
 62
     0
 10
215.057
 20
24.3555
 30
0.0
 11
201.057
 21
24.3555
 31
0.0
  0
LINE
  8
0
 62
     0
 10
201.057
 20
24.3555
 30
0.0
 11
201.057
 21
38.3551
 31
0.0
  0
LINE
  8
0
 62
     0
 10
220.107
 20
38.3551
 30
0.0
 11
234.107
 21
38.3551
 31
0.0
  0
LINE
  8
0
 62
     0
 10
234.107
 20
38.3551
 30
0.0
 11
234.107
 21
24.3555
 31
0.0
  0
LINE
  8
0
 62
     0
 10
234.107
 20
24.3555
 30
0.0
 11
220.107
 21
24.3555
 31
0.0
  0
LINE
  8
0
 62
     0
 10
220.107
 20
24.3555
 30
0.0
 11
220.107
 21
38.3551
 31
0.0
  0
LINE
  8
0
 62
     0
 10
291.543
 20
38.3551
 30
0.0
 11
305.544
 21
38.3551
 31
0.0
  0
LINE
  8
0
 62
     0
 10
305.544
 20
38.3551
 30
0.0
 11
305.544
 21
24.3555
 31
0.0
  0
LINE
  8
0
 62
     0
 10
305.544
 20
24.3555
 30
0.0
 11
291.543
 21
24.3555
 31
0.0
  0
LINE
  8
0
 62
     0
 10
291.543
 20
24.3555
 30
0.0
 11
291.543
 21
38.3551
 31
0.0
  0
LINE
  8
0
 62
     0
 10
260.587
 20
57.4051
 30
0.0
 11
260.587
 21
52.7057
 31
0.0
  0
LINE
  8
0
 62
     0
 10
260.587
 20
52.7057
 30
0.0
 11
259.063
 21
52.7057
 31
0.0
  0
LINE
  8
0
 62
     0
 10
259.063
 20
52.7057
 30
0.0
 11
259.063
 21
55.9361
 31
0.0
  0
LINE
  8
0
 62
     0
 10
259.063
 20
55.9361
 30
0.0
 11
252.312
 21
55.9361
 31
0.0
  0
LINE
  8
0
 62
     0
 10
252.312
 20
55.9361
 30
0.0
 11
252.312
 21
52.7057
 31
0.0
  0
LINE
  8
0
 62
     0
 10
252.312
 20
52.7057
 30
0.0
 11
251.486
 21
52.7057
 31
0.0
  0
LINE
  8
0
 62
     0
 10
251.486
 20
52.7057
 30
0.0
 11
251.486
 21
49.9057
 31
0.0
  0
LINE
  8
0
 62
     0
 10
251.486
 20
49.9057
 30
0.0
 11
252.312
 21
49.9057
 31
0.0
  0
LINE
  8
0
 62
     0
 10
252.312
 20
49.9057
 30
0.0
 11
252.312
 21
43.6354
 31
0.0
  0
LINE
  8
0
 62
     0
 10
252.312
 20
43.6354
 30
0.0
 11
254.036
 21
43.6354
 31
0.0
  0
LINE
  8
0
 62
     0
 10
254.036
 20
43.6354
 30
0.0
 11
254.036
 21
42.4353
 31
0.0
  0
LINE
  8
0
 62
     0
 10
254.036
 20
42.4353
 30
0.0
 11
257.338
 21
42.4353
 31
0.0
  0
LINE
  8
0
 62
     0
 10
257.338
 20
42.4353
 30
0.0
 11
257.338
 21
43.6354
 31
0.0
  0
LINE
  8
0
 62
     0
 10
257.338
 20
43.6354
 30
0.0
 11
259.063
 21
43.6354
 31
0.0
  0
LINE
  8
0
 62
     0
 10
259.063
 20
43.6354
 30
0.0
 11
259.063
 21
48.1058
 31
0.0
  0
LINE
  8
0
 62
     0
 10
259.063
 20
48.1058
 30
0.0
 11
260.587
 21
48.1058
 31
0.0
  0
LINE
  8
0
 62
     0
 10
260.587
 20
48.1058
 30
0.0
 11
260.587
 21
43.4054
 31
0.0
  0
LINE
  8
0
 62
     0
 10
260.587
 20
43.4054
 30
0.0
 11
274.588
 21
43.4054
 31
0.0
  0
LINE
  8
0
 62
     0
 10
274.588
 20
43.4054
 30
0.0
 11
274.588
 21
48.1058
 31
0.0
  0
LINE
  8
0
 62
     0
 10
274.588
 20
48.1058
 30
0.0
 11
276.112
 21
48.1058
 31
0.0
  0
LINE
  8
0
 62
     0
 10
276.112
 20
48.1058
 30
0.0
 11
276.112
 21
43.6354
 31
0.0
  0
LINE
  8
0
 62
     0
 10
276.112
 20
43.6354
 30
0.0
 11
277.837
 21
43.6354
 31
0.0
  0
LINE
  8
0
 62
     0
 10
277.837
 20
43.6354
 30
0.0
 11
277.837
 21
42.4353
 31
0.0
  0
LINE
  8
0
 62
     0
 10
277.837
 20
42.4353
 30
0.0
 11
281.138
 21
42.4353
 31
0.0
  0
LINE
  8
0
 62
     0
 10
281.138
 20
42.4353
 30
0.0
 11
281.138
 21
43.6354
 31
0.0
  0
LINE
  8
0
 62
     0
 10
281.138
 20
43.6354
 30
0.0
 11
282.863
 21
43.6354
 31
0.0
  0
LINE
  8
0
 62
     0
 10
282.863
 20
43.6354
 30
0.0
 11
282.863
 21
49.9057
 31
0.0
  0
LINE
  8
0
 62
     0
 10
282.863
 20
49.9057
 30
0.0
 11
283.687
 21
49.9057
 31
0.0
  0
LINE
  8
0
 62
     0
 10
283.687
 20
49.9057
 30
0.0
 11
283.687
 21
52.7057
 31
0.0
  0
LINE
  8
0
 62
     0
 10
283.687
 20
52.7057
 30
0.0
 11
282.863
 21
52.7057
 31
0.0
  0
LINE
  8
0
 62
     0
 10
282.863
 20
52.7057
 30
0.0
 11
282.863
 21
55.9361
 31
0.0
  0
LINE
  8
0
 62
     0
 10
282.863
 20
55.9361
 30
0.0
 11
276.112
 21
55.9361
 31
0.0
  0
LINE
  8
0
 62
     0
 10
276.112
 20
55.9361
 30
0.0
 11
276.112
 21
52.7057
 31
0.0
  0
LINE
  8
0
 62
     0
 10
276.112
 20
52.7057
 30
0.0
 11
274.588
 21
52.7057
 31
0.0
  0
LINE
  8
0
 62
     0
 10
274.588
 20
52.7057
 30
0.0
 11
274.588
 21
57.4051
 31
0.0
  0
LINE
  8
0
 62
     0
 10
274.588
 20
57.4051
 30
0.0
 11
260.587
 21
57.4051
 31
0.0
  0
LINE
  8
0
 62
     0
 10
12.937
 20
57.4051
 30
0.0
 11
26.9379
 21
57.4051
 31
0.0
  0
LINE
  8
0
 62
     0
 10
26.9379
 20
57.4051
 30
0.0
 11
26.9379
 21
43.4054
 31
0.0
  0
LINE
  8
0
 62
     0
 10
26.9379
 20
43.4054
 30
0.0
 11
12.937
 21
43.4054
 31
0.0
  0
LINE
  8
0
 62
     0
 10
12.937
 20
43.4054
 30
0.0
 11
12.937
 21
57.4051
 31
0.0
  0
LINE
  8
0
 62
     0
 10
39.1322
 20
57.4051
 30
0.0
 11
53.1315
 21
57.4051
 31
0.0
  0
LINE
  8
0
 62
     0
 10
53.1315
 20
57.4051
 30
0.0
 11
53.1315
 21
43.4054
 31
0.0
  0
LINE
  8
0
 62
     0
 10
53.1315
 20
43.4054
 30
0.0
 11
39.1322
 21
43.4054
 31
0.0
  0
LINE
  8
0
 62
     0
 10
39.1322
 20
43.4054
 30
0.0
 11
39.1322
 21
57.4051
 31
0.0
  0
LINE
  8
0
 62
     0
 10
58.1822
 20
57.4051
 30
0.0
 11
72.1815
 21
57.4051
 31
0.0
  0
LINE
  8
0
 62
     0
 10
72.1815
 20
57.4051
 30
0.0
 11
72.1815
 21
43.4054
 31
0.0
  0
LINE
  8
0
 62
     0
 10
72.1815
 20
43.4054
 30
0.0
 11
58.1822
 21
43.4054
 31
0.0
  0
LINE
  8
0
 62
     0
 10
58.1822
 20
43.4054
 30
0.0
 11
58.1822
 21
57.4051
 31
0.0
  0
LINE
  8
0
 62
     0
 10
77.2322
 20
57.4051
 30
0.0
 11
91.2315
 21
57.4051
 31
0.0
  0
LINE
  8
0
 62
     0
 10
91.2315
 20
57.4051
 30
0.0
 11
91.2315
 21
43.4054
 31
0.0
  0
LINE
  8
0
 62
     0
 10
91.2315
 20
43.4054
 30
0.0
 11
77.2322
 21
43.4054
 31
0.0
  0
LINE
  8
0
 62
     0
 10
77.2322
 20
43.4054
 30
0.0
 11
77.2322
 21
57.4051
 31
0.0
  0
LINE
  8
0
 62
     0
 10
96.2822
 20
57.4051
 30
0.0
 11
110.282
 21
57.4051
 31
0.0
  0
LINE
  8
0
 62
     0
 10
110.282
 20
57.4051
 30
0.0
 11
110.282
 21
43.4054
 31
0.0
  0
LINE
  8
0
 62
     0
 10
110.282
 20
43.4054
 30
0.0
 11
96.2822
 21
43.4054
 31
0.0
  0
LINE
  8
0
 62
     0
 10
96.2822
 20
43.4054
 30
0.0
 11
96.2822
 21
57.4051
 31
0.0
  0
LINE
  8
0
 62
     0
 10
115.332
 20
57.4051
 30
0.0
 11
129.332
 21
57.4051
 31
0.0
  0
LINE
  8
0
 62
     0
 10
129.332
 20
57.4051
 30
0.0
 11
129.332
 21
43.4054
 31
0.0
  0
LINE
  8
0
 62
     0
 10
129.332
 20
43.4054
 30
0.0
 11
115.332
 21
43.4054
 31
0.0
  0
LINE
  8
0
 62
     0
 10
115.332
 20
43.4054
 30
0.0
 11
115.332
 21
57.4051
 31
0.0
  0
LINE
  8
0
 62
     0
 10
134.382
 20
57.4051
 30
0.0
 11
148.382
 21
57.4051
 31
0.0
  0
LINE
  8
0
 62
     0
 10
148.382
 20
57.4051
 30
0.0
 11
148.382
 21
43.4054
 31
0.0
  0
LINE
  8
0
 62
     0
 10
148.382
 20
43.4054
 30
0.0
 11
134.382
 21
43.4054
 31
0.0
  0
LINE
  8
0
 62
     0
 10
134.382
 20
43.4054
 30
0.0
 11
134.382
 21
57.4051
 31
0.0
  0
LINE
  8
0
 62
     0
 10
153.432
 20
57.4051
 30
0.0
 11
167.432
 21
57.4051
 31
0.0
  0
LINE
  8
0
 62
     0
 10
167.432
 20
57.4051
 30
0.0
 11
167.432
 21
43.4054
 31
0.0
  0
LINE
  8
0
 62
     0
 10
167.432
 20
43.4054
 30
0.0
 11
153.432
 21
43.4054
 31
0.0
  0
LINE
  8
0
 62
     0
 10
153.432
 20
43.4054
 30
0.0
 11
153.432
 21
57.4051
 31
0.0
  0
LINE
  8
0
 62
     0
 10
172.482
 20
57.4051
 30
0.0
 11
186.482
 21
57.4051
 31
0.0
  0
LINE
  8
0
 62
     0
 10
186.482
 20
57.4051
 30
0.0
 11
186.482
 21
43.4054
 31
0.0
  0
LINE
  8
0
 62
     0
 10
186.482
 20
43.4054
 30
0.0
 11
172.482
 21
43.4054
 31
0.0
  0
LINE
  8
0
 62
     0
 10
172.482
 20
43.4054
 30
0.0
 11
172.482
 21
57.4051
 31
0.0
  0
LINE
  8
0
 62
     0
 10
191.532
 20
57.4051
 30
0.0
 11
205.532
 21
57.4051
 31
0.0
  0
LINE
  8
0
 62
     0
 10
205.532
 20
57.4051
 30
0.0
 11
205.532
 21
43.4054
 31
0.0
  0
LINE
  8
0
 62
     0
 10
205.532
 20
43.4054
 30
0.0
 11
191.532
 21
43.4054
 31
0.0
  0
LINE
  8
0
 62
     0
 10
191.532
 20
43.4054
 30
0.0
 11
191.532
 21
57.4051
 31
0.0
  0
LINE
  8
0
 62
     0
 10
210.582
 20
57.4051
 30
0.0
 11
224.582
 21
57.4051
 31
0.0
  0
LINE
  8
0
 62
     0
 10
224.582
 20
57.4051
 30
0.0
 11
224.582
 21
43.4054
 31
0.0
  0
LINE
  8
0
 62
     0
 10
224.582
 20
43.4054
 30
0.0
 11
210.582
 21
43.4054
 31
0.0
  0
LINE
  8
0
 62
     0
 10
210.582
 20
43.4054
 30
0.0
 11
210.582
 21
57.4051
 31
0.0
  0
LINE
  8
0
 62
     0
 10
229.632
 20
57.4051
 30
0.0
 11
243.632
 21
57.4051
 31
0.0
  0
LINE
  8
0
 62
     0
 10
243.632
 20
57.4051
 30
0.0
 11
243.632
 21
43.4054
 31
0.0
  0
LINE
  8
0
 62
     0
 10
243.632
 20
43.4054
 30
0.0
 11
229.632
 21
43.4054
 31
0.0
  0
LINE
  8
0
 62
     0
 10
229.632
 20
43.4054
 30
0.0
 11
229.632
 21
57.4051
 31
0.0
  0
LINE
  8
0
 62
     0
 10
10.5572
 20
76.4551
 30
0.0
 11
24.5566
 21
76.4551
 31
0.0
  0
LINE
  8
0
 62
     0
 10
24.5566
 20
76.4551
 30
0.0
 11
24.5566
 21
62.4554
 31
0.0
  0
LINE
  8
0
 62
     0
 10
24.5566
 20
62.4554
 30
0.0
 11
10.5572
 21
62.4554
 31
0.0
  0
LINE
  8
0
 62
     0
 10
10.5572
 20
62.4554
 30
0.0
 11
10.5572
 21
76.4551
 31
0.0
  0
LINE
  8
0
 62
     0
 10
34.3683
 20
76.4551
 30
0.0
 11
48.369
 21
76.4551
 31
0.0
  0
LINE
  8
0
 62
     0
 10
48.369
 20
76.4551
 30
0.0
 11
48.369
 21
62.4554
 31
0.0
  0
LINE
  8
0
 62
     0
 10
48.369
 20
62.4554
 30
0.0
 11
34.3683
 21
62.4554
 31
0.0
  0
LINE
  8
0
 62
     0
 10
34.3683
 20
62.4554
 30
0.0
 11
34.3683
 21
76.4551
 31
0.0
  0
LINE
  8
0
 62
     0
 10
53.4183
 20
76.4551
 30
0.0
 11
67.419
 21
76.4551
 31
0.0
  0
LINE
  8
0
 62
     0
 10
67.419
 20
76.4551
 30
0.0
 11
67.419
 21
62.4554
 31
0.0
  0
LINE
  8
0
 62
     0
 10
67.419
 20
62.4554
 30
0.0
 11
53.4183
 21
62.4554
 31
0.0
  0
LINE
  8
0
 62
     0
 10
53.4183
 20
62.4554
 30
0.0
 11
53.4183
 21
76.4551
 31
0.0
  0
LINE
  8
0
 62
     0
 10
72.4683
 20
76.4551
 30
0.0
 11
86.469
 21
76.4551
 31
0.0
  0
LINE
  8
0
 62
     0
 10
86.469
 20
76.4551
 30
0.0
 11
86.469
 21
62.4554
 31
0.0
  0
LINE
  8
0
 62
     0
 10
86.469
 20
62.4554
 30
0.0
 11
72.4683
 21
62.4554
 31
0.0
  0
LINE
  8
0
 62
     0
 10
72.4683
 20
62.4554
 30
0.0
 11
72.4683
 21
76.4551
 31
0.0
  0
LINE
  8
0
 62
     0
 10
91.5183
 20
76.4551
 30
0.0
 11
105.519
 21
76.4551
 31
0.0
  0
LINE
  8
0
 62
     0
 10
105.519
 20
76.4551
 30
0.0
 11
105.519
 21
62.4554
 31
0.0
  0
LINE
  8
0
 62
     0
 10
105.519
 20
62.4554
 30
0.0
 11
91.5183
 21
62.4554
 31
0.0
  0
LINE
  8
0
 62
     0
 10
91.5183
 20
62.4554
 30
0.0
 11
91.5183
 21
76.4551
 31
0.0
  0
LINE
  8
0
 62
     0
 10
110.568
 20
76.4551
 30
0.0
 11
124.568
 21
76.4551
 31
0.0
  0
LINE
  8
0
 62
     0
 10
124.568
 20
76.4551
 30
0.0
 11
124.568
 21
62.4554
 31
0.0
  0
LINE
  8
0
 62
     0
 10
124.568
 20
62.4554
 30
0.0
 11
110.568
 21
62.4554
 31
0.0
  0
LINE
  8
0
 62
     0
 10
110.568
 20
62.4554
 30
0.0
 11
110.568
 21
76.4551
 31
0.0
  0
LINE
  8
0
 62
     0
 10
129.618
 20
76.4551
 30
0.0
 11
143.619
 21
76.4551
 31
0.0
  0
LINE
  8
0
 62
     0
 10
143.619
 20
76.4551
 30
0.0
 11
143.619
 21
62.4554
 31
0.0
  0
LINE
  8
0
 62
     0
 10
143.619
 20
62.4554
 30
0.0
 11
129.618
 21
62.4554
 31
0.0
  0
LINE
  8
0
 62
     0
 10
129.618
 20
62.4554
 30
0.0
 11
129.618
 21
76.4551
 31
0.0
  0
LINE
  8
0
 62
     0
 10
148.668
 20
76.4551
 30
0.0
 11
162.669
 21
76.4551
 31
0.0
  0
LINE
  8
0
 62
     0
 10
162.669
 20
76.4551
 30
0.0
 11
162.669
 21
62.4554
 31
0.0
  0
LINE
  8
0
 62
     0
 10
162.669
 20
62.4554
 30
0.0
 11
148.668
 21
62.4554
 31
0.0
  0
LINE
  8
0
 62
     0
 10
148.668
 20
62.4554
 30
0.0
 11
148.668
 21
76.4551
 31
0.0
  0
LINE
  8
0
 62
     0
 10
167.718
 20
76.4551
 30
0.0
 11
181.719
 21
76.4551
 31
0.0
  0
LINE
  8
0
 62
     0
 10
181.719
 20
76.4551
 30
0.0
 11
181.719
 21
62.4554
 31
0.0
  0
LINE
  8
0
 62
     0
 10
181.719
 20
62.4554
 30
0.0
 11
167.718
 21
62.4554
 31
0.0
  0
LINE
  8
0
 62
     0
 10
167.718
 20
62.4554
 30
0.0
 11
167.718
 21
76.4551
 31
0.0
  0
LINE
  8
0
 62
     0
 10
186.768
 20
76.4551
 30
0.0
 11
200.769
 21
76.4551
 31
0.0
  0
LINE
  8
0
 62
     0
 10
200.769
 20
76.4551
 30
0.0
 11
200.769
 21
62.4554
 31
0.0
  0
LINE
  8
0
 62
     0
 10
200.769
 20
62.4554
 30
0.0
 11
186.768
 21
62.4554
 31
0.0
  0
LINE
  8
0
 62
     0
 10
186.768
 20
62.4554
 30
0.0
 11
186.768
 21
76.4551
 31
0.0
  0
LINE
  8
0
 62
     0
 10
205.818
 20
76.4551
 30
0.0
 11
219.819
 21
76.4551
 31
0.0
  0
LINE
  8
0
 62
     0
 10
219.819
 20
76.4551
 30
0.0
 11
219.819
 21
62.4554
 31
0.0
  0
LINE
  8
0
 62
     0
 10
219.819
 20
62.4554
 30
0.0
 11
205.818
 21
62.4554
 31
0.0
  0
LINE
  8
0
 62
     0
 10
205.818
 20
62.4554
 30
0.0
 11
205.818
 21
76.4551
 31
0.0
  0
LINE
  8
0
 62
     0
 10
224.868
 20
76.4551
 30
0.0
 11
238.869
 21
76.4551
 31
0.0
  0
LINE
  8
0
 62
     0
 10
238.869
 20
76.4551
 30
0.0
 11
238.869
 21
62.4554
 31
0.0
  0
LINE
  8
0
 62
     0
 10
238.869
 20
62.4554
 30
0.0
 11
224.868
 21
62.4554
 31
0.0
  0
LINE
  8
0
 62
     0
 10
224.868
 20
62.4554
 30
0.0
 11
224.868
 21
76.4551
 31
0.0
  0
LINE
  8
0
 62
     0
 10
243.918
 20
76.4551
 30
0.0
 11
257.919
 21
76.4551
 31
0.0
  0
LINE
  8
0
 62
     0
 10
257.919
 20
76.4551
 30
0.0
 11
257.919
 21
62.4554
 31
0.0
  0
LINE
  8
0
 62
     0
 10
257.919
 20
62.4554
 30
0.0
 11
243.918
 21
62.4554
 31
0.0
  0
LINE
  8
0
 62
     0
 10
243.918
 20
62.4554
 30
0.0
 11
243.918
 21
76.4551
 31
0.0
  0
LINE
  8
0
 62
     0
 10
267.732
 20
76.4551
 30
0.0
 11
281.732
 21
76.4551
 31
0.0
  0
LINE
  8
0
 62
     0
 10
281.732
 20
76.4551
 30
0.0
 11
281.732
 21
62.4554
 31
0.0
  0
LINE
  8
0
 62
     0
 10
281.732
 20
62.4554
 30
0.0
 11
267.732
 21
62.4554
 31
0.0
  0
LINE
  8
0
 62
     0
 10
267.732
 20
62.4554
 30
0.0
 11
267.732
 21
76.4551
 31
0.0
  0
LINE
  8
0
 62
     0
 10
262.968
 20
95.5051
 30
0.0
 11
262.968
 21
90.8057
 31
0.0
  0
LINE
  8
0
 62
     0
 10
262.968
 20
90.8057
 30
0.0
 11
261.444
 21
90.8057
 31
0.0
  0
LINE
  8
0
 62
     0
 10
261.444
 20
90.8057
 30
0.0
 11
261.444
 21
94.0361
 31
0.0
  0
LINE
  8
0
 62
     0
 10
261.444
 20
94.0361
 30
0.0
 11
254.693
 21
94.0361
 31
0.0
  0
LINE
  8
0
 62
     0
 10
254.693
 20
94.0361
 30
0.0
 11
254.693
 21
90.8057
 31
0.0
  0
LINE
  8
0
 62
     0
 10
254.693
 20
90.8057
 30
0.0
 11
253.869
 21
90.8057
 31
0.0
  0
LINE
  8
0
 62
     0
 10
253.869
 20
90.8057
 30
0.0
 11
253.869
 21
88.0057
 31
0.0
  0
LINE
  8
0
 62
     0
 10
253.869
 20
88.0057
 30
0.0
 11
254.693
 21
88.0057
 31
0.0
  0
LINE
  8
0
 62
     0
 10
254.693
 20
88.0057
 30
0.0
 11
254.693
 21
81.7354
 31
0.0
  0
LINE
  8
0
 62
     0
 10
254.693
 20
81.7354
 30
0.0
 11
256.418
 21
81.7354
 31
0.0
  0
LINE
  8
0
 62
     0
 10
256.418
 20
81.7354
 30
0.0
 11
256.418
 21
80.5353
 31
0.0
  0
LINE
  8
0
 62
     0
 10
256.418
 20
80.5353
 30
0.0
 11
259.719
 21
80.5353
 31
0.0
  0
LINE
  8
0
 62
     0
 10
259.719
 20
80.5353
 30
0.0
 11
259.719
 21
81.7354
 31
0.0
  0
LINE
  8
0
 62
     0
 10
259.719
 20
81.7354
 30
0.0
 11
261.444
 21
81.7354
 31
0.0
  0
LINE
  8
0
 62
     0
 10
261.444
 20
81.7354
 30
0.0
 11
261.444
 21
86.2058
 31
0.0
  0
LINE
  8
0
 62
     0
 10
261.444
 20
86.2058
 30
0.0
 11
262.968
 21
86.2058
 31
0.0
  0
LINE
  8
0
 62
     0
 10
262.968
 20
86.2058
 30
0.0
 11
262.968
 21
81.5054
 31
0.0
  0
LINE
  8
0
 62
     0
 10
262.968
 20
81.5054
 30
0.0
 11
276.969
 21
81.5054
 31
0.0
  0
LINE
  8
0
 62
     0
 10
276.969
 20
81.5054
 30
0.0
 11
276.969
 21
86.2058
 31
0.0
  0
LINE
  8
0
 62
     0
 10
276.969
 20
86.2058
 30
0.0
 11
278.493
 21
86.2058
 31
0.0
  0
LINE
  8
0
 62
     0
 10
278.493
 20
86.2058
 30
0.0
 11
278.493
 21
81.7354
 31
0.0
  0
LINE
  8
0
 62
     0
 10
278.493
 20
81.7354
 30
0.0
 11
280.218
 21
81.7354
 31
0.0
  0
LINE
  8
0
 62
     0
 10
280.218
 20
81.7354
 30
0.0
 11
280.218
 21
80.5353
 31
0.0
  0
LINE
  8
0
 62
     0
 10
280.218
 20
80.5353
 30
0.0
 11
283.519
 21
80.5353
 31
0.0
  0
LINE
  8
0
 62
     0
 10
283.519
 20
80.5353
 30
0.0
 11
283.519
 21
81.7354
 31
0.0
  0
LINE
  8
0
 62
     0
 10
283.519
 20
81.7354
 30
0.0
 11
285.243
 21
81.7354
 31
0.0
  0
LINE
  8
0
 62
     0
 10
285.243
 20
81.7354
 30
0.0
 11
285.243
 21
88.0057
 31
0.0
  0
LINE
  8
0
 62
     0
 10
285.243
 20
88.0057
 30
0.0
 11
286.068
 21
88.0057
 31
0.0
  0
LINE
  8
0
 62
     0
 10
286.068
 20
88.0057
 30
0.0
 11
286.068
 21
90.8057
 31
0.0
  0
LINE
  8
0
 62
     0
 10
286.068
 20
90.8057
 30
0.0
 11
285.243
 21
90.8057
 31
0.0
  0
LINE
  8
0
 62
     0
 10
285.243
 20
90.8057
 30
0.0
 11
285.243
 21
94.0361
 31
0.0
  0
LINE
  8
0
 62
     0
 10
285.243
 20
94.0361
 30
0.0
 11
278.493
 21
94.0361
 31
0.0
  0
LINE
  8
0
 62
     0
 10
278.493
 20
94.0361
 30
0.0
 11
278.493
 21
90.8057
 31
0.0
  0
LINE
  8
0
 62
     0
 10
278.493
 20
90.8057
 30
0.0
 11
276.969
 21
90.8057
 31
0.0
  0
LINE
  8
0
 62
     0
 10
276.969
 20
90.8057
 30
0.0
 11
276.969
 21
95.5051
 31
0.0
  0
LINE
  8
0
 62
     0
 10
276.969
 20
95.5051
 30
0.0
 11
262.968
 21
95.5051
 31
0.0
  0
LINE
  8
0
 62
     0
 10
5.79328
 20
95.5051
 30
0.0
 11
19.7942
 21
95.5051
 31
0.0
  0
LINE
  8
0
 62
     0
 10
19.7942
 20
95.5051
 30
0.0
 11
19.7942
 21
81.5054
 31
0.0
  0
LINE
  8
0
 62
     0
 10
19.7942
 20
81.5054
 30
0.0
 11
5.79328
 21
81.5054
 31
0.0
  0
LINE
  8
0
 62
     0
 10
5.79328
 20
81.5054
 30
0.0
 11
5.79328
 21
95.5051
 31
0.0
  0
LINE
  8
0
 62
     0
 10
24.8433
 20
95.5051
 30
0.0
 11
38.844
 21
95.5051
 31
0.0
  0
LINE
  8
0
 62
     0
 10
38.844
 20
95.5051
 30
0.0
 11
38.844
 21
81.5054
 31
0.0
  0
LINE
  8
0
 62
     0
 10
38.844
 20
81.5054
 30
0.0
 11
24.8433
 21
81.5054
 31
0.0
  0
LINE
  8
0
 62
     0
 10
24.8433
 20
81.5054
 30
0.0
 11
24.8433
 21
95.5051
 31
0.0
  0
LINE
  8
0
 62
     0
 10
43.8933
 20
95.5051
 30
0.0
 11
57.894
 21
95.5051
 31
0.0
  0
LINE
  8
0
 62
     0
 10
57.894
 20
95.5051
 30
0.0
 11
57.894
 21
81.5054
 31
0.0
  0
LINE
  8
0
 62
     0
 10
57.894
 20
81.5054
 30
0.0
 11
43.8933
 21
81.5054
 31
0.0
  0
LINE
  8
0
 62
     0
 10
43.8933
 20
81.5054
 30
0.0
 11
43.8933
 21
95.5051
 31
0.0
  0
LINE
  8
0
 62
     0
 10
62.9433
 20
95.5051
 30
0.0
 11
76.944
 21
95.5051
 31
0.0
  0
LINE
  8
0
 62
     0
 10
76.944
 20
95.5051
 30
0.0
 11
76.944
 21
81.5054
 31
0.0
  0
LINE
  8
0
 62
     0
 10
76.944
 20
81.5054
 30
0.0
 11
62.9433
 21
81.5054
 31
0.0
  0
LINE
  8
0
 62
     0
 10
62.9433
 20
81.5054
 30
0.0
 11
62.9433
 21
95.5051
 31
0.0
  0
LINE
  8
0
 62
     0
 10
81.9933
 20
95.5051
 30
0.0
 11
95.994
 21
95.5051
 31
0.0
  0
LINE
  8
0
 62
     0
 10
95.994
 20
95.5051
 30
0.0
 11
95.994
 21
81.5054
 31
0.0
  0
LINE
  8
0
 62
     0
 10
95.994
 20
81.5054
 30
0.0
 11
81.9933
 21
81.5054
 31
0.0
  0
LINE
  8
0
 62
     0
 10
81.9933
 20
81.5054
 30
0.0
 11
81.9933
 21
95.5051
 31
0.0
  0
LINE
  8
0
 62
     0
 10
101.043
 20
95.5051
 30
0.0
 11
115.044
 21
95.5051
 31
0.0
  0
LINE
  8
0
 62
     0
 10
115.044
 20
95.5051
 30
0.0
 11
115.044
 21
81.5054
 31
0.0
  0
LINE
  8
0
 62
     0
 10
115.044
 20
81.5054
 30
0.0
 11
101.043
 21
81.5054
 31
0.0
  0
LINE
  8
0
 62
     0
 10
101.043
 20
81.5054
 30
0.0
 11
101.043
 21
95.5051
 31
0.0
  0
LINE
  8
0
 62
     0
 10
120.093
 20
95.5051
 30
0.0
 11
134.094
 21
95.5051
 31
0.0
  0
LINE
  8
0
 62
     0
 10
134.094
 20
95.5051
 30
0.0
 11
134.094
 21
81.5054
 31
0.0
  0
LINE
  8
0
 62
     0
 10
134.094
 20
81.5054
 30
0.0
 11
120.093
 21
81.5054
 31
0.0
  0
LINE
  8
0
 62
     0
 10
120.093
 20
81.5054
 30
0.0
 11
120.093
 21
95.5051
 31
0.0
  0
LINE
  8
0
 62
     0
 10
139.143
 20
95.5051
 30
0.0
 11
153.144
 21
95.5051
 31
0.0
  0
LINE
  8
0
 62
     0
 10
153.144
 20
95.5051
 30
0.0
 11
153.144
 21
81.5054
 31
0.0
  0
LINE
  8
0
 62
     0
 10
153.144
 20
81.5054
 30
0.0
 11
139.143
 21
81.5054
 31
0.0
  0
LINE
  8
0
 62
     0
 10
139.143
 20
81.5054
 30
0.0
 11
139.143
 21
95.5051
 31
0.0
  0
LINE
  8
0
 62
     0
 10
158.193
 20
95.5051
 30
0.0
 11
172.194
 21
95.5051
 31
0.0
  0
LINE
  8
0
 62
     0
 10
172.194
 20
95.5051
 30
0.0
 11
172.194
 21
81.5054
 31
0.0
  0
LINE
  8
0
 62
     0
 10
172.194
 20
81.5054
 30
0.0
 11
158.193
 21
81.5054
 31
0.0
  0
LINE
  8
0
 62
     0
 10
158.193
 20
81.5054
 30
0.0
 11
158.193
 21
95.5051
 31
0.0
  0
LINE
  8
0
 62
     0
 10
177.243
 20
95.5051
 30
0.0
 11
191.244
 21
95.5051
 31
0.0
  0
LINE
  8
0
 62
     0
 10
191.244
 20
95.5051
 30
0.0
 11
191.244
 21
81.5054
 31
0.0
  0
LINE
  8
0
 62
     0
 10
191.244
 20
81.5054
 30
0.0
 11
177.243
 21
81.5054
 31
0.0
  0
LINE
  8
0
 62
     0
 10
177.243
 20
81.5054
 30
0.0
 11
177.243
 21
95.5051
 31
0.0
  0
LINE
  8
0
 62
     0
 10
196.293
 20
95.5051
 30
0.0
 11
210.294
 21
95.5051
 31
0.0
  0
LINE
  8
0
 62
     0
 10
210.294
 20
95.5051
 30
0.0
 11
210.294
 21
81.5054
 31
0.0
  0
LINE
  8
0
 62
     0
 10
210.294
 20
81.5054
 30
0.0
 11
196.293
 21
81.5054
 31
0.0
  0
LINE
  8
0
 62
     0
 10
196.293
 20
81.5054
 30
0.0
 11
196.293
 21
95.5051
 31
0.0
  0
LINE
  8
0
 62
     0
 10
215.343
 20
95.5051
 30
0.0
 11
229.344
 21
95.5051
 31
0.0
  0
LINE
  8
0
 62
     0
 10
229.344
 20
95.5051
 30
0.0
 11
229.344
 21
81.5054
 31
0.0
  0
LINE
  8
0
 62
     0
 10
229.344
 20
81.5054
 30
0.0
 11
215.343
 21
81.5054
 31
0.0
  0
LINE
  8
0
 62
     0
 10
215.343
 20
81.5054
 30
0.0
 11
215.343
 21
95.5051
 31
0.0
  0
LINE
  8
0
 62
     0
 10
234.393
 20
95.5051
 30
0.0
 11
248.394
 21
95.5051
 31
0.0
  0
LINE
  8
0
 62
     0
 10
248.394
 20
95.5051
 30
0.0
 11
248.394
 21
81.5054
 31
0.0
  0
LINE
  8
0
 62
     0
 10
248.394
 20
81.5054
 30
0.0
 11
234.393
 21
81.5054
 31
0.0
  0
LINE
  8
0
 62
     0
 10
234.393
 20
81.5054
 30
0.0
 11
234.393
 21
95.5051
 31
0.0
  0
LINE
  8
0
 62
     0
 10
5.79328
 20
117.413
 30
0.0
 11
19.7942
 21
117.413
 31
0.0
  0
LINE
  8
0
 62
     0
 10
19.7942
 20
117.413
 30
0.0
 11
19.7942
 21
103.414
 31
0.0
  0
LINE
  8
0
 62
     0
 10
19.7942
 20
103.414
 30
0.0
 11
5.79328
 21
103.414
 31
0.0
  0
LINE
  8
0
 62
     0
 10
5.79328
 20
103.414
 30
0.0
 11
5.79328
 21
117.413
 31
0.0
  0
LINE
  8
0
 62
     0
 10
43.8933
 20
117.413
 30
0.0
 11
57.894
 21
117.413
 31
0.0
  0
LINE
  8
0
 62
     0
 10
57.894
 20
117.413
 30
0.0
 11
57.894
 21
103.414
 31
0.0
  0
LINE
  8
0
 62
     0
 10
57.894
 20
103.414
 30
0.0
 11
43.8933
 21
103.414
 31
0.0
  0
LINE
  8
0
 62
     0
 10
43.8933
 20
103.414
 30
0.0
 11
43.8933
 21
117.413
 31
0.0
  0
LINE
  8
0
 62
     0
 10
62.9433
 20
117.413
 30
0.0
 11
76.944
 21
117.413
 31
0.0
  0
LINE
  8
0
 62
     0
 10
76.944
 20
117.413
 30
0.0
 11
76.944
 21
103.414
 31
0.0
  0
LINE
  8
0
 62
     0
 10
76.944
 20
103.414
 30
0.0
 11
62.9433
 21
103.414
 31
0.0
  0
LINE
  8
0
 62
     0
 10
62.9433
 20
103.414
 30
0.0
 11
62.9433
 21
117.413
 31
0.0
  0
LINE
  8
0
 62
     0
 10
81.9933
 20
117.413
 30
0.0
 11
95.994
 21
117.413
 31
0.0
  0
LINE
  8
0
 62
     0
 10
95.994
 20
117.413
 30
0.0
 11
95.994
 21
103.414
 31
0.0
  0
LINE
  8
0
 62
     0
 10
95.994
 20
103.414
 30
0.0
 11
81.9933
 21
103.414
 31
0.0
  0
LINE
  8
0
 62
     0
 10
81.9933
 20
103.414
 30
0.0
 11
81.9933
 21
117.413
 31
0.0
  0
LINE
  8
0
 62
     0
 10
101.043
 20
117.413
 30
0.0
 11
115.044
 21
117.413
 31
0.0
  0
LINE
  8
0
 62
     0
 10
115.044
 20
117.413
 30
0.0
 11
115.044
 21
103.414
 31
0.0
  0
LINE
  8
0
 62
     0
 10
115.044
 20
103.414
 30
0.0
 11
101.043
 21
103.414
 31
0.0
  0
LINE
  8
0
 62
     0
 10
101.043
 20
103.414
 30
0.0
 11
101.043
 21
117.413
 31
0.0
  0
LINE
  8
0
 62
     0
 10
129.618
 20
117.413
 30
0.0
 11
143.619
 21
117.413
 31
0.0
  0
LINE
  8
0
 62
     0
 10
143.619
 20
117.413
 30
0.0
 11
143.619
 21
103.414
 31
0.0
  0
LINE
  8
0
 62
     0
 10
143.619
 20
103.414
 30
0.0
 11
129.618
 21
103.414
 31
0.0
  0
LINE
  8
0
 62
     0
 10
129.618
 20
103.414
 30
0.0
 11
129.618
 21
117.413
 31
0.0
  0
LINE
  8
0
 62
     0
 10
148.668
 20
117.413
 30
0.0
 11
162.669
 21
117.413
 31
0.0
  0
LINE
  8
0
 62
     0
 10
162.669
 20
117.413
 30
0.0
 11
162.669
 21
103.414
 31
0.0
  0
LINE
  8
0
 62
     0
 10
162.669
 20
103.414
 30
0.0
 11
148.668
 21
103.414
 31
0.0
  0
LINE
  8
0
 62
     0
 10
148.668
 20
103.414
 30
0.0
 11
148.668
 21
117.413
 31
0.0
  0
LINE
  8
0
 62
     0
 10
167.718
 20
117.413
 30
0.0
 11
181.719
 21
117.413
 31
0.0
  0
LINE
  8
0
 62
     0
 10
181.719
 20
117.413
 30
0.0
 11
181.719
 21
103.414
 31
0.0
  0
LINE
  8
0
 62
     0
 10
181.719
 20
103.414
 30
0.0
 11
167.718
 21
103.414
 31
0.0
  0
LINE
  8
0
 62
     0
 10
167.718
 20
103.414
 30
0.0
 11
167.718
 21
117.413
 31
0.0
  0
LINE
  8
0
 62
     0
 10
186.768
 20
117.413
 30
0.0
 11
200.769
 21
117.413
 31
0.0
  0
LINE
  8
0
 62
     0
 10
200.769
 20
117.413
 30
0.0
 11
200.769
 21
103.414
 31
0.0
  0
LINE
  8
0
 62
     0
 10
200.769
 20
103.414
 30
0.0
 11
186.768
 21
103.414
 31
0.0
  0
LINE
  8
0
 62
     0
 10
186.768
 20
103.414
 30
0.0
 11
186.768
 21
117.413
 31
0.0
  0
LINE
  8
0
 62
     0
 10
215.343
 20
117.413
 30
0.0
 11
229.344
 21
117.413
 31
0.0
  0
LINE
  8
0
 62
     0
 10
229.344
 20
117.413
 30
0.0
 11
229.344
 21
103.414
 31
0.0
  0
LINE
  8
0
 62
     0
 10
229.344
 20
103.414
 30
0.0
 11
215.343
 21
103.414
 31
0.0
  0
LINE
  8
0
 62
     0
 10
215.343
 20
103.414
 30
0.0
 11
215.343
 21
117.413
 31
0.0
  0
LINE
  8
0
 62
     0
 10
234.393
 20
117.413
 30
0.0
 11
248.394
 21
117.413
 31
0.0
  0
LINE
  8
0
 62
     0
 10
248.394
 20
117.413
 30
0.0
 11
248.394
 21
103.414
 31
0.0
  0
LINE
  8
0
 62
     0
 10
248.394
 20
103.414
 30
0.0
 11
234.393
 21
103.414
 31
0.0
  0
LINE
  8
0
 62
     0
 10
234.393
 20
103.414
 30
0.0
 11
234.393
 21
117.413
 31
0.0
  0
LINE
  8
0
 62
     0
 10
253.443
 20
117.413
 30
0.0
 11
267.444
 21
117.413
 31
0.0
  0
LINE
  8
0
 62
     0
 10
267.444
 20
117.413
 30
0.0
 11
267.444
 21
103.414
 31
0.0
  0
LINE
  8
0
 62
     0
 10
267.444
 20
103.414
 30
0.0
 11
253.443
 21
103.414
 31
0.0
  0
LINE
  8
0
 62
     0
 10
253.443
 20
103.414
 30
0.0
 11
253.443
 21
117.413
 31
0.0
  0
LINE
  8
0
 62
     0
 10
272.493
 20
117.413
 30
0.0
 11
286.494
 21
117.413
 31
0.0
  0
LINE
  8
0
 62
     0
 10
286.494
 20
117.413
 30
0.0
 11
286.494
 21
103.414
 31
0.0
  0
LINE
  8
0
 62
     0
 10
286.494
 20
103.414
 30
0.0
 11
272.493
 21
103.414
 31
0.0
  0
LINE
  8
0
 62
     0
 10
272.493
 20
103.414
 30
0.0
 11
272.493
 21
117.413
 31
0.0
  0
ENDSEC
  0
EOF
