<?xml version="1.0" encoding="UTF-8"?>
<!-- Generated by SVGo -->
<svg width="345.852mm" height="139.159mm" viewBox="0.000 0.000 345.852 139.159" xmlns="http://www.w3.org/2000/svg" xmlns:xlink="http://www.w3.org/1999/xlink">
<polygon points="302.926,5.001 302.926,9.001 9.001,9.001 9.001,130.158 336.852,130.158 336.852,9.001 328.926,9.001 328.926,5.001 338.852,5.001 339.008,5.007 339.164,5.025 339.318,5.056 339.470,5.098 339.617,5.153 339.759,5.218 339.896,5.295 340.027,5.382 340.150,5.480 340.266,5.586 340.372,5.702 340.470,5.825 340.557,5.956 340.634,6.093 340.699,6.235 340.754,6.382 340.796,6.534 340.827,6.688 340.845,6.844 340.852,7.001 340.852,132.159 340.845,132.316 340.827,132.472 340.796,132.626 340.754,132.777 340.699,132.924 340.634,133.067 340.557,133.204 340.470,133.335 340.372,133.458 340.266,133.573 340.150,133.680 340.027,133.777 339.896,133.864 339.759,133.941 339.617,134.007 339.470,134.061 339.318,134.104 339.164,134.134 339.008,134.153 338.851,134.159 7.001,134.159 6.844,134.153 6.688,134.134 6.534,134.104 6.382,134.061 6.235,134.007 6.093,133.941 5.956,133.864 5.825,133.777 5.702,133.680 5.586,133.573 5.480,133.458 5.382,133.335 5.295,133.204 5.218,133.067 5.153,132.924 5.098,132.777 5.056,132.626 5.025,132.472 5.007,132.316 5.000,132.159 5.001,7.001 5.007,6.844 5.025,6.688 5.056,6.534 5.098,6.382 5.153,6.235 5.218,6.093 5.295,5.956 5.382,5.825 5.480,5.702 5.586,5.586 5.702,5.480 5.825,5.382 5.956,5.295 6.093,5.218 6.235,5.153 6.382,5.098 6.534,5.056 6.688,5.025 6.844,5.007 7.001,5.000" style="fill:none;stroke-width:0.050000mm;stroke:black"/>
<polygon points="338.373,130.685 337.940,130.905 337.598,131.248 337.377,131.680 337.302,132.159 337.377,132.638 337.598,133.070 337.940,133.413 338.373,133.633 338.852,133.709 339.330,133.633 339.763,133.413 340.105,133.070 340.326,132.638 340.402,132.159 340.326,131.680 340.105,131.248 339.763,130.905 339.330,130.685 338.852,130.609" style="fill:none;stroke-width:0.050000mm;stroke:black"/>
<polygon points="227.756,130.685 227.323,130.905 226.981,131.248 226.760,131.680 226.685,132.159 226.760,132.638 226.981,133.070 227.323,133.413 227.756,133.633 228.235,133.709 228.713,133.633 229.146,133.413 229.488,133.070 229.709,132.638 229.785,132.159 229.709,131.680 229.488,131.248 229.146,130.905 228.713,130.685 228.235,130.609" style="fill:none;stroke-width:0.050000mm;stroke:black"/>
<polygon points="117.139,130.685 116.706,130.905 116.364,131.248 116.143,131.680 116.068,132.159 116.143,132.638 116.364,133.070 116.706,133.413 117.139,133.633 117.618,133.709 118.096,133.633 118.529,133.413 118.871,133.070 119.092,132.638 119.168,132.159 119.092,131.680 118.871,131.248 118.529,130.905 118.096,130.685 117.618,130.609" style="fill:none;stroke-width:0.050000mm;stroke:black"/>
<polygon points="6.522,130.685 6.089,130.905 5.747,131.248 5.526,131.680 5.450,132.159 5.526,132.638 5.747,133.070 6.089,133.413 6.522,133.633 7.000,133.709 7.479,133.633 7.912,133.413 8.254,133.070 8.475,132.638 8.551,132.159 8.475,131.680 8.254,131.248 7.912,130.905 7.479,130.685 7.001,130.609" style="fill:none;stroke-width:0.050000mm;stroke:black"/>
<polygon points="117.139,5.526 116.706,5.747 116.364,6.089 116.143,6.522 116.068,7.001 116.143,7.479 116.364,7.912 116.706,8.254 117.139,8.475 117.618,8.551 118.096,8.475 118.529,8.254 118.871,7.912 119.092,7.479 119.168,7.001 119.092,6.522 118.871,6.089 118.529,5.747 118.096,5.526 117.618,5.451" style="fill:none;stroke-width:0.050000mm;stroke:black"/>
<polygon points="227.756,5.526 227.323,5.747 226.981,6.089 226.760,6.522 226.685,7.001 226.760,7.479 226.981,7.912 227.323,8.254 227.756,8.475 228.235,8.551 228.713,8.475 229.146,8.254 229.488,7.912 229.709,7.479 229.785,7.001 229.709,6.522 229.488,6.089 229.146,5.747 228.713,5.526 228.235,5.451" style="fill:none;stroke-width:0.050000mm;stroke:black"/>
<polygon points="338.373,5.526 337.940,5.747 337.598,6.089 337.377,6.522 337.302,7.001 337.377,7.479 337.598,7.912 337.940,8.254 338.373,8.475 338.852,8.551 339.330,8.475 339.763,8.254 340.105,7.912 340.326,7.479 340.402,7.001 340.326,6.522 340.105,6.089 339.763,5.747 339.330,5.526 338.852,5.451" style="fill:none;stroke-width:0.050000mm;stroke:black"/>
<polygon points="6.522,5.526 6.089,5.747 5.747,6.089 5.526,6.522 5.450,7.001 5.526,7.479 5.747,7.912 6.089,8.254 6.522,8.475 7.000,8.551 7.479,8.475 7.912,8.254 8.254,7.912 8.475,7.479 8.551,7.001 8.475,6.522 8.254,6.089 7.912,5.747 7.479,5.526 7.001,5.451" style="fill:none;stroke-width:0.050000mm;stroke:black"/>
</svg>