<?xml version="1.0" encoding="UTF-8"?>
<!-- Generated by SVGo -->
<svg width="345.852mm" height="139.159mm" viewBox="0.000 0.000 345.852 139.159" xmlns="http://www.w3.org/2000/svg" xmlns:xlink="http://www.w3.org/1999/xlink">
<polygon points="338.852,5.001 339.008,5.007 339.164,5.025 339.318,5.056 339.470,5.098 339.617,5.153 339.759,5.218 339.896,5.295 340.027,5.382 340.150,5.480 340.266,5.586 340.372,5.702 340.470,5.825 340.557,5.956 340.634,6.093 340.699,6.235 340.754,6.382 340.796,6.534 340.827,6.688 340.845,6.844 340.852,7.001 340.852,132.159 340.845,132.316 340.827,132.472 340.796,132.626 340.754,132.777 340.699,132.924 340.634,133.067 340.557,133.204 340.470,133.335 340.372,133.458 340.266,133.573 340.150,133.680 340.027,133.777 339.896,133.864 339.759,133.941 339.617,134.007 339.470,134.061 339.318,134.104 339.164,134.134 339.008,134.153 338.851,134.159 7.001,134.159 6.844,134.153 6.688,134.134 6.534,134.104 6.382,134.061 6.235,134.007 6.093,133.941 5.956,133.864 5.825,133.777 5.702,133.680 5.586,133.573 5.480,133.458 5.382,133.335 5.295,133.204 5.218,133.067 5.153,132.924 5.098,132.777 5.056,132.626 5.025,132.472 5.007,132.316 5.000,132.159 5.001,7.001 5.007,6.844 5.025,6.688 5.056,6.534 5.098,6.382 5.153,6.235 5.218,6.093 5.295,5.956 5.382,5.825 5.480,5.702 5.586,5.586 5.702,5.480 5.825,5.382 5.956,5.295 6.093,5.218 6.235,5.153 6.382,5.098 6.534,5.056 6.688,5.025 6.844,5.007 7.001,5.000" style="fill:none;stroke-width:0.050000mm;stroke:black"/>
<polygon points="338.373,130.685 337.940,130.905 337.598,131.248 337.377,131.680 337.302,132.159 337.377,132.638 337.598,133.070 337.940,133.413 338.373,133.633 338.852,133.709 339.330,133.633 339.763,133.413 340.105,133.070 340.326,132.638 340.402,132.159 340.326,131.680 340.105,131.248 339.763,130.905 339.330,130.685 338.852,130.609" style="fill:none;stroke-width:0.050000mm;stroke:black"/>
<polygon points="227.756,130.685 227.323,130.905 226.981,131.248 226.760,131.680 226.685,132.159 226.760,132.638 226.981,133.070 227.323,133.413 227.756,133.633 228.235,133.709 228.713,133.633 229.146,133.413 229.488,133.070 229.709,132.638 229.785,132.159 229.709,131.680 229.488,131.248 229.146,130.905 228.713,130.685 228.235,130.609" style="fill:none;stroke-width:0.050000mm;stroke:black"/>
<polygon points="117.139,130.685 116.706,130.905 116.364,131.248 116.143,131.680 116.068,132.159 116.143,132.638 116.364,133.070 116.706,133.413 117.139,133.633 117.618,133.709 118.096,133.633 118.529,133.413 118.871,133.070 119.092,132.638 119.168,132.159 119.092,131.680 118.871,131.248 118.529,130.905 118.096,130.685 117.618,130.609" style="fill:none;stroke-width:0.050000mm;stroke:black"/>
<polygon points="6.522,130.685 6.089,130.905 5.747,131.248 5.526,131.680 5.450,132.159 5.526,132.638 5.747,133.070 6.089,133.413 6.522,133.633 7.000,133.709 7.479,133.633 7.912,133.413 8.254,133.070 8.475,132.638 8.551,132.159 8.475,131.680 8.254,131.248 7.912,130.905 7.479,130.685 7.001,130.609" style="fill:none;stroke-width:0.050000mm;stroke:black"/>
<polygon points="134.969,111.633 134.969,116.333 95.344,116.333 95.344,113.103 93.619,113.103 93.619,112.183 90.319,112.183 90.319,113.103 88.594,113.103 88.594,116.333 87.769,116.333 87.769,119.133 88.594,119.133 88.594,125.403 90.319,125.403 90.319,126.383 93.619,126.383 93.619,125.403 95.344,125.403 95.344,120.933 134.969,120.933 134.969,125.633 148.969,125.633 148.969,120.933 188.594,120.933 188.594,125.403 190.319,125.403 190.319,126.383 193.619,126.383 193.619,125.403 195.344,125.403 195.344,119.133 196.169,119.133 196.169,116.333 195.344,116.333 195.344,113.103 193.619,113.103 193.619,112.183 190.319,112.183 190.319,113.103 188.594,113.103 188.594,116.333 148.969,116.333 148.969,111.633" style="fill:none;stroke-width:0.050000mm;stroke:black"/>
<polygon points="15.907,111.633 15.907,125.633 29.907,125.633 29.907,111.633" style="fill:none;stroke-width:0.050000mm;stroke:black"/>
<polygon points="39.719,111.633 39.719,125.633 53.719,125.633 53.719,111.633" style="fill:none;stroke-width:0.050000mm;stroke:black"/>
<polygon points="63.532,111.633 63.532,125.633 77.532,125.633 77.532,111.633" style="fill:none;stroke-width:0.050000mm;stroke:black"/>
<polygon points="206.407,111.633 206.407,125.633 220.407,125.633 220.407,111.633" style="fill:none;stroke-width:0.050000mm;stroke:black"/>
<polygon points="230.219,111.633 230.219,125.633 244.219,125.633 244.219,111.633" style="fill:none;stroke-width:0.050000mm;stroke:black"/>
<polygon points="254.032,111.633 254.032,125.633 268.032,125.633 268.032,111.633" style="fill:none;stroke-width:0.050000mm;stroke:black"/>
<polygon points="280.226,111.633 280.226,125.633 294.226,125.633 294.226,111.633" style="fill:none;stroke-width:0.050000mm;stroke:black"/>
<polygon points="299.276,111.633 299.276,125.633 313.276,125.633 313.276,111.633" style="fill:none;stroke-width:0.050000mm;stroke:black"/>
<polygon points="318.326,111.633 318.326,125.633 332.326,125.633 332.326,111.633" style="fill:none;stroke-width:0.050000mm;stroke:black"/>
<polygon points="25.432,92.583 25.432,97.283 23.907,97.283 23.907,94.053 22.182,94.053 22.182,93.133 18.882,93.133 18.882,94.053 17.157,94.053 17.157,97.283 16.332,97.283 16.332,100.083 17.157,100.083 17.157,106.353 18.882,106.353 18.882,107.333 22.182,107.333 22.182,106.353 23.907,106.353 23.907,101.883 25.432,101.883 25.432,106.583 39.432,106.583 39.432,101.883 40.957,101.883 40.957,106.353 42.682,106.353 42.682,107.333 45.982,107.333 45.982,106.353 47.707,106.353 47.707,100.083 48.532,100.083 48.532,97.283 47.707,97.283 47.707,94.053 45.982,94.053 45.982,93.133 42.682,93.133 42.682,94.053 40.957,94.053 40.957,97.283 39.432,97.283 39.432,92.583" style="fill:none;stroke-width:0.050000mm;stroke:black"/>
<polygon points="263.557,92.583 263.557,97.283 262.032,97.283 262.032,94.053 260.306,94.053 260.306,93.133 257.006,93.133 257.006,94.053 255.282,94.053 255.282,97.283 254.457,97.283 254.457,100.083 255.282,100.083 255.282,106.353 257.006,106.353 257.006,107.333 260.306,107.333 260.306,106.353 262.032,106.353 262.032,101.883 263.557,101.883 263.557,106.583 277.557,106.583 277.557,101.883 279.082,101.883 279.082,106.353 280.807,106.353 280.807,107.333 284.107,107.333 284.107,106.353 285.832,106.353 285.832,100.083 286.657,100.083 286.657,97.283 285.832,97.283 285.832,94.053 284.107,94.053 284.107,93.133 280.807,93.133 280.807,94.053 279.082,94.053 279.082,97.283 277.557,97.283 277.557,92.583" style="fill:none;stroke-width:0.050000mm;stroke:black"/>
<polygon points="56.388,92.583 56.388,106.583 70.388,106.583 70.388,92.583" style="fill:none;stroke-width:0.050000mm;stroke:black"/>
<polygon points="75.438,92.583 75.438,106.583 89.438,106.583 89.438,92.583" style="fill:none;stroke-width:0.050000mm;stroke:black"/>
<polygon points="94.488,92.583 94.488,106.583 108.488,106.583 108.488,92.583" style="fill:none;stroke-width:0.050000mm;stroke:black"/>
<polygon points="113.538,92.583 113.538,106.583 127.538,106.583 127.538,92.583" style="fill:none;stroke-width:0.050000mm;stroke:black"/>
<polygon points="132.588,92.583 132.588,106.583 146.588,106.583 146.588,92.583" style="fill:none;stroke-width:0.050000mm;stroke:black"/>
<polygon points="151.638,92.583 151.638,106.583 165.638,106.583 165.638,92.583" style="fill:none;stroke-width:0.050000mm;stroke:black"/>
<polygon points="170.688,92.583 170.688,106.583 184.688,106.583 184.688,92.583" style="fill:none;stroke-width:0.050000mm;stroke:black"/>
<polygon points="189.738,92.583 189.738,106.583 203.738,106.583 203.738,92.583" style="fill:none;stroke-width:0.050000mm;stroke:black"/>
<polygon points="208.788,92.583 208.788,106.583 222.788,106.583 222.788,92.583" style="fill:none;stroke-width:0.050000mm;stroke:black"/>
<polygon points="227.838,92.583 227.838,106.583 241.838,106.583 241.838,92.583" style="fill:none;stroke-width:0.050000mm;stroke:black"/>
<polygon points="299.276,92.583 299.276,106.583 313.276,106.583 313.276,92.583" style="fill:none;stroke-width:0.050000mm;stroke:black"/>
<polygon points="268.319,73.533 268.319,78.233 266.794,78.233 266.794,75.003 265.069,75.003 265.069,74.083 261.768,74.083 261.768,75.003 260.044,75.003 260.044,78.233 259.219,78.233 259.219,81.033 260.044,81.033 260.044,87.303 261.768,87.303 261.768,88.283 265.069,88.283 265.069,87.303 266.794,87.303 266.794,82.833 268.319,82.833 268.319,87.533 282.319,87.533 282.319,82.833 283.844,82.833 283.844,87.303 285.569,87.303 285.569,88.283 288.869,88.283 288.869,87.303 290.594,87.303 290.594,81.033 291.419,81.033 291.419,78.233 290.594,78.233 290.594,75.003 288.869,75.003 288.869,74.083 285.569,74.083 285.569,75.003 283.844,75.003 283.844,78.233 282.319,78.233 282.319,73.533" style="fill:none;stroke-width:0.050000mm;stroke:black"/>
<polygon points="20.669,73.533 20.669,87.533 34.669,87.533 34.669,73.533" style="fill:none;stroke-width:0.050000mm;stroke:black"/>
<polygon points="46.863,73.533 46.863,87.533 60.863,87.533 60.863,73.533" style="fill:none;stroke-width:0.050000mm;stroke:black"/>
<polygon points="65.913,73.533 65.913,87.533 79.913,87.533 79.913,73.533" style="fill:none;stroke-width:0.050000mm;stroke:black"/>
<polygon points="84.963,73.533 84.963,87.533 98.963,87.533 98.963,73.533" style="fill:none;stroke-width:0.050000mm;stroke:black"/>
<polygon points="104.013,73.533 104.013,87.533 118.013,87.533 118.013,73.533" style="fill:none;stroke-width:0.050000mm;stroke:black"/>
<polygon points="123.063,73.533 123.063,87.533 137.063,87.533 137.063,73.533" style="fill:none;stroke-width:0.050000mm;stroke:black"/>
<polygon points="142.113,73.533 142.113,87.533 156.113,87.533 156.113,73.533" style="fill:none;stroke-width:0.050000mm;stroke:black"/>
<polygon points="161.163,73.533 161.163,87.533 175.163,87.533 175.163,73.533" style="fill:none;stroke-width:0.050000mm;stroke:black"/>
<polygon points="180.213,73.533 180.213,87.533 194.213,87.533 194.213,73.533" style="fill:none;stroke-width:0.050000mm;stroke:black"/>
<polygon points="199.263,73.533 199.263,87.533 213.263,87.533 213.263,73.533" style="fill:none;stroke-width:0.050000mm;stroke:black"/>
<polygon points="218.313,73.533 218.313,87.533 232.313,87.533 232.313,73.533" style="fill:none;stroke-width:0.050000mm;stroke:black"/>
<polygon points="237.363,73.533 237.363,87.533 251.363,87.533 251.363,73.533" style="fill:none;stroke-width:0.050000mm;stroke:black"/>
<polygon points="18.288,54.483 18.288,68.483 32.288,68.483 32.288,54.483" style="fill:none;stroke-width:0.050000mm;stroke:black"/>
<polygon points="42.101,54.483 42.101,68.483 56.101,68.483 56.101,54.483" style="fill:none;stroke-width:0.050000mm;stroke:black"/>
<polygon points="61.151,54.483 61.151,68.483 75.151,68.483 75.151,54.483" style="fill:none;stroke-width:0.050000mm;stroke:black"/>
<polygon points="80.201,54.483 80.201,68.483 94.201,68.483 94.201,54.483" style="fill:none;stroke-width:0.050000mm;stroke:black"/>
<polygon points="99.251,54.483 99.251,68.483 113.251,68.483 113.251,54.483" style="fill:none;stroke-width:0.050000mm;stroke:black"/>
<polygon points="118.301,54.483 118.301,68.483 132.301,68.483 132.301,54.483" style="fill:none;stroke-width:0.050000mm;stroke:black"/>
<polygon points="137.351,54.483 137.351,68.483 151.351,68.483 151.351,54.483" style="fill:none;stroke-width:0.050000mm;stroke:black"/>
<polygon points="156.401,54.483 156.401,68.483 170.401,68.483 170.401,54.483" style="fill:none;stroke-width:0.050000mm;stroke:black"/>
<polygon points="175.451,54.483 175.451,68.483 189.451,68.483 189.451,54.483" style="fill:none;stroke-width:0.050000mm;stroke:black"/>
<polygon points="194.501,54.483 194.501,68.483 208.501,68.483 208.501,54.483" style="fill:none;stroke-width:0.050000mm;stroke:black"/>
<polygon points="213.551,54.483 213.551,68.483 227.551,68.483 227.551,54.483" style="fill:none;stroke-width:0.050000mm;stroke:black"/>
<polygon points="232.601,54.483 232.601,68.483 246.601,68.483 246.601,54.483" style="fill:none;stroke-width:0.050000mm;stroke:black"/>
<polygon points="251.651,54.483 251.651,68.483 265.651,68.483 265.651,54.483" style="fill:none;stroke-width:0.050000mm;stroke:black"/>
<polygon points="275.463,54.483 275.463,68.483 289.463,68.483 289.463,54.483" style="fill:none;stroke-width:0.050000mm;stroke:black"/>
<polygon points="270.701,35.433 270.701,40.133 269.176,40.133 269.176,36.903 267.451,36.903 267.451,35.983 264.151,35.983 264.151,36.903 262.426,36.903 262.426,40.133 261.601,40.133 261.601,42.933 262.426,42.933 262.426,49.203 264.151,49.203 264.151,50.183 267.451,50.183 267.451,49.203 269.176,49.203 269.176,44.733 270.701,44.733 270.701,49.433 284.701,49.433 284.701,44.733 286.226,44.733 286.226,49.203 287.951,49.203 287.951,50.183 291.251,50.183 291.251,49.203 292.976,49.203 292.976,42.933 293.801,42.933 293.801,40.133 292.976,40.133 292.976,36.903 291.251,36.903 291.251,35.983 287.951,35.983 287.951,36.903 286.226,36.903 286.226,40.133 284.701,40.133 284.701,35.433" style="fill:none;stroke-width:0.050000mm;stroke:black"/>
<polygon points="13.525,35.433 13.525,49.433 27.526,49.433 27.526,35.433" style="fill:none;stroke-width:0.050000mm;stroke:black"/>
<polygon points="32.576,35.433 32.576,49.433 46.576,49.433 46.576,35.433" style="fill:none;stroke-width:0.050000mm;stroke:black"/>
<polygon points="51.626,35.433 51.626,49.433 65.626,49.433 65.626,35.433" style="fill:none;stroke-width:0.050000mm;stroke:black"/>
<polygon points="70.676,35.433 70.676,49.433 84.676,49.433 84.676,35.433" style="fill:none;stroke-width:0.050000mm;stroke:black"/>
<polygon points="89.726,35.433 89.726,49.433 103.726,49.433 103.726,35.433" style="fill:none;stroke-width:0.050000mm;stroke:black"/>
<polygon points="108.775,35.433 108.775,49.433 122.775,49.433 122.775,35.433" style="fill:none;stroke-width:0.050000mm;stroke:black"/>
<polygon points="127.825,35.433 127.825,49.433 141.826,49.433 141.826,35.433" style="fill:none;stroke-width:0.050000mm;stroke:black"/>
<polygon points="146.876,35.433 146.876,49.433 160.876,49.433 160.876,35.433" style="fill:none;stroke-width:0.050000mm;stroke:black"/>
<polygon points="165.926,35.433 165.926,49.433 179.926,49.433 179.926,35.433" style="fill:none;stroke-width:0.050000mm;stroke:black"/>
<polygon points="184.976,35.433 184.976,49.433 198.976,49.433 198.976,35.433" style="fill:none;stroke-width:0.050000mm;stroke:black"/>
<polygon points="204.026,35.433 204.026,49.433 218.026,49.433 218.026,35.433" style="fill:none;stroke-width:0.050000mm;stroke:black"/>
<polygon points="223.076,35.433 223.076,49.433 237.076,49.433 237.076,35.433" style="fill:none;stroke-width:0.050000mm;stroke:black"/>
<polygon points="242.126,35.433 242.126,49.433 256.126,49.433 256.126,35.433" style="fill:none;stroke-width:0.050000mm;stroke:black"/>
<polygon points="13.525,13.525 13.525,27.526 27.526,27.526 27.526,13.525" style="fill:none;stroke-width:0.050000mm;stroke:black"/>
<polygon points="51.626,13.525 51.626,27.526 65.626,27.526 65.626,13.525" style="fill:none;stroke-width:0.050000mm;stroke:black"/>
<polygon points="70.676,13.525 70.676,27.526 84.676,27.526 84.676,13.525" style="fill:none;stroke-width:0.050000mm;stroke:black"/>
<polygon points="89.726,13.525 89.726,27.526 103.726,27.526 103.726,13.525" style="fill:none;stroke-width:0.050000mm;stroke:black"/>
<polygon points="108.775,13.525 108.775,27.526 122.775,27.526 122.775,13.525" style="fill:none;stroke-width:0.050000mm;stroke:black"/>
<polygon points="137.351,13.525 137.351,27.526 151.351,27.526 151.351,13.525" style="fill:none;stroke-width:0.050000mm;stroke:black"/>
<polygon points="156.401,13.525 156.401,27.526 170.401,27.526 170.401,13.525" style="fill:none;stroke-width:0.050000mm;stroke:black"/>
<polygon points="175.451,13.525 175.451,27.526 189.451,27.526 189.451,13.525" style="fill:none;stroke-width:0.050000mm;stroke:black"/>
<polygon points="194.501,13.525 194.501,27.526 208.501,27.526 208.501,13.525" style="fill:none;stroke-width:0.050000mm;stroke:black"/>
<polygon points="223.076,13.525 223.076,27.526 237.076,27.526 237.076,13.525" style="fill:none;stroke-width:0.050000mm;stroke:black"/>
<polygon points="242.126,13.525 242.126,27.526 256.126,27.526 256.126,13.525" style="fill:none;stroke-width:0.050000mm;stroke:black"/>
<polygon points="261.176,13.525 261.176,27.526 275.176,27.526 275.176,13.525" style="fill:none;stroke-width:0.050000mm;stroke:black"/>
<polygon points="280.226,13.525 280.226,27.526 294.226,27.526 294.226,13.525" style="fill:none;stroke-width:0.050000mm;stroke:black"/>
<polygon points="117.139,5.526 116.706,5.747 116.364,6.089 116.143,6.522 116.068,7.001 116.143,7.479 116.364,7.912 116.706,8.254 117.139,8.475 117.618,8.551 118.096,8.475 118.529,8.254 118.871,7.912 119.092,7.479 119.168,7.001 119.092,6.522 118.871,6.089 118.529,5.747 118.096,5.526 117.618,5.451" style="fill:none;stroke-width:0.050000mm;stroke:black"/>
<polygon points="227.756,5.526 227.323,5.747 226.981,6.089 226.760,6.522 226.685,7.001 226.760,7.479 226.981,7.912 227.323,8.254 227.756,8.475 228.235,8.551 228.713,8.475 229.146,8.254 229.488,7.912 229.709,7.479 229.785,7.001 229.709,6.522 229.488,6.089 229.146,5.747 228.713,5.526 228.235,5.451" style="fill:none;stroke-width:0.050000mm;stroke:black"/>
<polygon points="338.373,5.526 337.940,5.747 337.598,6.089 337.377,6.522 337.302,7.001 337.377,7.479 337.598,7.912 337.940,8.254 338.373,8.475 338.852,8.551 339.330,8.475 339.763,8.254 340.105,7.912 340.326,7.479 340.402,7.001 340.326,6.522 340.105,6.089 339.763,5.747 339.330,5.526 338.852,5.451" style="fill:none;stroke-width:0.050000mm;stroke:black"/>
<polygon points="6.522,5.526 6.089,5.747 5.747,6.089 5.526,6.522 5.450,7.001 5.526,7.479 5.747,7.912 6.089,8.254 6.522,8.475 7.000,8.551 7.479,8.475 7.912,8.254 8.254,7.912 8.475,7.479 8.551,7.001 8.475,6.522 8.254,6.089 7.912,5.747 7.479,5.526 7.001,5.451" style="fill:none;stroke-width:0.050000mm;stroke:black"/>
</svg>