  0
SECTION
  2
HEADER
  9
$ACADVER
  1
AC1009
  9
$FILLMODE
 70
 0
  9
$SPLFRAME
 70
 1
  9
$EXTMIN
 10
0
 20
0
 30
0.0
  9
$EXTMAX
 10
1058.33
 20
1058.33
 30
0.0
  0
ENDSEC
  0
SECTION
  2
TABLES
  0
TABLE
  2
LAYER
 70
1
  0
LAYER
  2
0
 70
     0
 62
     7
  6
CONTINUOUS
  0
ENDTAB
  0
ENDSEC
  0
SECTION
  2
ENTITIES
  0
LINE
  8
0
 62
     0
 10
333.947
 20
129.374
 30
0.0
 11
334.103
 21
129.367
 31
0.0
  0
LINE
  8
0
 62
     0
 10
334.103
 20
129.367
 30
0.0
 11
334.258
 21
129.35
 31
0.0
  0
LINE
  8
0
 62
     0
 10
334.258
 20
129.35
 30
0.0
 11
334.413
 21
129.319
 31
0.0
  0
LINE
  8
0
 62
     0
 10
334.413
 20
129.319
 30
0.0
 11
334.564
 21
129.276
 31
0.0
  0
LINE
  8
0
 62
     0
 10
334.564
 20
129.276
 30
0.0
 11
334.712
 21
129.221
 31
0.0
  0
LINE
  8
0
 62
     0
 10
334.712
 20
129.221
 30
0.0
 11
334.853
 21
129.157
 31
0.0
  0
LINE
  8
0
 62
     0
 10
334.853
 20
129.157
 30
0.0
 11
334.99
 21
129.08
 31
0.0
  0
LINE
  8
0
 62
     0
 10
334.99
 20
129.08
 30
0.0
 11
335.121
 21
128.992
 31
0.0
  0
LINE
  8
0
 62
     0
 10
335.121
 20
128.992
 30
0.0
 11
335.245
 21
128.895
 31
0.0
  0
LINE
  8
0
 62
     0
 10
335.245
 20
128.895
 30
0.0
 11
335.361
 21
128.789
 31
0.0
  0
LINE
  8
0
 62
     0
 10
335.361
 20
128.789
 30
0.0
 11
335.467
 21
128.673
 31
0.0
  0
LINE
  8
0
 62
     0
 10
335.467
 20
128.673
 30
0.0
 11
335.565
 21
128.55
 31
0.0
  0
LINE
  8
0
 62
     0
 10
335.565
 20
128.55
 30
0.0
 11
335.651
 21
128.419
 31
0.0
  0
LINE
  8
0
 62
     0
 10
335.651
 20
128.419
 30
0.0
 11
335.729
 21
128.282
 31
0.0
  0
LINE
  8
0
 62
     0
 10
335.729
 20
128.282
 30
0.0
 11
335.793
 21
128.139
 31
0.0
  0
LINE
  8
0
 62
     0
 10
335.793
 20
128.139
 30
0.0
 11
335.849
 21
127.993
 31
0.0
  0
LINE
  8
0
 62
     0
 10
335.849
 20
127.993
 30
0.0
 11
335.89
 21
127.841
 31
0.0
  0
LINE
  8
0
 62
     0
 10
335.89
 20
127.841
 30
0.0
 11
335.922
 21
127.688
 31
0.0
  0
LINE
  8
0
 62
     0
 10
335.922
 20
127.688
 30
0.0
 11
335.94
 21
127.531
 31
0.0
  0
LINE
  8
0
 62
     0
 10
335.94
 20
127.531
 30
0.0
 11
335.946
 21
127.374
 31
0.0
  0
LINE
  8
0
 62
     0
 10
335.946
 20
127.374
 30
0.0
 11
335.946
 21
2.21589
 31
0.0
  0
LINE
  8
0
 62
     0
 10
335.946
 20
2.21589
 30
0.0
 11
335.94
 21
2.05879
 31
0.0
  0
LINE
  8
0
 62
     0
 10
335.94
 20
2.05879
 30
0.0
 11
335.922
 21
1.90307
 31
0.0
  0
LINE
  8
0
 62
     0
 10
335.922
 20
1.90307
 30
0.0
 11
335.89
 21
1.74873
 31
0.0
  0
LINE
  8
0
 62
     0
 10
335.89
 20
1.74873
 30
0.0
 11
335.849
 21
1.59852
 31
0.0
  0
LINE
  8
0
 62
     0
 10
335.849
 20
1.59852
 30
0.0
 11
335.793
 21
1.45107
 31
0.0
  0
LINE
  8
0
 62
     0
 10
335.793
 20
1.45107
 30
0.0
 11
335.729
 21
1.30776
 31
0.0
  0
LINE
  8
0
 62
     0
 10
335.729
 20
1.30776
 30
0.0
 11
335.651
 21
1.17133
 31
0.0
  0
LINE
  8
0
 62
     0
 10
335.651
 20
1.17133
 30
0.0
 11
335.565
 21
1.04042
 31
0.0
  0
LINE
  8
0
 62
     0
 10
335.565
 20
1.04042
 30
0.0
 11
335.467
 21
0.916397
 31
0.0
  0
LINE
  8
0
 62
     0
 10
335.467
 20
0.916397
 30
0.0
 11
335.361
 21
0.802019
 31
0.0
  0
LINE
  8
0
 62
     0
 10
335.361
 20
0.802019
 30
0.0
 11
335.245
 21
0.694531
 31
0.0
  0
LINE
  8
0
 62
     0
 10
335.245
 20
0.694531
 30
0.0
 11
335.121
 21
0.598068
 31
0.0
  0
LINE
  8
0
 62
     0
 10
335.121
 20
0.598068
 30
0.0
 11
334.99
 21
0.511253
 31
0.0
  0
LINE
  8
0
 62
     0
 10
334.99
 20
0.511253
 30
0.0
 11
334.853
 21
0.434082
 31
0.0
  0
LINE
  8
0
 62
     0
 10
334.853
 20
0.434082
 30
0.0
 11
334.712
 21
0.367937
 31
0.0
  0
LINE
  8
0
 62
     0
 10
334.712
 20
0.367937
 30
0.0
 11
334.564
 21
0.314193
 31
0.0
  0
LINE
  8
0
 62
     0
 10
334.564
 20
0.314193
 30
0.0
 11
334.413
 21
0.271473
 31
0.0
  0
LINE
  8
0
 62
     0
 10
334.413
 20
0.271473
 30
0.0
 11
334.258
 21
0.241157
 31
0.0
  0
LINE
  8
0
 62
     0
 10
334.258
 20
0.241157
 30
0.0
 11
334.103
 21
0.221864
 31
0.0
  0
LINE
  8
0
 62
     0
 10
334.103
 20
0.221864
 30
0.0
 11
333.945
 21
0.216352
 31
0.0
  0
LINE
  8
0
 62
     0
 10
333.945
 20
0.216352
 30
0.0
 11
2.096
 21
0.216352
 31
0.0
  0
LINE
  8
0
 62
     0
 10
2.096
 20
0.216352
 30
0.0
 11
1.9389
 21
0.221864
 31
0.0
  0
LINE
  8
0
 62
     0
 10
1.9389
 20
0.221864
 30
0.0
 11
1.7818
 21
0.241157
 31
0.0
  0
LINE
  8
0
 62
     0
 10
1.7818
 20
0.241157
 30
0.0
 11
1.62884
 21
0.271473
 31
0.0
  0
LINE
  8
0
 62
     0
 10
1.62884
 20
0.271473
 30
0.0
 11
1.47588
 21
0.314193
 31
0.0
  0
LINE
  8
0
 62
     0
 10
1.47588
 20
0.314193
 30
0.0
 11
1.32981
 21
0.367937
 31
0.0
  0
LINE
  8
0
 62
     0
 10
1.32981
 20
0.367937
 30
0.0
 11
1.18787
 21
0.434082
 31
0.0
  0
LINE
  8
0
 62
     0
 10
1.18787
 20
0.434082
 30
0.0
 11
1.05006
 21
0.511253
 31
0.0
  0
LINE
  8
0
 62
     0
 10
1.05006
 20
0.511253
 30
0.0
 11
0.919152
 21
0.598068
 31
0.0
  0
LINE
  8
0
 62
     0
 10
0.919152
 20
0.598068
 30
0.0
 11
0.796505
 21
0.694531
 31
0.0
  0
LINE
  8
0
 62
     0
 10
0.796505
 20
0.694531
 30
0.0
 11
0.680752
 21
0.802019
 31
0.0
  0
LINE
  8
0
 62
     0
 10
0.680752
 20
0.802019
 30
0.0
 11
0.574643
 21
0.916397
 31
0.0
  0
LINE
  8
0
 62
     0
 10
0.574643
 20
0.916397
 30
0.0
 11
0.4768
 21
1.04042
 31
0.0
  0
LINE
  8
0
 62
     0
 10
0.4768
 20
1.04042
 30
0.0
 11
0.389985
 21
1.17133
 31
0.0
  0
LINE
  8
0
 62
     0
 10
0.389985
 20
1.17133
 30
0.0
 11
0.312815
 21
1.30776
 31
0.0
  0
LINE
  8
0
 62
     0
 10
0.312815
 20
1.30776
 30
0.0
 11
0.248047
 21
1.45107
 31
0.0
  0
LINE
  8
0
 62
     0
 10
0.248047
 20
1.45107
 30
0.0
 11
0.192925
 21
1.59852
 31
0.0
  0
LINE
  8
0
 62
     0
 10
0.192925
 20
1.59852
 30
0.0
 11
0.150206
 21
1.74873
 31
0.0
  0
LINE
  8
0
 62
     0
 10
0.150206
 20
1.74873
 30
0.0
 11
0.119889
 21
1.90307
 31
0.0
  0
LINE
  8
0
 62
     0
 10
0.119889
 20
1.90307
 30
0.0
 11
0.101975
 21
2.05879
 31
0.0
  0
LINE
  8
0
 62
     0
 10
0.101975
 20
2.05879
 30
0.0
 11
0.0950846
 21
2.21589
 31
0.0
  0
LINE
  8
0
 62
     0
 10
0.0950846
 20
2.21589
 30
0.0
 11
0.0950846
 21
127.374
 31
0.0
  0
LINE
  8
0
 62
     0
 10
0.0950846
 20
127.374
 30
0.0
 11
0.101975
 21
127.531
 31
0.0
  0
LINE
  8
0
 62
     0
 10
0.101975
 20
127.531
 30
0.0
 11
0.119889
 21
127.688
 31
0.0
  0
LINE
  8
0
 62
     0
 10
0.119889
 20
127.688
 30
0.0
 11
0.150206
 21
127.841
 31
0.0
  0
LINE
  8
0
 62
     0
 10
0.150206
 20
127.841
 30
0.0
 11
0.192925
 21
127.993
 31
0.0
  0
LINE
  8
0
 62
     0
 10
0.192925
 20
127.993
 30
0.0
 11
0.248047
 21
128.139
 31
0.0
  0
LINE
  8
0
 62
     0
 10
0.248047
 20
128.139
 30
0.0
 11
0.312815
 21
128.282
 31
0.0
  0
LINE
  8
0
 62
     0
 10
0.312815
 20
128.282
 30
0.0
 11
0.389985
 21
128.419
 31
0.0
  0
LINE
  8
0
 62
     0
 10
0.389985
 20
128.419
 30
0.0
 11
0.4768
 21
128.55
 31
0.0
  0
LINE
  8
0
 62
     0
 10
0.4768
 20
128.55
 30
0.0
 11
0.574643
 21
128.673
 31
0.0
  0
LINE
  8
0
 62
     0
 10
0.574643
 20
128.673
 30
0.0
 11
0.680752
 21
128.789
 31
0.0
  0
LINE
  8
0
 62
     0
 10
0.680752
 20
128.789
 30
0.0
 11
0.796505
 21
128.895
 31
0.0
  0
LINE
  8
0
 62
     0
 10
0.796505
 20
128.895
 30
0.0
 11
0.919152
 21
128.992
 31
0.0
  0
LINE
  8
0
 62
     0
 10
0.919152
 20
128.992
 30
0.0
 11
1.05006
 21
129.08
 31
0.0
  0
LINE
  8
0
 62
     0
 10
1.05006
 20
129.08
 30
0.0
 11
1.18787
 21
129.157
 31
0.0
  0
LINE
  8
0
 62
     0
 10
1.18787
 20
129.157
 30
0.0
 11
1.32981
 21
129.221
 31
0.0
  0
LINE
  8
0
 62
     0
 10
1.32981
 20
129.221
 30
0.0
 11
1.47588
 21
129.276
 31
0.0
  0
LINE
  8
0
 62
     0
 10
1.47588
 20
129.276
 30
0.0
 11
1.62884
 21
129.319
 31
0.0
  0
LINE
  8
0
 62
     0
 10
1.62884
 20
129.319
 30
0.0
 11
1.7818
 21
129.35
 31
0.0
  0
LINE
  8
0
 62
     0
 10
1.7818
 20
129.35
 30
0.0
 11
1.9389
 21
129.367
 31
0.0
  0
LINE
  8
0
 62
     0
 10
1.9389
 20
129.367
 30
0.0
 11
2.096
 21
129.374
 31
0.0
  0
LINE
  8
0
 62
     0
 10
2.096
 20
129.374
 30
0.0
 11
333.947
 21
129.374
 31
0.0
  0
LINE
  8
0
 62
     0
 10
333.837
 20
2.96692
 30
0.0
 11
333.558
 21
2.82498
 31
0.0
  0
LINE
  8
0
 62
     0
 10
333.558
 20
2.82498
 30
0.0
 11
333.337
 21
2.60449
 31
0.0
  0
LINE
  8
0
 62
     0
 10
333.337
 20
2.60449
 30
0.0
 11
333.194
 21
2.32475
 31
0.0
  0
LINE
  8
0
 62
     0
 10
333.194
 20
2.32475
 30
0.0
 11
333.146
 21
2.01607
 31
0.0
  0
LINE
  8
0
 62
     0
 10
333.146
 20
2.01607
 30
0.0
 11
333.194
 21
1.70739
 31
0.0
  0
LINE
  8
0
 62
     0
 10
333.194
 20
1.70739
 30
0.0
 11
333.337
 21
1.42765
 31
0.0
  0
LINE
  8
0
 62
     0
 10
333.337
 20
1.42765
 30
0.0
 11
333.558
 21
1.20716
 31
0.0
  0
LINE
  8
0
 62
     0
 10
333.558
 20
1.20716
 30
0.0
 11
333.837
 21
1.06522
 31
0.0
  0
LINE
  8
0
 62
     0
 10
333.837
 20
1.06522
 30
0.0
 11
334.147
 21
1.01562
 31
0.0
  0
LINE
  8
0
 62
     0
 10
334.147
 20
1.01562
 30
0.0
 11
334.456
 21
1.06522
 31
0.0
  0
LINE
  8
0
 62
     0
 10
334.456
 20
1.06522
 30
0.0
 11
334.734
 21
1.20716
 31
0.0
  0
LINE
  8
0
 62
     0
 10
334.734
 20
1.20716
 30
0.0
 11
334.955
 21
1.42765
 31
0.0
  0
LINE
  8
0
 62
     0
 10
334.955
 20
1.42765
 30
0.0
 11
335.098
 21
1.70739
 31
0.0
  0
LINE
  8
0
 62
     0
 10
335.098
 20
1.70739
 30
0.0
 11
335.147
 21
2.01607
 31
0.0
  0
LINE
  8
0
 62
     0
 10
335.147
 20
2.01607
 30
0.0
 11
335.098
 21
2.32475
 31
0.0
  0
LINE
  8
0
 62
     0
 10
335.098
 20
2.32475
 30
0.0
 11
334.955
 21
2.60449
 31
0.0
  0
LINE
  8
0
 62
     0
 10
334.955
 20
2.60449
 30
0.0
 11
334.734
 21
2.82498
 31
0.0
  0
LINE
  8
0
 62
     0
 10
334.734
 20
2.82498
 30
0.0
 11
334.456
 21
2.96692
 31
0.0
  0
LINE
  8
0
 62
     0
 10
334.456
 20
2.96692
 30
0.0
 11
334.147
 21
3.01653
 31
0.0
  0
LINE
  8
0
 62
     0
 10
334.147
 20
3.01653
 30
0.0
 11
333.837
 21
2.96692
 31
0.0
  0
LINE
  8
0
 62
     0
 10
223.086
 20
2.96692
 30
0.0
 11
222.808
 21
2.82498
 31
0.0
  0
LINE
  8
0
 62
     0
 10
222.808
 20
2.82498
 30
0.0
 11
222.586
 21
2.60449
 31
0.0
  0
LINE
  8
0
 62
     0
 10
222.586
 20
2.60449
 30
0.0
 11
222.444
 21
2.32475
 31
0.0
  0
LINE
  8
0
 62
     0
 10
222.444
 20
2.32475
 30
0.0
 11
222.396
 21
2.01607
 31
0.0
  0
LINE
  8
0
 62
     0
 10
222.396
 20
2.01607
 30
0.0
 11
222.444
 21
1.70739
 31
0.0
  0
LINE
  8
0
 62
     0
 10
222.444
 20
1.70739
 30
0.0
 11
222.586
 21
1.42765
 31
0.0
  0
LINE
  8
0
 62
     0
 10
222.586
 20
1.42765
 30
0.0
 11
222.808
 21
1.20716
 31
0.0
  0
LINE
  8
0
 62
     0
 10
222.808
 20
1.20716
 30
0.0
 11
223.086
 21
1.06522
 31
0.0
  0
LINE
  8
0
 62
     0
 10
223.086
 20
1.06522
 30
0.0
 11
223.395
 21
1.01562
 31
0.0
  0
LINE
  8
0
 62
     0
 10
223.395
 20
1.01562
 30
0.0
 11
223.704
 21
1.06522
 31
0.0
  0
LINE
  8
0
 62
     0
 10
223.704
 20
1.06522
 30
0.0
 11
223.984
 21
1.20716
 31
0.0
  0
LINE
  8
0
 62
     0
 10
223.984
 20
1.20716
 30
0.0
 11
224.204
 21
1.42765
 31
0.0
  0
LINE
  8
0
 62
     0
 10
224.204
 20
1.42765
 30
0.0
 11
224.346
 21
1.70739
 31
0.0
  0
LINE
  8
0
 62
     0
 10
224.346
 20
1.70739
 30
0.0
 11
224.396
 21
2.01607
 31
0.0
  0
LINE
  8
0
 62
     0
 10
224.396
 20
2.01607
 30
0.0
 11
224.346
 21
2.32475
 31
0.0
  0
LINE
  8
0
 62
     0
 10
224.346
 20
2.32475
 30
0.0
 11
224.204
 21
2.60449
 31
0.0
  0
LINE
  8
0
 62
     0
 10
224.204
 20
2.60449
 30
0.0
 11
223.984
 21
2.82498
 31
0.0
  0
LINE
  8
0
 62
     0
 10
223.984
 20
2.82498
 30
0.0
 11
223.704
 21
2.96692
 31
0.0
  0
LINE
  8
0
 62
     0
 10
223.704
 20
2.96692
 30
0.0
 11
223.395
 21
3.01653
 31
0.0
  0
LINE
  8
0
 62
     0
 10
223.395
 20
3.01653
 30
0.0
 11
223.086
 21
2.96692
 31
0.0
  0
LINE
  8
0
 62
     0
 10
112.336
 20
2.96692
 30
0.0
 11
112.058
 21
2.82498
 31
0.0
  0
LINE
  8
0
 62
     0
 10
112.058
 20
2.82498
 30
0.0
 11
111.836
 21
2.60449
 31
0.0
  0
LINE
  8
0
 62
     0
 10
111.836
 20
2.60449
 30
0.0
 11
111.694
 21
2.32475
 31
0.0
  0
LINE
  8
0
 62
     0
 10
111.694
 20
2.32475
 30
0.0
 11
111.646
 21
2.01607
 31
0.0
  0
LINE
  8
0
 62
     0
 10
111.646
 20
2.01607
 30
0.0
 11
111.694
 21
1.70739
 31
0.0
  0
LINE
  8
0
 62
     0
 10
111.694
 20
1.70739
 30
0.0
 11
111.836
 21
1.42765
 31
0.0
  0
LINE
  8
0
 62
     0
 10
111.836
 20
1.42765
 30
0.0
 11
112.058
 21
1.20716
 31
0.0
  0
LINE
  8
0
 62
     0
 10
112.058
 20
1.20716
 30
0.0
 11
112.336
 21
1.06522
 31
0.0
  0
LINE
  8
0
 62
     0
 10
112.336
 20
1.06522
 30
0.0
 11
112.645
 21
1.01562
 31
0.0
  0
LINE
  8
0
 62
     0
 10
112.645
 20
1.01562
 30
0.0
 11
112.955
 21
1.06522
 31
0.0
  0
LINE
  8
0
 62
     0
 10
112.955
 20
1.06522
 30
0.0
 11
113.234
 21
1.20716
 31
0.0
  0
LINE
  8
0
 62
     0
 10
113.234
 20
1.20716
 30
0.0
 11
113.454
 21
1.42765
 31
0.0
  0
LINE
  8
0
 62
     0
 10
113.454
 20
1.42765
 30
0.0
 11
113.596
 21
1.70739
 31
0.0
  0
LINE
  8
0
 62
     0
 10
113.596
 20
1.70739
 30
0.0
 11
113.646
 21
2.01607
 31
0.0
  0
LINE
  8
0
 62
     0
 10
113.646
 20
2.01607
 30
0.0
 11
113.596
 21
2.32475
 31
0.0
  0
LINE
  8
0
 62
     0
 10
113.596
 20
2.32475
 30
0.0
 11
113.454
 21
2.60449
 31
0.0
  0
LINE
  8
0
 62
     0
 10
113.454
 20
2.60449
 30
0.0
 11
113.234
 21
2.82498
 31
0.0
  0
LINE
  8
0
 62
     0
 10
113.234
 20
2.82498
 30
0.0
 11
112.955
 21
2.96692
 31
0.0
  0
LINE
  8
0
 62
     0
 10
112.955
 20
2.96692
 30
0.0
 11
112.645
 21
3.01653
 31
0.0
  0
LINE
  8
0
 62
     0
 10
112.645
 20
3.01653
 30
0.0
 11
112.336
 21
2.96692
 31
0.0
  0
LINE
  8
0
 62
     0
 10
1.58612
 20
2.96692
 30
0.0
 11
1.30776
 21
2.82498
 31
0.0
  0
LINE
  8
0
 62
     0
 10
1.30776
 20
2.82498
 30
0.0
 11
1.0859
 21
2.60449
 31
0.0
  0
LINE
  8
0
 62
     0
 10
1.0859
 20
2.60449
 30
0.0
 11
0.943956
 21
2.32475
 31
0.0
  0
LINE
  8
0
 62
     0
 10
0.943956
 20
2.32475
 30
0.0
 11
0.895724
 21
2.01607
 31
0.0
  0
LINE
  8
0
 62
     0
 10
0.895724
 20
2.01607
 30
0.0
 11
0.943956
 21
1.70739
 31
0.0
  0
LINE
  8
0
 62
     0
 10
0.943956
 20
1.70739
 30
0.0
 11
1.0859
 21
1.42765
 31
0.0
  0
LINE
  8
0
 62
     0
 10
1.0859
 20
1.42765
 30
0.0
 11
1.30776
 21
1.20716
 31
0.0
  0
LINE
  8
0
 62
     0
 10
1.30776
 20
1.20716
 30
0.0
 11
1.58612
 21
1.06522
 31
0.0
  0
LINE
  8
0
 62
     0
 10
1.58612
 20
1.06522
 30
0.0
 11
1.8948
 21
1.01562
 31
0.0
  0
LINE
  8
0
 62
     0
 10
1.8948
 20
1.01562
 30
0.0
 11
2.20486
 21
1.06522
 31
0.0
  0
LINE
  8
0
 62
     0
 10
2.20486
 20
1.06522
 30
0.0
 11
2.48185
 21
1.20716
 31
0.0
  0
LINE
  8
0
 62
     0
 10
2.48185
 20
1.20716
 30
0.0
 11
2.70509
 21
1.42765
 31
0.0
  0
LINE
  8
0
 62
     0
 10
2.70509
 20
1.42765
 30
0.0
 11
2.84703
 21
1.70739
 31
0.0
  0
LINE
  8
0
 62
     0
 10
2.84703
 20
1.70739
 30
0.0
 11
2.89526
 21
2.01607
 31
0.0
  0
LINE
  8
0
 62
     0
 10
2.89526
 20
2.01607
 30
0.0
 11
2.84703
 21
2.32475
 31
0.0
  0
LINE
  8
0
 62
     0
 10
2.84703
 20
2.32475
 30
0.0
 11
2.70509
 21
2.60449
 31
0.0
  0
LINE
  8
0
 62
     0
 10
2.70509
 20
2.60449
 30
0.0
 11
2.48185
 21
2.82498
 31
0.0
  0
LINE
  8
0
 62
     0
 10
2.48185
 20
2.82498
 30
0.0
 11
2.20486
 21
2.96692
 31
0.0
  0
LINE
  8
0
 62
     0
 10
2.20486
 20
2.96692
 30
0.0
 11
1.8948
 21
3.01653
 31
0.0
  0
LINE
  8
0
 62
     0
 10
1.8948
 20
3.01653
 30
0.0
 11
1.58612
 21
2.96692
 31
0.0
  0
LINE
  8
0
 62
     0
 10
130.064
 20
22.7417
 30
0.0
 11
130.064
 21
18.0413
 31
0.0
  0
LINE
  8
0
 62
     0
 10
130.064
 20
18.0413
 30
0.0
 11
90.4378
 21
18.0413
 31
0.0
  0
LINE
  8
0
 62
     0
 10
90.4378
 20
18.0413
 30
0.0
 11
90.4378
 21
21.2714
 31
0.0
  0
LINE
  8
0
 62
     0
 10
90.4378
 20
21.2714
 30
0.0
 11
83.6884
 21
21.2714
 31
0.0
  0
LINE
  8
0
 62
     0
 10
83.6884
 20
21.2714
 30
0.0
 11
83.6884
 21
18.0413
 31
0.0
  0
LINE
  8
0
 62
     0
 10
83.6884
 20
18.0413
 30
0.0
 11
82.8629
 21
18.0413
 31
0.0
  0
LINE
  8
0
 62
     0
 10
82.8629
 20
18.0413
 30
0.0
 11
82.8629
 21
15.2425
 31
0.0
  0
LINE
  8
0
 62
     0
 10
82.8629
 20
15.2425
 30
0.0
 11
83.6884
 21
15.2425
 31
0.0
  0
LINE
  8
0
 62
     0
 10
83.6884
 20
15.2425
 30
0.0
 11
83.6884
 21
8.97241
 31
0.0
  0
LINE
  8
0
 62
     0
 10
83.6884
 20
8.97241
 30
0.0
 11
85.4135
 21
8.97241
 31
0.0
  0
LINE
  8
0
 62
     0
 10
85.4135
 20
8.97241
 30
0.0
 11
85.4135
 21
7.77215
 31
0.0
  0
LINE
  8
0
 62
     0
 10
85.4135
 20
7.77215
 30
0.0
 11
88.7141
 21
7.77215
 31
0.0
  0
LINE
  8
0
 62
     0
 10
88.7141
 20
7.77215
 30
0.0
 11
88.7141
 21
8.97241
 31
0.0
  0
LINE
  8
0
 62
     0
 10
88.7141
 20
8.97241
 30
0.0
 11
90.4378
 21
8.97241
 31
0.0
  0
LINE
  8
0
 62
     0
 10
90.4378
 20
8.97241
 30
0.0
 11
90.4378
 21
13.4414
 31
0.0
  0
LINE
  8
0
 62
     0
 10
90.4378
 20
13.4414
 30
0.0
 11
130.064
 21
13.4414
 31
0.0
  0
LINE
  8
0
 62
     0
 10
130.064
 20
13.4414
 30
0.0
 11
130.064
 21
8.74229
 31
0.0
  0
LINE
  8
0
 62
     0
 10
130.064
 20
8.74229
 30
0.0
 11
144.063
 21
8.74229
 31
0.0
  0
LINE
  8
0
 62
     0
 10
144.063
 20
8.74229
 30
0.0
 11
144.063
 21
13.4414
 31
0.0
  0
LINE
  8
0
 62
     0
 10
144.063
 20
13.4414
 30
0.0
 11
183.688
 21
13.4414
 31
0.0
  0
LINE
  8
0
 62
     0
 10
183.688
 20
13.4414
 30
0.0
 11
183.688
 21
8.97241
 31
0.0
  0
LINE
  8
0
 62
     0
 10
183.688
 20
8.97241
 30
0.0
 11
185.414
 21
8.97241
 31
0.0
  0
LINE
  8
0
 62
     0
 10
185.414
 20
8.97241
 30
0.0
 11
185.414
 21
7.77215
 31
0.0
  0
LINE
  8
0
 62
     0
 10
185.414
 20
7.77215
 30
0.0
 11
188.714
 21
7.77215
 31
0.0
  0
LINE
  8
0
 62
     0
 10
188.714
 20
7.77215
 30
0.0
 11
188.714
 21
8.97241
 31
0.0
  0
LINE
  8
0
 62
     0
 10
188.714
 20
8.97241
 30
0.0
 11
190.438
 21
8.97241
 31
0.0
  0
LINE
  8
0
 62
     0
 10
190.438
 20
8.97241
 30
0.0
 11
190.438
 21
15.2425
 31
0.0
  0
LINE
  8
0
 62
     0
 10
190.438
 20
15.2425
 30
0.0
 11
191.263
 21
15.2425
 31
0.0
  0
LINE
  8
0
 62
     0
 10
191.263
 20
15.2425
 30
0.0
 11
191.263
 21
18.0413
 31
0.0
  0
LINE
  8
0
 62
     0
 10
191.263
 20
18.0413
 30
0.0
 11
190.438
 21
18.0413
 31
0.0
  0
LINE
  8
0
 62
     0
 10
190.438
 20
18.0413
 30
0.0
 11
190.438
 21
21.2714
 31
0.0
  0
LINE
  8
0
 62
     0
 10
190.438
 20
21.2714
 30
0.0
 11
183.688
 21
21.2714
 31
0.0
  0
LINE
  8
0
 62
     0
 10
183.688
 20
21.2714
 30
0.0
 11
183.688
 21
18.0413
 31
0.0
  0
LINE
  8
0
 62
     0
 10
183.688
 20
18.0413
 30
0.0
 11
144.063
 21
18.0413
 31
0.0
  0
LINE
  8
0
 62
     0
 10
144.063
 20
18.0413
 30
0.0
 11
144.063
 21
22.7417
 31
0.0
  0
LINE
  8
0
 62
     0
 10
144.063
 20
22.7417
 30
0.0
 11
130.064
 21
22.7417
 31
0.0
  0
LINE
  8
0
 62
     0
 10
11.0009
 20
22.7417
 30
0.0
 11
25.0017
 21
22.7417
 31
0.0
  0
LINE
  8
0
 62
     0
 10
25.0017
 20
22.7417
 30
0.0
 11
25.0017
 21
8.74229
 31
0.0
  0
LINE
  8
0
 62
     0
 10
25.0017
 20
8.74229
 30
0.0
 11
11.0009
 21
8.74229
 31
0.0
  0
LINE
  8
0
 62
     0
 10
11.0009
 20
8.74229
 30
0.0
 11
11.0009
 21
22.7417
 31
0.0
  0
LINE
  8
0
 62
     0
 10
34.8134
 20
22.7417
 30
0.0
 11
48.8128
 21
22.7417
 31
0.0
  0
LINE
  8
0
 62
     0
 10
48.8128
 20
22.7417
 30
0.0
 11
48.8128
 21
8.74229
 31
0.0
  0
LINE
  8
0
 62
     0
 10
48.8128
 20
8.74229
 30
0.0
 11
34.8134
 21
8.74229
 31
0.0
  0
LINE
  8
0
 62
     0
 10
34.8134
 20
8.74229
 30
0.0
 11
34.8134
 21
22.7417
 31
0.0
  0
LINE
  8
0
 62
     0
 10
58.626
 20
22.7417
 30
0.0
 11
72.6267
 21
22.7417
 31
0.0
  0
LINE
  8
0
 62
     0
 10
72.6267
 20
22.7417
 30
0.0
 11
72.6267
 21
8.74229
 31
0.0
  0
LINE
  8
0
 62
     0
 10
72.6267
 20
8.74229
 30
0.0
 11
58.626
 21
8.74229
 31
0.0
  0
LINE
  8
0
 62
     0
 10
58.626
 20
8.74229
 30
0.0
 11
58.626
 21
22.7417
 31
0.0
  0
LINE
  8
0
 62
     0
 10
201.501
 20
22.7417
 30
0.0
 11
215.502
 21
22.7417
 31
0.0
  0
LINE
  8
0
 62
     0
 10
215.502
 20
22.7417
 30
0.0
 11
215.502
 21
8.74229
 31
0.0
  0
LINE
  8
0
 62
     0
 10
215.502
 20
8.74229
 30
0.0
 11
201.501
 21
8.74229
 31
0.0
  0
LINE
  8
0
 62
     0
 10
201.501
 20
8.74229
 30
0.0
 11
201.501
 21
22.7417
 31
0.0
  0
LINE
  8
0
 62
     0
 10
225.314
 20
22.7417
 30
0.0
 11
239.313
 21
22.7417
 31
0.0
  0
LINE
  8
0
 62
     0
 10
239.313
 20
22.7417
 30
0.0
 11
239.313
 21
8.74229
 31
0.0
  0
LINE
  8
0
 62
     0
 10
239.313
 20
8.74229
 30
0.0
 11
225.314
 21
8.74229
 31
0.0
  0
LINE
  8
0
 62
     0
 10
225.314
 20
8.74229
 30
0.0
 11
225.314
 21
22.7417
 31
0.0
  0
LINE
  8
0
 62
     0
 10
249.126
 20
22.7417
 30
0.0
 11
263.127
 21
22.7417
 31
0.0
  0
LINE
  8
0
 62
     0
 10
263.127
 20
22.7417
 30
0.0
 11
263.127
 21
8.74229
 31
0.0
  0
LINE
  8
0
 62
     0
 10
263.127
 20
8.74229
 30
0.0
 11
249.126
 21
8.74229
 31
0.0
  0
LINE
  8
0
 62
     0
 10
249.126
 20
8.74229
 30
0.0
 11
249.126
 21
22.7417
 31
0.0
  0
LINE
  8
0
 62
     0
 10
275.321
 20
22.7417
 30
0.0
 11
289.32
 21
22.7417
 31
0.0
  0
LINE
  8
0
 62
     0
 10
289.32
 20
22.7417
 30
0.0
 11
289.32
 21
8.74229
 31
0.0
  0
LINE
  8
0
 62
     0
 10
289.32
 20
8.74229
 30
0.0
 11
275.321
 21
8.74229
 31
0.0
  0
LINE
  8
0
 62
     0
 10
275.321
 20
8.74229
 30
0.0
 11
275.321
 21
22.7417
 31
0.0
  0
LINE
  8
0
 62
     0
 10
294.371
 20
22.7417
 30
0.0
 11
308.37
 21
22.7417
 31
0.0
  0
LINE
  8
0
 62
     0
 10
308.37
 20
22.7417
 30
0.0
 11
308.37
 21
8.74229
 31
0.0
  0
LINE
  8
0
 62
     0
 10
308.37
 20
8.74229
 30
0.0
 11
294.371
 21
8.74229
 31
0.0
  0
LINE
  8
0
 62
     0
 10
294.371
 20
8.74229
 30
0.0
 11
294.371
 21
22.7417
 31
0.0
  0
LINE
  8
0
 62
     0
 10
313.421
 20
22.7417
 30
0.0
 11
327.42
 21
22.7417
 31
0.0
  0
LINE
  8
0
 62
     0
 10
327.42
 20
22.7417
 30
0.0
 11
327.42
 21
8.74229
 31
0.0
  0
LINE
  8
0
 62
     0
 10
327.42
 20
8.74229
 30
0.0
 11
313.421
 21
8.74229
 31
0.0
  0
LINE
  8
0
 62
     0
 10
313.421
 20
8.74229
 30
0.0
 11
313.421
 21
22.7417
 31
0.0
  0
LINE
  8
0
 62
     0
 10
20.5259
 20
41.7918
 30
0.0
 11
20.5259
 21
37.0914
 31
0.0
  0
LINE
  8
0
 62
     0
 10
20.5259
 20
37.0914
 30
0.0
 11
19.0018
 21
37.0914
 31
0.0
  0
LINE
  8
0
 62
     0
 10
19.0018
 20
37.0914
 30
0.0
 11
19.0018
 21
40.3214
 31
0.0
  0
LINE
  8
0
 62
     0
 10
19.0018
 20
40.3214
 30
0.0
 11
12.2521
 21
40.3214
 31
0.0
  0
LINE
  8
0
 62
     0
 10
12.2521
 20
40.3214
 30
0.0
 11
12.2521
 21
37.0914
 31
0.0
  0
LINE
  8
0
 62
     0
 10
12.2521
 20
37.0914
 30
0.0
 11
11.4267
 21
37.0914
 31
0.0
  0
LINE
  8
0
 62
     0
 10
11.4267
 20
37.0914
 30
0.0
 11
11.4267
 21
34.2925
 31
0.0
  0
LINE
  8
0
 62
     0
 10
11.4267
 20
34.2925
 30
0.0
 11
12.2521
 21
34.2925
 31
0.0
  0
LINE
  8
0
 62
     0
 10
12.2521
 20
34.2925
 30
0.0
 11
12.2521
 21
28.0224
 31
0.0
  0
LINE
  8
0
 62
     0
 10
12.2521
 20
28.0224
 30
0.0
 11
13.9761
 21
28.0224
 31
0.0
  0
LINE
  8
0
 62
     0
 10
13.9761
 20
28.0224
 30
0.0
 11
13.9761
 21
26.8222
 31
0.0
  0
LINE
  8
0
 62
     0
 10
13.9761
 20
26.8222
 30
0.0
 11
17.2765
 21
26.8222
 31
0.0
  0
LINE
  8
0
 62
     0
 10
17.2765
 20
26.8222
 30
0.0
 11
17.2765
 21
28.0224
 31
0.0
  0
LINE
  8
0
 62
     0
 10
17.2765
 20
28.0224
 30
0.0
 11
19.0018
 21
28.0224
 31
0.0
  0
LINE
  8
0
 62
     0
 10
19.0018
 20
28.0224
 30
0.0
 11
19.0018
 21
32.4914
 31
0.0
  0
LINE
  8
0
 62
     0
 10
19.0018
 20
32.4914
 30
0.0
 11
20.5259
 21
32.4914
 31
0.0
  0
LINE
  8
0
 62
     0
 10
20.5259
 20
32.4914
 30
0.0
 11
20.5259
 21
27.7923
 31
0.0
  0
LINE
  8
0
 62
     0
 10
20.5259
 20
27.7923
 30
0.0
 11
34.5267
 21
27.7923
 31
0.0
  0
LINE
  8
0
 62
     0
 10
34.5267
 20
27.7923
 30
0.0
 11
34.5267
 21
32.4914
 31
0.0
  0
LINE
  8
0
 62
     0
 10
34.5267
 20
32.4914
 30
0.0
 11
36.0507
 21
32.4914
 31
0.0
  0
LINE
  8
0
 62
     0
 10
36.0507
 20
32.4914
 30
0.0
 11
36.0507
 21
28.0224
 31
0.0
  0
LINE
  8
0
 62
     0
 10
36.0507
 20
28.0224
 30
0.0
 11
37.7762
 21
28.0224
 31
0.0
  0
LINE
  8
0
 62
     0
 10
37.7762
 20
28.0224
 30
0.0
 11
37.7762
 21
26.8222
 31
0.0
  0
LINE
  8
0
 62
     0
 10
37.7762
 20
26.8222
 30
0.0
 11
41.0767
 21
26.8222
 31
0.0
  0
LINE
  8
0
 62
     0
 10
41.0767
 20
26.8222
 30
0.0
 11
41.0767
 21
28.0224
 31
0.0
  0
LINE
  8
0
 62
     0
 10
41.0767
 20
28.0224
 30
0.0
 11
42.8018
 21
28.0224
 31
0.0
  0
LINE
  8
0
 62
     0
 10
42.8018
 20
28.0224
 30
0.0
 11
42.8018
 21
34.2925
 31
0.0
  0
LINE
  8
0
 62
     0
 10
42.8018
 20
34.2925
 30
0.0
 11
43.6259
 21
34.2925
 31
0.0
  0
LINE
  8
0
 62
     0
 10
43.6259
 20
34.2925
 30
0.0
 11
43.6259
 21
37.0914
 31
0.0
  0
LINE
  8
0
 62
     0
 10
43.6259
 20
37.0914
 30
0.0
 11
42.8018
 21
37.0914
 31
0.0
  0
LINE
  8
0
 62
     0
 10
42.8018
 20
37.0914
 30
0.0
 11
42.8018
 21
40.3214
 31
0.0
  0
LINE
  8
0
 62
     0
 10
42.8018
 20
40.3214
 30
0.0
 11
36.0507
 21
40.3214
 31
0.0
  0
LINE
  8
0
 62
     0
 10
36.0507
 20
40.3214
 30
0.0
 11
36.0507
 21
37.0914
 31
0.0
  0
LINE
  8
0
 62
     0
 10
36.0507
 20
37.0914
 30
0.0
 11
34.5267
 21
37.0914
 31
0.0
  0
LINE
  8
0
 62
     0
 10
34.5267
 20
37.0914
 30
0.0
 11
34.5267
 21
41.7918
 31
0.0
  0
LINE
  8
0
 62
     0
 10
34.5267
 20
41.7918
 30
0.0
 11
20.5259
 21
41.7918
 31
0.0
  0
LINE
  8
0
 62
     0
 10
258.651
 20
41.7918
 30
0.0
 11
258.651
 21
37.0914
 31
0.0
  0
LINE
  8
0
 62
     0
 10
258.651
 20
37.0914
 30
0.0
 11
257.127
 21
37.0914
 31
0.0
  0
LINE
  8
0
 62
     0
 10
257.127
 20
37.0914
 30
0.0
 11
257.127
 21
40.3214
 31
0.0
  0
LINE
  8
0
 62
     0
 10
257.127
 20
40.3214
 30
0.0
 11
250.377
 21
40.3214
 31
0.0
  0
LINE
  8
0
 62
     0
 10
250.377
 20
40.3214
 30
0.0
 11
250.377
 21
37.0914
 31
0.0
  0
LINE
  8
0
 62
     0
 10
250.377
 20
37.0914
 30
0.0
 11
249.552
 21
37.0914
 31
0.0
  0
LINE
  8
0
 62
     0
 10
249.552
 20
37.0914
 30
0.0
 11
249.552
 21
34.2925
 31
0.0
  0
LINE
  8
0
 62
     0
 10
249.552
 20
34.2925
 30
0.0
 11
250.377
 21
34.2925
 31
0.0
  0
LINE
  8
0
 62
     0
 10
250.377
 20
34.2925
 30
0.0
 11
250.377
 21
28.0224
 31
0.0
  0
LINE
  8
0
 62
     0
 10
250.377
 20
28.0224
 30
0.0
 11
252.101
 21
28.0224
 31
0.0
  0
LINE
  8
0
 62
     0
 10
252.101
 20
28.0224
 30
0.0
 11
252.101
 21
26.8222
 31
0.0
  0
LINE
  8
0
 62
     0
 10
252.101
 20
26.8222
 30
0.0
 11
255.4
 21
26.8222
 31
0.0
  0
LINE
  8
0
 62
     0
 10
255.4
 20
26.8222
 30
0.0
 11
255.4
 21
28.0224
 31
0.0
  0
LINE
  8
0
 62
     0
 10
255.4
 20
28.0224
 30
0.0
 11
257.127
 21
28.0224
 31
0.0
  0
LINE
  8
0
 62
     0
 10
257.127
 20
28.0224
 30
0.0
 11
257.127
 21
32.4914
 31
0.0
  0
LINE
  8
0
 62
     0
 10
257.127
 20
32.4914
 30
0.0
 11
258.651
 21
32.4914
 31
0.0
  0
LINE
  8
0
 62
     0
 10
258.651
 20
32.4914
 30
0.0
 11
258.651
 21
27.7923
 31
0.0
  0
LINE
  8
0
 62
     0
 10
258.651
 20
27.7923
 30
0.0
 11
272.652
 21
27.7923
 31
0.0
  0
LINE
  8
0
 62
     0
 10
272.652
 20
27.7923
 30
0.0
 11
272.652
 21
32.4914
 31
0.0
  0
LINE
  8
0
 62
     0
 10
272.652
 20
32.4914
 30
0.0
 11
274.176
 21
32.4914
 31
0.0
  0
LINE
  8
0
 62
     0
 10
274.176
 20
32.4914
 30
0.0
 11
274.176
 21
28.0224
 31
0.0
  0
LINE
  8
0
 62
     0
 10
274.176
 20
28.0224
 30
0.0
 11
275.901
 21
28.0224
 31
0.0
  0
LINE
  8
0
 62
     0
 10
275.901
 20
28.0224
 30
0.0
 11
275.901
 21
26.8222
 31
0.0
  0
LINE
  8
0
 62
     0
 10
275.901
 20
26.8222
 30
0.0
 11
279.202
 21
26.8222
 31
0.0
  0
LINE
  8
0
 62
     0
 10
279.202
 20
26.8222
 30
0.0
 11
279.202
 21
28.0224
 31
0.0
  0
LINE
  8
0
 62
     0
 10
279.202
 20
28.0224
 30
0.0
 11
280.927
 21
28.0224
 31
0.0
  0
LINE
  8
0
 62
     0
 10
280.927
 20
28.0224
 30
0.0
 11
280.927
 21
34.2925
 31
0.0
  0
LINE
  8
0
 62
     0
 10
280.927
 20
34.2925
 30
0.0
 11
281.751
 21
34.2925
 31
0.0
  0
LINE
  8
0
 62
     0
 10
281.751
 20
34.2925
 30
0.0
 11
281.751
 21
37.0914
 31
0.0
  0
LINE
  8
0
 62
     0
 10
281.751
 20
37.0914
 30
0.0
 11
280.927
 21
37.0914
 31
0.0
  0
LINE
  8
0
 62
     0
 10
280.927
 20
37.0914
 30
0.0
 11
280.927
 21
40.3214
 31
0.0
  0
LINE
  8
0
 62
     0
 10
280.927
 20
40.3214
 30
0.0
 11
274.176
 21
40.3214
 31
0.0
  0
LINE
  8
0
 62
     0
 10
274.176
 20
40.3214
 30
0.0
 11
274.176
 21
37.0914
 31
0.0
  0
LINE
  8
0
 62
     0
 10
274.176
 20
37.0914
 30
0.0
 11
272.652
 21
37.0914
 31
0.0
  0
LINE
  8
0
 62
     0
 10
272.652
 20
37.0914
 30
0.0
 11
272.652
 21
41.7918
 31
0.0
  0
LINE
  8
0
 62
     0
 10
272.652
 20
41.7918
 30
0.0
 11
258.651
 21
41.7918
 31
0.0
  0
LINE
  8
0
 62
     0
 10
51.4823
 20
41.7918
 30
0.0
 11
65.483
 21
41.7918
 31
0.0
  0
LINE
  8
0
 62
     0
 10
65.483
 20
41.7918
 30
0.0
 11
65.483
 21
27.7923
 31
0.0
  0
LINE
  8
0
 62
     0
 10
65.483
 20
27.7923
 30
0.0
 11
51.4823
 21
27.7923
 31
0.0
  0
LINE
  8
0
 62
     0
 10
51.4823
 20
27.7923
 30
0.0
 11
51.4823
 21
41.7918
 31
0.0
  0
LINE
  8
0
 62
     0
 10
70.5323
 20
41.7918
 30
0.0
 11
84.533
 21
41.7918
 31
0.0
  0
LINE
  8
0
 62
     0
 10
84.533
 20
41.7918
 30
0.0
 11
84.533
 21
27.7923
 31
0.0
  0
LINE
  8
0
 62
     0
 10
84.533
 20
27.7923
 30
0.0
 11
70.5323
 21
27.7923
 31
0.0
  0
LINE
  8
0
 62
     0
 10
70.5323
 20
27.7923
 30
0.0
 11
70.5323
 21
41.7918
 31
0.0
  0
LINE
  8
0
 62
     0
 10
89.5823
 20
41.7918
 30
0.0
 11
103.583
 21
41.7918
 31
0.0
  0
LINE
  8
0
 62
     0
 10
103.583
 20
41.7918
 30
0.0
 11
103.583
 21
27.7923
 31
0.0
  0
LINE
  8
0
 62
     0
 10
103.583
 20
27.7923
 30
0.0
 11
89.5823
 21
27.7923
 31
0.0
  0
LINE
  8
0
 62
     0
 10
89.5823
 20
27.7923
 30
0.0
 11
89.5823
 21
41.7918
 31
0.0
  0
LINE
  8
0
 62
     0
 10
108.632
 20
41.7918
 30
0.0
 11
122.633
 21
41.7918
 31
0.0
  0
LINE
  8
0
 62
     0
 10
122.633
 20
41.7918
 30
0.0
 11
122.633
 21
27.7923
 31
0.0
  0
LINE
  8
0
 62
     0
 10
122.633
 20
27.7923
 30
0.0
 11
108.632
 21
27.7923
 31
0.0
  0
LINE
  8
0
 62
     0
 10
108.632
 20
27.7923
 30
0.0
 11
108.632
 21
41.7918
 31
0.0
  0
LINE
  8
0
 62
     0
 10
127.682
 20
41.7918
 30
0.0
 11
141.683
 21
41.7918
 31
0.0
  0
LINE
  8
0
 62
     0
 10
141.683
 20
41.7918
 30
0.0
 11
141.683
 21
27.7923
 31
0.0
  0
LINE
  8
0
 62
     0
 10
141.683
 20
27.7923
 30
0.0
 11
127.682
 21
27.7923
 31
0.0
  0
LINE
  8
0
 62
     0
 10
127.682
 20
27.7923
 30
0.0
 11
127.682
 21
41.7918
 31
0.0
  0
LINE
  8
0
 62
     0
 10
146.732
 20
41.7918
 30
0.0
 11
160.733
 21
41.7918
 31
0.0
  0
LINE
  8
0
 62
     0
 10
160.733
 20
41.7918
 30
0.0
 11
160.733
 21
27.7923
 31
0.0
  0
LINE
  8
0
 62
     0
 10
160.733
 20
27.7923
 30
0.0
 11
146.732
 21
27.7923
 31
0.0
  0
LINE
  8
0
 62
     0
 10
146.732
 20
27.7923
 30
0.0
 11
146.732
 21
41.7918
 31
0.0
  0
LINE
  8
0
 62
     0
 10
165.782
 20
41.7918
 30
0.0
 11
179.783
 21
41.7918
 31
0.0
  0
LINE
  8
0
 62
     0
 10
179.783
 20
41.7918
 30
0.0
 11
179.783
 21
27.7923
 31
0.0
  0
LINE
  8
0
 62
     0
 10
179.783
 20
27.7923
 30
0.0
 11
165.782
 21
27.7923
 31
0.0
  0
LINE
  8
0
 62
     0
 10
165.782
 20
27.7923
 30
0.0
 11
165.782
 21
41.7918
 31
0.0
  0
LINE
  8
0
 62
     0
 10
184.832
 20
41.7918
 30
0.0
 11
198.833
 21
41.7918
 31
0.0
  0
LINE
  8
0
 62
     0
 10
198.833
 20
41.7918
 30
0.0
 11
198.833
 21
27.7923
 31
0.0
  0
LINE
  8
0
 62
     0
 10
198.833
 20
27.7923
 30
0.0
 11
184.832
 21
27.7923
 31
0.0
  0
LINE
  8
0
 62
     0
 10
184.832
 20
27.7923
 30
0.0
 11
184.832
 21
41.7918
 31
0.0
  0
LINE
  8
0
 62
     0
 10
203.882
 20
41.7918
 30
0.0
 11
217.883
 21
41.7918
 31
0.0
  0
LINE
  8
0
 62
     0
 10
217.883
 20
41.7918
 30
0.0
 11
217.883
 21
27.7923
 31
0.0
  0
LINE
  8
0
 62
     0
 10
217.883
 20
27.7923
 30
0.0
 11
203.882
 21
27.7923
 31
0.0
  0
LINE
  8
0
 62
     0
 10
203.882
 20
27.7923
 30
0.0
 11
203.882
 21
41.7918
 31
0.0
  0
LINE
  8
0
 62
     0
 10
222.932
 20
41.7918
 30
0.0
 11
236.933
 21
41.7918
 31
0.0
  0
LINE
  8
0
 62
     0
 10
236.933
 20
41.7918
 30
0.0
 11
236.933
 21
27.7923
 31
0.0
  0
LINE
  8
0
 62
     0
 10
236.933
 20
27.7923
 30
0.0
 11
222.932
 21
27.7923
 31
0.0
  0
LINE
  8
0
 62
     0
 10
222.932
 20
27.7923
 30
0.0
 11
222.932
 21
41.7918
 31
0.0
  0
LINE
  8
0
 62
     0
 10
294.371
 20
41.7918
 30
0.0
 11
308.37
 21
41.7918
 31
0.0
  0
LINE
  8
0
 62
     0
 10
308.37
 20
41.7918
 30
0.0
 11
308.37
 21
27.7923
 31
0.0
  0
LINE
  8
0
 62
     0
 10
308.37
 20
27.7923
 30
0.0
 11
294.371
 21
27.7923
 31
0.0
  0
LINE
  8
0
 62
     0
 10
294.371
 20
27.7923
 30
0.0
 11
294.371
 21
41.7918
 31
0.0
  0
LINE
  8
0
 62
     0
 10
263.414
 20
60.8418
 30
0.0
 11
263.414
 21
56.1414
 31
0.0
  0
LINE
  8
0
 62
     0
 10
263.414
 20
56.1414
 30
0.0
 11
261.888
 21
56.1414
 31
0.0
  0
LINE
  8
0
 62
     0
 10
261.888
 20
56.1414
 30
0.0
 11
261.888
 21
59.3714
 31
0.0
  0
LINE
  8
0
 62
     0
 10
261.888
 20
59.3714
 30
0.0
 11
255.138
 21
59.3714
 31
0.0
  0
LINE
  8
0
 62
     0
 10
255.138
 20
59.3714
 30
0.0
 11
255.138
 21
56.1414
 31
0.0
  0
LINE
  8
0
 62
     0
 10
255.138
 20
56.1414
 30
0.0
 11
254.313
 21
56.1414
 31
0.0
  0
LINE
  8
0
 62
     0
 10
254.313
 20
56.1414
 30
0.0
 11
254.313
 21
53.3425
 31
0.0
  0
LINE
  8
0
 62
     0
 10
254.313
 20
53.3425
 30
0.0
 11
255.138
 21
53.3425
 31
0.0
  0
LINE
  8
0
 62
     0
 10
255.138
 20
53.3425
 30
0.0
 11
255.138
 21
47.0726
 31
0.0
  0
LINE
  8
0
 62
     0
 10
255.138
 20
47.0726
 30
0.0
 11
256.862
 21
47.0726
 31
0.0
  0
LINE
  8
0
 62
     0
 10
256.862
 20
47.0726
 30
0.0
 11
256.862
 21
45.872
 31
0.0
  0
LINE
  8
0
 62
     0
 10
256.862
 20
45.872
 30
0.0
 11
260.164
 21
45.872
 31
0.0
  0
LINE
  8
0
 62
     0
 10
260.164
 20
45.872
 30
0.0
 11
260.164
 21
47.0726
 31
0.0
  0
LINE
  8
0
 62
     0
 10
260.164
 20
47.0726
 30
0.0
 11
261.888
 21
47.0726
 31
0.0
  0
LINE
  8
0
 62
     0
 10
261.888
 20
47.0726
 30
0.0
 11
261.888
 21
51.5415
 31
0.0
  0
LINE
  8
0
 62
     0
 10
261.888
 20
51.5415
 30
0.0
 11
263.414
 21
51.5415
 31
0.0
  0
LINE
  8
0
 62
     0
 10
263.414
 20
51.5415
 30
0.0
 11
263.414
 21
46.8422
 31
0.0
  0
LINE
  8
0
 62
     0
 10
263.414
 20
46.8422
 30
0.0
 11
277.413
 21
46.8422
 31
0.0
  0
LINE
  8
0
 62
     0
 10
277.413
 20
46.8422
 30
0.0
 11
277.413
 21
51.5415
 31
0.0
  0
LINE
  8
0
 62
     0
 10
277.413
 20
51.5415
 30
0.0
 11
278.938
 21
51.5415
 31
0.0
  0
LINE
  8
0
 62
     0
 10
278.938
 20
51.5415
 30
0.0
 11
278.938
 21
47.0726
 31
0.0
  0
LINE
  8
0
 62
     0
 10
278.938
 20
47.0726
 30
0.0
 11
280.664
 21
47.0726
 31
0.0
  0
LINE
  8
0
 62
     0
 10
280.664
 20
47.0726
 30
0.0
 11
280.664
 21
45.872
 31
0.0
  0
LINE
  8
0
 62
     0
 10
280.664
 20
45.872
 30
0.0
 11
283.964
 21
45.872
 31
0.0
  0
LINE
  8
0
 62
     0
 10
283.964
 20
45.872
 30
0.0
 11
283.964
 21
47.0726
 31
0.0
  0
LINE
  8
0
 62
     0
 10
283.964
 20
47.0726
 30
0.0
 11
285.688
 21
47.0726
 31
0.0
  0
LINE
  8
0
 62
     0
 10
285.688
 20
47.0726
 30
0.0
 11
285.688
 21
53.3425
 31
0.0
  0
LINE
  8
0
 62
     0
 10
285.688
 20
53.3425
 30
0.0
 11
286.513
 21
53.3425
 31
0.0
  0
LINE
  8
0
 62
     0
 10
286.513
 20
53.3425
 30
0.0
 11
286.513
 21
56.1414
 31
0.0
  0
LINE
  8
0
 62
     0
 10
286.513
 20
56.1414
 30
0.0
 11
285.688
 21
56.1414
 31
0.0
  0
LINE
  8
0
 62
     0
 10
285.688
 20
56.1414
 30
0.0
 11
285.688
 21
59.3714
 31
0.0
  0
LINE
  8
0
 62
     0
 10
285.688
 20
59.3714
 30
0.0
 11
278.938
 21
59.3714
 31
0.0
  0
LINE
  8
0
 62
     0
 10
278.938
 20
59.3714
 30
0.0
 11
278.938
 21
56.1414
 31
0.0
  0
LINE
  8
0
 62
     0
 10
278.938
 20
56.1414
 30
0.0
 11
277.413
 21
56.1414
 31
0.0
  0
LINE
  8
0
 62
     0
 10
277.413
 20
56.1414
 30
0.0
 11
277.413
 21
60.8418
 31
0.0
  0
LINE
  8
0
 62
     0
 10
277.413
 20
60.8418
 30
0.0
 11
263.414
 21
60.8418
 31
0.0
  0
LINE
  8
0
 62
     0
 10
15.7634
 20
60.8418
 30
0.0
 11
29.7629
 21
60.8418
 31
0.0
  0
LINE
  8
0
 62
     0
 10
29.7629
 20
60.8418
 30
0.0
 11
29.7629
 21
46.8422
 31
0.0
  0
LINE
  8
0
 62
     0
 10
29.7629
 20
46.8422
 30
0.0
 11
15.7634
 21
46.8422
 31
0.0
  0
LINE
  8
0
 62
     0
 10
15.7634
 20
46.8422
 30
0.0
 11
15.7634
 21
60.8418
 31
0.0
  0
LINE
  8
0
 62
     0
 10
41.9573
 20
60.8418
 30
0.0
 11
55.958
 21
60.8418
 31
0.0
  0
LINE
  8
0
 62
     0
 10
55.958
 20
60.8418
 30
0.0
 11
55.958
 21
46.8422
 31
0.0
  0
LINE
  8
0
 62
     0
 10
55.958
 20
46.8422
 30
0.0
 11
41.9573
 21
46.8422
 31
0.0
  0
LINE
  8
0
 62
     0
 10
41.9573
 20
46.8422
 30
0.0
 11
41.9573
 21
60.8418
 31
0.0
  0
LINE
  8
0
 62
     0
 10
61.0073
 20
60.8418
 30
0.0
 11
75.008
 21
60.8418
 31
0.0
  0
LINE
  8
0
 62
     0
 10
75.008
 20
60.8418
 30
0.0
 11
75.008
 21
46.8422
 31
0.0
  0
LINE
  8
0
 62
     0
 10
75.008
 20
46.8422
 30
0.0
 11
61.0073
 21
46.8422
 31
0.0
  0
LINE
  8
0
 62
     0
 10
61.0073
 20
46.8422
 30
0.0
 11
61.0073
 21
60.8418
 31
0.0
  0
LINE
  8
0
 62
     0
 10
80.0573
 20
60.8418
 30
0.0
 11
94.058
 21
60.8418
 31
0.0
  0
LINE
  8
0
 62
     0
 10
94.058
 20
60.8418
 30
0.0
 11
94.058
 21
46.8422
 31
0.0
  0
LINE
  8
0
 62
     0
 10
94.058
 20
46.8422
 30
0.0
 11
80.0573
 21
46.8422
 31
0.0
  0
LINE
  8
0
 62
     0
 10
80.0573
 20
46.8422
 30
0.0
 11
80.0573
 21
60.8418
 31
0.0
  0
LINE
  8
0
 62
     0
 10
99.1073
 20
60.8418
 30
0.0
 11
113.108
 21
60.8418
 31
0.0
  0
LINE
  8
0
 62
     0
 10
113.108
 20
60.8418
 30
0.0
 11
113.108
 21
46.8422
 31
0.0
  0
LINE
  8
0
 62
     0
 10
113.108
 20
46.8422
 30
0.0
 11
99.1073
 21
46.8422
 31
0.0
  0
LINE
  8
0
 62
     0
 10
99.1073
 20
46.8422
 30
0.0
 11
99.1073
 21
60.8418
 31
0.0
  0
LINE
  8
0
 62
     0
 10
118.157
 20
60.8418
 30
0.0
 11
132.158
 21
60.8418
 31
0.0
  0
LINE
  8
0
 62
     0
 10
132.158
 20
60.8418
 30
0.0
 11
132.158
 21
46.8422
 31
0.0
  0
LINE
  8
0
 62
     0
 10
132.158
 20
46.8422
 30
0.0
 11
118.157
 21
46.8422
 31
0.0
  0
LINE
  8
0
 62
     0
 10
118.157
 20
46.8422
 30
0.0
 11
118.157
 21
60.8418
 31
0.0
  0
LINE
  8
0
 62
     0
 10
137.207
 20
60.8418
 30
0.0
 11
151.208
 21
60.8418
 31
0.0
  0
LINE
  8
0
 62
     0
 10
151.208
 20
60.8418
 30
0.0
 11
151.208
 21
46.8422
 31
0.0
  0
LINE
  8
0
 62
     0
 10
151.208
 20
46.8422
 30
0.0
 11
137.207
 21
46.8422
 31
0.0
  0
LINE
  8
0
 62
     0
 10
137.207
 20
46.8422
 30
0.0
 11
137.207
 21
60.8418
 31
0.0
  0
LINE
  8
0
 62
     0
 10
156.257
 20
60.8418
 30
0.0
 11
170.258
 21
60.8418
 31
0.0
  0
LINE
  8
0
 62
     0
 10
170.258
 20
60.8418
 30
0.0
 11
170.258
 21
46.8422
 31
0.0
  0
LINE
  8
0
 62
     0
 10
170.258
 20
46.8422
 30
0.0
 11
156.257
 21
46.8422
 31
0.0
  0
LINE
  8
0
 62
     0
 10
156.257
 20
46.8422
 30
0.0
 11
156.257
 21
60.8418
 31
0.0
  0
LINE
  8
0
 62
     0
 10
175.307
 20
60.8418
 30
0.0
 11
189.308
 21
60.8418
 31
0.0
  0
LINE
  8
0
 62
     0
 10
189.308
 20
60.8418
 30
0.0
 11
189.308
 21
46.8422
 31
0.0
  0
LINE
  8
0
 62
     0
 10
189.308
 20
46.8422
 30
0.0
 11
175.307
 21
46.8422
 31
0.0
  0
LINE
  8
0
 62
     0
 10
175.307
 20
46.8422
 30
0.0
 11
175.307
 21
60.8418
 31
0.0
  0
LINE
  8
0
 62
     0
 10
194.357
 20
60.8418
 30
0.0
 11
208.358
 21
60.8418
 31
0.0
  0
LINE
  8
0
 62
     0
 10
208.358
 20
60.8418
 30
0.0
 11
208.358
 21
46.8422
 31
0.0
  0
LINE
  8
0
 62
     0
 10
208.358
 20
46.8422
 30
0.0
 11
194.357
 21
46.8422
 31
0.0
  0
LINE
  8
0
 62
     0
 10
194.357
 20
46.8422
 30
0.0
 11
194.357
 21
60.8418
 31
0.0
  0
LINE
  8
0
 62
     0
 10
213.407
 20
60.8418
 30
0.0
 11
227.408
 21
60.8418
 31
0.0
  0
LINE
  8
0
 62
     0
 10
227.408
 20
60.8418
 30
0.0
 11
227.408
 21
46.8422
 31
0.0
  0
LINE
  8
0
 62
     0
 10
227.408
 20
46.8422
 30
0.0
 11
213.407
 21
46.8422
 31
0.0
  0
LINE
  8
0
 62
     0
 10
213.407
 20
46.8422
 30
0.0
 11
213.407
 21
60.8418
 31
0.0
  0
LINE
  8
0
 62
     0
 10
232.457
 20
60.8418
 30
0.0
 11
246.458
 21
60.8418
 31
0.0
  0
LINE
  8
0
 62
     0
 10
246.458
 20
60.8418
 30
0.0
 11
246.458
 21
46.8422
 31
0.0
  0
LINE
  8
0
 62
     0
 10
246.458
 20
46.8422
 30
0.0
 11
232.457
 21
46.8422
 31
0.0
  0
LINE
  8
0
 62
     0
 10
232.457
 20
46.8422
 30
0.0
 11
232.457
 21
60.8418
 31
0.0
  0
LINE
  8
0
 62
     0
 10
13.3821
 20
79.8918
 30
0.0
 11
27.383
 21
79.8918
 31
0.0
  0
LINE
  8
0
 62
     0
 10
27.383
 20
79.8918
 30
0.0
 11
27.383
 21
65.8922
 31
0.0
  0
LINE
  8
0
 62
     0
 10
27.383
 20
65.8922
 30
0.0
 11
13.3821
 21
65.8922
 31
0.0
  0
LINE
  8
0
 62
     0
 10
13.3821
 20
65.8922
 30
0.0
 11
13.3821
 21
79.8918
 31
0.0
  0
LINE
  8
0
 62
     0
 10
37.1962
 20
79.8918
 30
0.0
 11
51.1955
 21
79.8918
 31
0.0
  0
LINE
  8
0
 62
     0
 10
51.1955
 20
79.8918
 30
0.0
 11
51.1955
 21
65.8922
 31
0.0
  0
LINE
  8
0
 62
     0
 10
51.1955
 20
65.8922
 30
0.0
 11
37.1962
 21
65.8922
 31
0.0
  0
LINE
  8
0
 62
     0
 10
37.1962
 20
65.8922
 30
0.0
 11
37.1962
 21
79.8918
 31
0.0
  0
LINE
  8
0
 62
     0
 10
56.2462
 20
79.8918
 30
0.0
 11
70.2455
 21
79.8918
 31
0.0
  0
LINE
  8
0
 62
     0
 10
70.2455
 20
79.8918
 30
0.0
 11
70.2455
 21
65.8922
 31
0.0
  0
LINE
  8
0
 62
     0
 10
70.2455
 20
65.8922
 30
0.0
 11
56.2462
 21
65.8922
 31
0.0
  0
LINE
  8
0
 62
     0
 10
56.2462
 20
65.8922
 30
0.0
 11
56.2462
 21
79.8918
 31
0.0
  0
LINE
  8
0
 62
     0
 10
75.2962
 20
79.8918
 30
0.0
 11
89.2955
 21
79.8918
 31
0.0
  0
LINE
  8
0
 62
     0
 10
89.2955
 20
79.8918
 30
0.0
 11
89.2955
 21
65.8922
 31
0.0
  0
LINE
  8
0
 62
     0
 10
89.2955
 20
65.8922
 30
0.0
 11
75.2962
 21
65.8922
 31
0.0
  0
LINE
  8
0
 62
     0
 10
75.2962
 20
65.8922
 30
0.0
 11
75.2962
 21
79.8918
 31
0.0
  0
LINE
  8
0
 62
     0
 10
94.3462
 20
79.8918
 30
0.0
 11
108.345
 21
79.8918
 31
0.0
  0
LINE
  8
0
 62
     0
 10
108.345
 20
79.8918
 30
0.0
 11
108.345
 21
65.8922
 31
0.0
  0
LINE
  8
0
 62
     0
 10
108.345
 20
65.8922
 30
0.0
 11
94.3462
 21
65.8922
 31
0.0
  0
LINE
  8
0
 62
     0
 10
94.3462
 20
65.8922
 30
0.0
 11
94.3462
 21
79.8918
 31
0.0
  0
LINE
  8
0
 62
     0
 10
113.396
 20
79.8918
 30
0.0
 11
127.395
 21
79.8918
 31
0.0
  0
LINE
  8
0
 62
     0
 10
127.395
 20
79.8918
 30
0.0
 11
127.395
 21
65.8922
 31
0.0
  0
LINE
  8
0
 62
     0
 10
127.395
 20
65.8922
 30
0.0
 11
113.396
 21
65.8922
 31
0.0
  0
LINE
  8
0
 62
     0
 10
113.396
 20
65.8922
 30
0.0
 11
113.396
 21
79.8918
 31
0.0
  0
LINE
  8
0
 62
     0
 10
132.446
 20
79.8918
 30
0.0
 11
146.445
 21
79.8918
 31
0.0
  0
LINE
  8
0
 62
     0
 10
146.445
 20
79.8918
 30
0.0
 11
146.445
 21
65.8922
 31
0.0
  0
LINE
  8
0
 62
     0
 10
146.445
 20
65.8922
 30
0.0
 11
132.446
 21
65.8922
 31
0.0
  0
LINE
  8
0
 62
     0
 10
132.446
 20
65.8922
 30
0.0
 11
132.446
 21
79.8918
 31
0.0
  0
LINE
  8
0
 62
     0
 10
151.496
 20
79.8918
 30
0.0
 11
165.495
 21
79.8918
 31
0.0
  0
LINE
  8
0
 62
     0
 10
165.495
 20
79.8918
 30
0.0
 11
165.495
 21
65.8922
 31
0.0
  0
LINE
  8
0
 62
     0
 10
165.495
 20
65.8922
 30
0.0
 11
151.496
 21
65.8922
 31
0.0
  0
LINE
  8
0
 62
     0
 10
151.496
 20
65.8922
 30
0.0
 11
151.496
 21
79.8918
 31
0.0
  0
LINE
  8
0
 62
     0
 10
170.546
 20
79.8918
 30
0.0
 11
184.545
 21
79.8918
 31
0.0
  0
LINE
  8
0
 62
     0
 10
184.545
 20
79.8918
 30
0.0
 11
184.545
 21
65.8922
 31
0.0
  0
LINE
  8
0
 62
     0
 10
184.545
 20
65.8922
 30
0.0
 11
170.546
 21
65.8922
 31
0.0
  0
LINE
  8
0
 62
     0
 10
170.546
 20
65.8922
 30
0.0
 11
170.546
 21
79.8918
 31
0.0
  0
LINE
  8
0
 62
     0
 10
189.596
 20
79.8918
 30
0.0
 11
203.595
 21
79.8918
 31
0.0
  0
LINE
  8
0
 62
     0
 10
203.595
 20
79.8918
 30
0.0
 11
203.595
 21
65.8922
 31
0.0
  0
LINE
  8
0
 62
     0
 10
203.595
 20
65.8922
 30
0.0
 11
189.596
 21
65.8922
 31
0.0
  0
LINE
  8
0
 62
     0
 10
189.596
 20
65.8922
 30
0.0
 11
189.596
 21
79.8918
 31
0.0
  0
LINE
  8
0
 62
     0
 10
208.646
 20
79.8918
 30
0.0
 11
222.645
 21
79.8918
 31
0.0
  0
LINE
  8
0
 62
     0
 10
222.645
 20
79.8918
 30
0.0
 11
222.645
 21
65.8922
 31
0.0
  0
LINE
  8
0
 62
     0
 10
222.645
 20
65.8922
 30
0.0
 11
208.646
 21
65.8922
 31
0.0
  0
LINE
  8
0
 62
     0
 10
208.646
 20
65.8922
 30
0.0
 11
208.646
 21
79.8918
 31
0.0
  0
LINE
  8
0
 62
     0
 10
227.696
 20
79.8918
 30
0.0
 11
241.695
 21
79.8918
 31
0.0
  0
LINE
  8
0
 62
     0
 10
241.695
 20
79.8918
 30
0.0
 11
241.695
 21
65.8922
 31
0.0
  0
LINE
  8
0
 62
     0
 10
241.695
 20
65.8922
 30
0.0
 11
227.696
 21
65.8922
 31
0.0
  0
LINE
  8
0
 62
     0
 10
227.696
 20
65.8922
 30
0.0
 11
227.696
 21
79.8918
 31
0.0
  0
LINE
  8
0
 62
     0
 10
246.746
 20
79.8918
 30
0.0
 11
260.745
 21
79.8918
 31
0.0
  0
LINE
  8
0
 62
     0
 10
260.745
 20
79.8918
 30
0.0
 11
260.745
 21
65.8922
 31
0.0
  0
LINE
  8
0
 62
     0
 10
260.745
 20
65.8922
 30
0.0
 11
246.746
 21
65.8922
 31
0.0
  0
LINE
  8
0
 62
     0
 10
246.746
 20
65.8922
 30
0.0
 11
246.746
 21
79.8918
 31
0.0
  0
LINE
  8
0
 62
     0
 10
270.557
 20
79.8918
 30
0.0
 11
284.558
 21
79.8918
 31
0.0
  0
LINE
  8
0
 62
     0
 10
284.558
 20
79.8918
 30
0.0
 11
284.558
 21
65.8922
 31
0.0
  0
LINE
  8
0
 62
     0
 10
284.558
 20
65.8922
 30
0.0
 11
270.557
 21
65.8922
 31
0.0
  0
LINE
  8
0
 62
     0
 10
270.557
 20
65.8922
 30
0.0
 11
270.557
 21
79.8918
 31
0.0
  0
LINE
  8
0
 62
     0
 10
265.796
 20
98.9418
 30
0.0
 11
265.796
 21
94.2414
 31
0.0
  0
LINE
  8
0
 62
     0
 10
265.796
 20
94.2414
 30
0.0
 11
264.27
 21
94.2414
 31
0.0
  0
LINE
  8
0
 62
     0
 10
264.27
 20
94.2414
 30
0.0
 11
264.27
 21
97.4714
 31
0.0
  0
LINE
  8
0
 62
     0
 10
264.27
 20
97.4714
 30
0.0
 11
257.521
 21
97.4714
 31
0.0
  0
LINE
  8
0
 62
     0
 10
257.521
 20
97.4714
 30
0.0
 11
257.521
 21
94.2414
 31
0.0
  0
LINE
  8
0
 62
     0
 10
257.521
 20
94.2414
 30
0.0
 11
256.696
 21
94.2414
 31
0.0
  0
LINE
  8
0
 62
     0
 10
256.696
 20
94.2414
 30
0.0
 11
256.696
 21
91.4425
 31
0.0
  0
LINE
  8
0
 62
     0
 10
256.696
 20
91.4425
 30
0.0
 11
257.521
 21
91.4425
 31
0.0
  0
LINE
  8
0
 62
     0
 10
257.521
 20
91.4425
 30
0.0
 11
257.521
 21
85.1726
 31
0.0
  0
LINE
  8
0
 62
     0
 10
257.521
 20
85.1726
 30
0.0
 11
259.245
 21
85.1726
 31
0.0
  0
LINE
  8
0
 62
     0
 10
259.245
 20
85.1726
 30
0.0
 11
259.245
 21
83.972
 31
0.0
  0
LINE
  8
0
 62
     0
 10
259.245
 20
83.972
 30
0.0
 11
262.545
 21
83.972
 31
0.0
  0
LINE
  8
0
 62
     0
 10
262.545
 20
83.972
 30
0.0
 11
262.545
 21
85.1726
 31
0.0
  0
LINE
  8
0
 62
     0
 10
262.545
 20
85.1726
 30
0.0
 11
264.27
 21
85.1726
 31
0.0
  0
LINE
  8
0
 62
     0
 10
264.27
 20
85.1726
 30
0.0
 11
264.27
 21
89.6415
 31
0.0
  0
LINE
  8
0
 62
     0
 10
264.27
 20
89.6415
 30
0.0
 11
265.796
 21
89.6415
 31
0.0
  0
LINE
  8
0
 62
     0
 10
265.796
 20
89.6415
 30
0.0
 11
265.796
 21
84.9422
 31
0.0
  0
LINE
  8
0
 62
     0
 10
265.796
 20
84.9422
 30
0.0
 11
279.795
 21
84.9422
 31
0.0
  0
LINE
  8
0
 62
     0
 10
279.795
 20
84.9422
 30
0.0
 11
279.795
 21
89.6415
 31
0.0
  0
LINE
  8
0
 62
     0
 10
279.795
 20
89.6415
 30
0.0
 11
281.321
 21
89.6415
 31
0.0
  0
LINE
  8
0
 62
     0
 10
281.321
 20
89.6415
 30
0.0
 11
281.321
 21
85.1726
 31
0.0
  0
LINE
  8
0
 62
     0
 10
281.321
 20
85.1726
 30
0.0
 11
283.045
 21
85.1726
 31
0.0
  0
LINE
  8
0
 62
     0
 10
283.045
 20
85.1726
 30
0.0
 11
283.045
 21
83.972
 31
0.0
  0
LINE
  8
0
 62
     0
 10
283.045
 20
83.972
 30
0.0
 11
286.345
 21
83.972
 31
0.0
  0
LINE
  8
0
 62
     0
 10
286.345
 20
83.972
 30
0.0
 11
286.345
 21
85.1726
 31
0.0
  0
LINE
  8
0
 62
     0
 10
286.345
 20
85.1726
 30
0.0
 11
288.071
 21
85.1726
 31
0.0
  0
LINE
  8
0
 62
     0
 10
288.071
 20
85.1726
 30
0.0
 11
288.071
 21
91.4425
 31
0.0
  0
LINE
  8
0
 62
     0
 10
288.071
 20
91.4425
 30
0.0
 11
288.896
 21
91.4425
 31
0.0
  0
LINE
  8
0
 62
     0
 10
288.896
 20
91.4425
 30
0.0
 11
288.896
 21
94.2414
 31
0.0
  0
LINE
  8
0
 62
     0
 10
288.896
 20
94.2414
 30
0.0
 11
288.071
 21
94.2414
 31
0.0
  0
LINE
  8
0
 62
     0
 10
288.071
 20
94.2414
 30
0.0
 11
288.071
 21
97.4714
 31
0.0
  0
LINE
  8
0
 62
     0
 10
288.071
 20
97.4714
 30
0.0
 11
281.321
 21
97.4714
 31
0.0
  0
LINE
  8
0
 62
     0
 10
281.321
 20
97.4714
 30
0.0
 11
281.321
 21
94.2414
 31
0.0
  0
LINE
  8
0
 62
     0
 10
281.321
 20
94.2414
 30
0.0
 11
279.795
 21
94.2414
 31
0.0
  0
LINE
  8
0
 62
     0
 10
279.795
 20
94.2414
 30
0.0
 11
279.795
 21
98.9418
 31
0.0
  0
LINE
  8
0
 62
     0
 10
279.795
 20
98.9418
 30
0.0
 11
265.796
 21
98.9418
 31
0.0
  0
LINE
  8
0
 62
     0
 10
8.61963
 20
98.9418
 30
0.0
 11
22.6205
 21
98.9418
 31
0.0
  0
LINE
  8
0
 62
     0
 10
22.6205
 20
98.9418
 30
0.0
 11
22.6205
 21
84.9422
 31
0.0
  0
LINE
  8
0
 62
     0
 10
22.6205
 20
84.9422
 30
0.0
 11
8.61963
 21
84.9422
 31
0.0
  0
LINE
  8
0
 62
     0
 10
8.61963
 20
84.9422
 30
0.0
 11
8.61963
 21
98.9418
 31
0.0
  0
LINE
  8
0
 62
     0
 10
27.671
 20
98.9418
 30
0.0
 11
41.6705
 21
98.9418
 31
0.0
  0
LINE
  8
0
 62
     0
 10
41.6705
 20
98.9418
 30
0.0
 11
41.6705
 21
84.9422
 31
0.0
  0
LINE
  8
0
 62
     0
 10
41.6705
 20
84.9422
 30
0.0
 11
27.671
 21
84.9422
 31
0.0
  0
LINE
  8
0
 62
     0
 10
27.671
 20
84.9422
 30
0.0
 11
27.671
 21
98.9418
 31
0.0
  0
LINE
  8
0
 62
     0
 10
46.7212
 20
98.9418
 30
0.0
 11
60.7205
 21
98.9418
 31
0.0
  0
LINE
  8
0
 62
     0
 10
60.7205
 20
98.9418
 30
0.0
 11
60.7205
 21
84.9422
 31
0.0
  0
LINE
  8
0
 62
     0
 10
60.7205
 20
84.9422
 30
0.0
 11
46.7212
 21
84.9422
 31
0.0
  0
LINE
  8
0
 62
     0
 10
46.7212
 20
84.9422
 30
0.0
 11
46.7212
 21
98.9418
 31
0.0
  0
LINE
  8
0
 62
     0
 10
65.7712
 20
98.9418
 30
0.0
 11
79.7705
 21
98.9418
 31
0.0
  0
LINE
  8
0
 62
     0
 10
79.7705
 20
98.9418
 30
0.0
 11
79.7705
 21
84.9422
 31
0.0
  0
LINE
  8
0
 62
     0
 10
79.7705
 20
84.9422
 30
0.0
 11
65.7712
 21
84.9422
 31
0.0
  0
LINE
  8
0
 62
     0
 10
65.7712
 20
84.9422
 30
0.0
 11
65.7712
 21
98.9418
 31
0.0
  0
LINE
  8
0
 62
     0
 10
84.8212
 20
98.9418
 30
0.0
 11
98.8205
 21
98.9418
 31
0.0
  0
LINE
  8
0
 62
     0
 10
98.8205
 20
98.9418
 30
0.0
 11
98.8205
 21
84.9422
 31
0.0
  0
LINE
  8
0
 62
     0
 10
98.8205
 20
84.9422
 30
0.0
 11
84.8212
 21
84.9422
 31
0.0
  0
LINE
  8
0
 62
     0
 10
84.8212
 20
84.9422
 30
0.0
 11
84.8212
 21
98.9418
 31
0.0
  0
LINE
  8
0
 62
     0
 10
103.87
 20
98.9418
 30
0.0
 11
117.869
 21
98.9418
 31
0.0
  0
LINE
  8
0
 62
     0
 10
117.869
 20
98.9418
 30
0.0
 11
117.869
 21
84.9422
 31
0.0
  0
LINE
  8
0
 62
     0
 10
117.869
 20
84.9422
 30
0.0
 11
103.87
 21
84.9422
 31
0.0
  0
LINE
  8
0
 62
     0
 10
103.87
 20
84.9422
 30
0.0
 11
103.87
 21
98.9418
 31
0.0
  0
LINE
  8
0
 62
     0
 10
122.92
 20
98.9418
 30
0.0
 11
136.92
 21
98.9418
 31
0.0
  0
LINE
  8
0
 62
     0
 10
136.92
 20
98.9418
 30
0.0
 11
136.92
 21
84.9422
 31
0.0
  0
LINE
  8
0
 62
     0
 10
136.92
 20
84.9422
 30
0.0
 11
122.92
 21
84.9422
 31
0.0
  0
LINE
  8
0
 62
     0
 10
122.92
 20
84.9422
 30
0.0
 11
122.92
 21
98.9418
 31
0.0
  0
LINE
  8
0
 62
     0
 10
141.971
 20
98.9418
 30
0.0
 11
155.97
 21
98.9418
 31
0.0
  0
LINE
  8
0
 62
     0
 10
155.97
 20
98.9418
 30
0.0
 11
155.97
 21
84.9422
 31
0.0
  0
LINE
  8
0
 62
     0
 10
155.97
 20
84.9422
 30
0.0
 11
141.971
 21
84.9422
 31
0.0
  0
LINE
  8
0
 62
     0
 10
141.971
 20
84.9422
 30
0.0
 11
141.971
 21
98.9418
 31
0.0
  0
LINE
  8
0
 62
     0
 10
161.021
 20
98.9418
 30
0.0
 11
175.02
 21
98.9418
 31
0.0
  0
LINE
  8
0
 62
     0
 10
175.02
 20
98.9418
 30
0.0
 11
175.02
 21
84.9422
 31
0.0
  0
LINE
  8
0
 62
     0
 10
175.02
 20
84.9422
 30
0.0
 11
161.021
 21
84.9422
 31
0.0
  0
LINE
  8
0
 62
     0
 10
161.021
 20
84.9422
 30
0.0
 11
161.021
 21
98.9418
 31
0.0
  0
LINE
  8
0
 62
     0
 10
180.071
 20
98.9418
 30
0.0
 11
194.07
 21
98.9418
 31
0.0
  0
LINE
  8
0
 62
     0
 10
194.07
 20
98.9418
 30
0.0
 11
194.07
 21
84.9422
 31
0.0
  0
LINE
  8
0
 62
     0
 10
194.07
 20
84.9422
 30
0.0
 11
180.071
 21
84.9422
 31
0.0
  0
LINE
  8
0
 62
     0
 10
180.071
 20
84.9422
 30
0.0
 11
180.071
 21
98.9418
 31
0.0
  0
LINE
  8
0
 62
     0
 10
199.121
 20
98.9418
 30
0.0
 11
213.12
 21
98.9418
 31
0.0
  0
LINE
  8
0
 62
     0
 10
213.12
 20
98.9418
 30
0.0
 11
213.12
 21
84.9422
 31
0.0
  0
LINE
  8
0
 62
     0
 10
213.12
 20
84.9422
 30
0.0
 11
199.121
 21
84.9422
 31
0.0
  0
LINE
  8
0
 62
     0
 10
199.121
 20
84.9422
 30
0.0
 11
199.121
 21
98.9418
 31
0.0
  0
LINE
  8
0
 62
     0
 10
218.171
 20
98.9418
 30
0.0
 11
232.17
 21
98.9418
 31
0.0
  0
LINE
  8
0
 62
     0
 10
232.17
 20
98.9418
 30
0.0
 11
232.17
 21
84.9422
 31
0.0
  0
LINE
  8
0
 62
     0
 10
232.17
 20
84.9422
 30
0.0
 11
218.171
 21
84.9422
 31
0.0
  0
LINE
  8
0
 62
     0
 10
218.171
 20
84.9422
 30
0.0
 11
218.171
 21
98.9418
 31
0.0
  0
LINE
  8
0
 62
     0
 10
237.221
 20
98.9418
 30
0.0
 11
251.22
 21
98.9418
 31
0.0
  0
LINE
  8
0
 62
     0
 10
251.22
 20
98.9418
 30
0.0
 11
251.22
 21
84.9422
 31
0.0
  0
LINE
  8
0
 62
     0
 10
251.22
 20
84.9422
 30
0.0
 11
237.221
 21
84.9422
 31
0.0
  0
LINE
  8
0
 62
     0
 10
237.221
 20
84.9422
 30
0.0
 11
237.221
 21
98.9418
 31
0.0
  0
LINE
  8
0
 62
     0
 10
8.61963
 20
120.85
 30
0.0
 11
22.6205
 21
120.85
 31
0.0
  0
LINE
  8
0
 62
     0
 10
22.6205
 20
120.85
 30
0.0
 11
22.6205
 21
106.849
 31
0.0
  0
LINE
  8
0
 62
     0
 10
22.6205
 20
106.849
 30
0.0
 11
8.61963
 21
106.849
 31
0.0
  0
LINE
  8
0
 62
     0
 10
8.61963
 20
106.849
 30
0.0
 11
8.61963
 21
120.85
 31
0.0
  0
LINE
  8
0
 62
     0
 10
46.7212
 20
120.85
 30
0.0
 11
60.7205
 21
120.85
 31
0.0
  0
LINE
  8
0
 62
     0
 10
60.7205
 20
120.85
 30
0.0
 11
60.7205
 21
106.849
 31
0.0
  0
LINE
  8
0
 62
     0
 10
60.7205
 20
106.849
 30
0.0
 11
46.7212
 21
106.849
 31
0.0
  0
LINE
  8
0
 62
     0
 10
46.7212
 20
106.849
 30
0.0
 11
46.7212
 21
120.85
 31
0.0
  0
LINE
  8
0
 62
     0
 10
65.7712
 20
120.85
 30
0.0
 11
79.7705
 21
120.85
 31
0.0
  0
LINE
  8
0
 62
     0
 10
79.7705
 20
120.85
 30
0.0
 11
79.7705
 21
106.849
 31
0.0
  0
LINE
  8
0
 62
     0
 10
79.7705
 20
106.849
 30
0.0
 11
65.7712
 21
106.849
 31
0.0
  0
LINE
  8
0
 62
     0
 10
65.7712
 20
106.849
 30
0.0
 11
65.7712
 21
120.85
 31
0.0
  0
LINE
  8
0
 62
     0
 10
84.8212
 20
120.85
 30
0.0
 11
98.8205
 21
120.85
 31
0.0
  0
LINE
  8
0
 62
     0
 10
98.8205
 20
120.85
 30
0.0
 11
98.8205
 21
106.849
 31
0.0
  0
LINE
  8
0
 62
     0
 10
98.8205
 20
106.849
 30
0.0
 11
84.8212
 21
106.849
 31
0.0
  0
LINE
  8
0
 62
     0
 10
84.8212
 20
106.849
 30
0.0
 11
84.8212
 21
120.85
 31
0.0
  0
LINE
  8
0
 62
     0
 10
103.87
 20
120.85
 30
0.0
 11
117.869
 21
120.85
 31
0.0
  0
LINE
  8
0
 62
     0
 10
117.869
 20
120.85
 30
0.0
 11
117.869
 21
106.849
 31
0.0
  0
LINE
  8
0
 62
     0
 10
117.869
 20
106.849
 30
0.0
 11
103.87
 21
106.849
 31
0.0
  0
LINE
  8
0
 62
     0
 10
103.87
 20
106.849
 30
0.0
 11
103.87
 21
120.85
 31
0.0
  0
LINE
  8
0
 62
     0
 10
132.446
 20
120.85
 30
0.0
 11
146.445
 21
120.85
 31
0.0
  0
LINE
  8
0
 62
     0
 10
146.445
 20
120.85
 30
0.0
 11
146.445
 21
106.849
 31
0.0
  0
LINE
  8
0
 62
     0
 10
146.445
 20
106.849
 30
0.0
 11
132.446
 21
106.849
 31
0.0
  0
LINE
  8
0
 62
     0
 10
132.446
 20
106.849
 30
0.0
 11
132.446
 21
120.85
 31
0.0
  0
LINE
  8
0
 62
     0
 10
151.496
 20
120.85
 30
0.0
 11
165.495
 21
120.85
 31
0.0
  0
LINE
  8
0
 62
     0
 10
165.495
 20
120.85
 30
0.0
 11
165.495
 21
106.849
 31
0.0
  0
LINE
  8
0
 62
     0
 10
165.495
 20
106.849
 30
0.0
 11
151.496
 21
106.849
 31
0.0
  0
LINE
  8
0
 62
     0
 10
151.496
 20
106.849
 30
0.0
 11
151.496
 21
120.85
 31
0.0
  0
LINE
  8
0
 62
     0
 10
170.546
 20
120.85
 30
0.0
 11
184.545
 21
120.85
 31
0.0
  0
LINE
  8
0
 62
     0
 10
184.545
 20
120.85
 30
0.0
 11
184.545
 21
106.849
 31
0.0
  0
LINE
  8
0
 62
     0
 10
184.545
 20
106.849
 30
0.0
 11
170.546
 21
106.849
 31
0.0
  0
LINE
  8
0
 62
     0
 10
170.546
 20
106.849
 30
0.0
 11
170.546
 21
120.85
 31
0.0
  0
LINE
  8
0
 62
     0
 10
189.596
 20
120.85
 30
0.0
 11
203.595
 21
120.85
 31
0.0
  0
LINE
  8
0
 62
     0
 10
203.595
 20
120.85
 30
0.0
 11
203.595
 21
106.849
 31
0.0
  0
LINE
  8
0
 62
     0
 10
203.595
 20
106.849
 30
0.0
 11
189.596
 21
106.849
 31
0.0
  0
LINE
  8
0
 62
     0
 10
189.596
 20
106.849
 30
0.0
 11
189.596
 21
120.85
 31
0.0
  0
LINE
  8
0
 62
     0
 10
218.171
 20
120.85
 30
0.0
 11
232.17
 21
120.85
 31
0.0
  0
LINE
  8
0
 62
     0
 10
232.17
 20
120.85
 30
0.0
 11
232.17
 21
106.849
 31
0.0
  0
LINE
  8
0
 62
     0
 10
232.17
 20
106.849
 30
0.0
 11
218.171
 21
106.849
 31
0.0
  0
LINE
  8
0
 62
     0
 10
218.171
 20
106.849
 30
0.0
 11
218.171
 21
120.85
 31
0.0
  0
LINE
  8
0
 62
     0
 10
237.221
 20
120.85
 30
0.0
 11
251.22
 21
120.85
 31
0.0
  0
LINE
  8
0
 62
     0
 10
251.22
 20
120.85
 30
0.0
 11
251.22
 21
106.849
 31
0.0
  0
LINE
  8
0
 62
     0
 10
251.22
 20
106.849
 30
0.0
 11
237.221
 21
106.849
 31
0.0
  0
LINE
  8
0
 62
     0
 10
237.221
 20
106.849
 30
0.0
 11
237.221
 21
120.85
 31
0.0
  0
LINE
  8
0
 62
     0
 10
256.271
 20
120.85
 30
0.0
 11
270.27
 21
120.85
 31
0.0
  0
LINE
  8
0
 62
     0
 10
270.27
 20
120.85
 30
0.0
 11
270.27
 21
106.849
 31
0.0
  0
LINE
  8
0
 62
     0
 10
270.27
 20
106.849
 30
0.0
 11
256.271
 21
106.849
 31
0.0
  0
LINE
  8
0
 62
     0
 10
256.271
 20
106.849
 30
0.0
 11
256.271
 21
120.85
 31
0.0
  0
LINE
  8
0
 62
     0
 10
275.321
 20
120.85
 30
0.0
 11
289.32
 21
120.85
 31
0.0
  0
LINE
  8
0
 62
     0
 10
289.32
 20
120.85
 30
0.0
 11
289.32
 21
106.849
 31
0.0
  0
LINE
  8
0
 62
     0
 10
289.32
 20
106.849
 30
0.0
 11
275.321
 21
106.849
 31
0.0
  0
LINE
  8
0
 62
     0
 10
275.321
 20
106.849
 30
0.0
 11
275.321
 21
120.85
 31
0.0
  0
LINE
  8
0
 62
     0
 10
112.336
 20
128.525
 30
0.0
 11
112.058
 21
128.384
 31
0.0
  0
LINE
  8
0
 62
     0
 10
112.058
 20
128.384
 30
0.0
 11
111.836
 21
128.162
 31
0.0
  0
LINE
  8
0
 62
     0
 10
111.836
 20
128.162
 30
0.0
 11
111.694
 21
127.883
 31
0.0
  0
LINE
  8
0
 62
     0
 10
111.694
 20
127.883
 30
0.0
 11
111.646
 21
127.575
 31
0.0
  0
LINE
  8
0
 62
     0
 10
111.646
 20
127.575
 30
0.0
 11
111.694
 21
127.265
 31
0.0
  0
LINE
  8
0
 62
     0
 10
111.694
 20
127.265
 30
0.0
 11
111.836
 21
126.988
 31
0.0
  0
LINE
  8
0
 62
     0
 10
111.836
 20
126.988
 30
0.0
 11
112.058
 21
126.764
 31
0.0
  0
LINE
  8
0
 62
     0
 10
112.058
 20
126.764
 30
0.0
 11
112.336
 21
126.623
 31
0.0
  0
LINE
  8
0
 62
     0
 10
112.336
 20
126.623
 30
0.0
 11
112.645
 21
126.574
 31
0.0
  0
LINE
  8
0
 62
     0
 10
112.645
 20
126.574
 30
0.0
 11
112.955
 21
126.623
 31
0.0
  0
LINE
  8
0
 62
     0
 10
112.955
 20
126.623
 30
0.0
 11
113.234
 21
126.764
 31
0.0
  0
LINE
  8
0
 62
     0
 10
113.234
 20
126.764
 30
0.0
 11
113.454
 21
126.988
 31
0.0
  0
LINE
  8
0
 62
     0
 10
113.454
 20
126.988
 30
0.0
 11
113.596
 21
127.265
 31
0.0
  0
LINE
  8
0
 62
     0
 10
113.596
 20
127.265
 30
0.0
 11
113.646
 21
127.575
 31
0.0
  0
LINE
  8
0
 62
     0
 10
113.646
 20
127.575
 30
0.0
 11
113.596
 21
127.883
 31
0.0
  0
LINE
  8
0
 62
     0
 10
113.596
 20
127.883
 30
0.0
 11
113.454
 21
128.162
 31
0.0
  0
LINE
  8
0
 62
     0
 10
113.454
 20
128.162
 30
0.0
 11
113.234
 21
128.384
 31
0.0
  0
LINE
  8
0
 62
     0
 10
113.234
 20
128.384
 30
0.0
 11
112.955
 21
128.525
 31
0.0
  0
LINE
  8
0
 62
     0
 10
112.955
 20
128.525
 30
0.0
 11
112.645
 21
128.574
 31
0.0
  0
LINE
  8
0
 62
     0
 10
112.645
 20
128.574
 30
0.0
 11
112.336
 21
128.525
 31
0.0
  0
LINE
  8
0
 62
     0
 10
223.086
 20
128.525
 30
0.0
 11
222.808
 21
128.384
 31
0.0
  0
LINE
  8
0
 62
     0
 10
222.808
 20
128.384
 30
0.0
 11
222.586
 21
128.162
 31
0.0
  0
LINE
  8
0
 62
     0
 10
222.586
 20
128.162
 30
0.0
 11
222.444
 21
127.883
 31
0.0
  0
LINE
  8
0
 62
     0
 10
222.444
 20
127.883
 30
0.0
 11
222.396
 21
127.575
 31
0.0
  0
LINE
  8
0
 62
     0
 10
222.396
 20
127.575
 30
0.0
 11
222.444
 21
127.265
 31
0.0
  0
LINE
  8
0
 62
     0
 10
222.444
 20
127.265
 30
0.0
 11
222.586
 21
126.988
 31
0.0
  0
LINE
  8
0
 62
     0
 10
222.586
 20
126.988
 30
0.0
 11
222.808
 21
126.764
 31
0.0
  0
LINE
  8
0
 62
     0
 10
222.808
 20
126.764
 30
0.0
 11
223.086
 21
126.623
 31
0.0
  0
LINE
  8
0
 62
     0
 10
223.086
 20
126.623
 30
0.0
 11
223.395
 21
126.574
 31
0.0
  0
LINE
  8
0
 62
     0
 10
223.395
 20
126.574
 30
0.0
 11
223.704
 21
126.623
 31
0.0
  0
LINE
  8
0
 62
     0
 10
223.704
 20
126.623
 30
0.0
 11
223.984
 21
126.764
 31
0.0
  0
LINE
  8
0
 62
     0
 10
223.984
 20
126.764
 30
0.0
 11
224.204
 21
126.988
 31
0.0
  0
LINE
  8
0
 62
     0
 10
224.204
 20
126.988
 30
0.0
 11
224.346
 21
127.265
 31
0.0
  0
LINE
  8
0
 62
     0
 10
224.346
 20
127.265
 30
0.0
 11
224.396
 21
127.575
 31
0.0
  0
LINE
  8
0
 62
     0
 10
224.396
 20
127.575
 30
0.0
 11
224.346
 21
127.883
 31
0.0
  0
LINE
  8
0
 62
     0
 10
224.346
 20
127.883
 30
0.0
 11
224.204
 21
128.162
 31
0.0
  0
LINE
  8
0
 62
     0
 10
224.204
 20
128.162
 30
0.0
 11
223.984
 21
128.384
 31
0.0
  0
LINE
  8
0
 62
     0
 10
223.984
 20
128.384
 30
0.0
 11
223.704
 21
128.525
 31
0.0
  0
LINE
  8
0
 62
     0
 10
223.704
 20
128.525
 30
0.0
 11
223.395
 21
128.574
 31
0.0
  0
LINE
  8
0
 62
     0
 10
223.395
 20
128.574
 30
0.0
 11
223.086
 21
128.525
 31
0.0
  0
LINE
  8
0
 62
     0
 10
333.837
 20
128.525
 30
0.0
 11
333.558
 21
128.384
 31
0.0
  0
LINE
  8
0
 62
     0
 10
333.558
 20
128.384
 30
0.0
 11
333.337
 21
128.162
 31
0.0
  0
LINE
  8
0
 62
     0
 10
333.337
 20
128.162
 30
0.0
 11
333.194
 21
127.883
 31
0.0
  0
LINE
  8
0
 62
     0
 10
333.194
 20
127.883
 30
0.0
 11
333.146
 21
127.575
 31
0.0
  0
LINE
  8
0
 62
     0
 10
333.146
 20
127.575
 30
0.0
 11
333.194
 21
127.265
 31
0.0
  0
LINE
  8
0
 62
     0
 10
333.194
 20
127.265
 30
0.0
 11
333.337
 21
126.988
 31
0.0
  0
LINE
  8
0
 62
     0
 10
333.337
 20
126.988
 30
0.0
 11
333.558
 21
126.764
 31
0.0
  0
LINE
  8
0
 62
     0
 10
333.558
 20
126.764
 30
0.0
 11
333.837
 21
126.623
 31
0.0
  0
LINE
  8
0
 62
     0
 10
333.837
 20
126.623
 30
0.0
 11
334.147
 21
126.574
 31
0.0
  0
LINE
  8
0
 62
     0
 10
334.147
 20
126.574
 30
0.0
 11
334.456
 21
126.623
 31
0.0
  0
LINE
  8
0
 62
     0
 10
334.456
 20
126.623
 30
0.0
 11
334.734
 21
126.764
 31
0.0
  0
LINE
  8
0
 62
     0
 10
334.734
 20
126.764
 30
0.0
 11
334.955
 21
126.988
 31
0.0
  0
LINE
  8
0
 62
     0
 10
334.955
 20
126.988
 30
0.0
 11
335.098
 21
127.265
 31
0.0
  0
LINE
  8
0
 62
     0
 10
335.098
 20
127.265
 30
0.0
 11
335.147
 21
127.575
 31
0.0
  0
LINE
  8
0
 62
     0
 10
335.147
 20
127.575
 30
0.0
 11
335.098
 21
127.883
 31
0.0
  0
LINE
  8
0
 62
     0
 10
335.098
 20
127.883
 30
0.0
 11
334.955
 21
128.162
 31
0.0
  0
LINE
  8
0
 62
     0
 10
334.955
 20
128.162
 30
0.0
 11
334.734
 21
128.384
 31
0.0
  0
LINE
  8
0
 62
     0
 10
334.734
 20
128.384
 30
0.0
 11
334.456
 21
128.525
 31
0.0
  0
LINE
  8
0
 62
     0
 10
334.456
 20
128.525
 30
0.0
 11
334.147
 21
128.574
 31
0.0
  0
LINE
  8
0
 62
     0
 10
334.147
 20
128.574
 30
0.0
 11
333.837
 21
128.525
 31
0.0
  0
LINE
  8
0
 62
     0
 10
1.58612
 20
128.525
 30
0.0
 11
1.30776
 21
128.384
 31
0.0
  0
LINE
  8
0
 62
     0
 10
1.30776
 20
128.384
 30
0.0
 11
1.0859
 21
128.162
 31
0.0
  0
LINE
  8
0
 62
     0
 10
1.0859
 20
128.162
 30
0.0
 11
0.943956
 21
127.883
 31
0.0
  0
LINE
  8
0
 62
     0
 10
0.943956
 20
127.883
 30
0.0
 11
0.895724
 21
127.575
 31
0.0
  0
LINE
  8
0
 62
     0
 10
0.895724
 20
127.575
 30
0.0
 11
0.943956
 21
127.265
 31
0.0
  0
LINE
  8
0
 62
     0
 10
0.943956
 20
127.265
 30
0.0
 11
1.0859
 21
126.988
 31
0.0
  0
LINE
  8
0
 62
     0
 10
1.0859
 20
126.988
 30
0.0
 11
1.30776
 21
126.764
 31
0.0
  0
LINE
  8
0
 62
     0
 10
1.30776
 20
126.764
 30
0.0
 11
1.58612
 21
126.623
 31
0.0
  0
LINE
  8
0
 62
     0
 10
1.58612
 20
126.623
 30
0.0
 11
1.8948
 21
126.574
 31
0.0
  0
LINE
  8
0
 62
     0
 10
1.8948
 20
126.574
 30
0.0
 11
2.20486
 21
126.623
 31
0.0
  0
LINE
  8
0
 62
     0
 10
2.20486
 20
126.623
 30
0.0
 11
2.48185
 21
126.764
 31
0.0
  0
LINE
  8
0
 62
     0
 10
2.48185
 20
126.764
 30
0.0
 11
2.70509
 21
126.988
 31
0.0
  0
LINE
  8
0
 62
     0
 10
2.70509
 20
126.988
 30
0.0
 11
2.84703
 21
127.265
 31
0.0
  0
LINE
  8
0
 62
     0
 10
2.84703
 20
127.265
 30
0.0
 11
2.89526
 21
127.575
 31
0.0
  0
LINE
  8
0
 62
     0
 10
2.89526
 20
127.575
 30
0.0
 11
2.84703
 21
127.883
 31
0.0
  0
LINE
  8
0
 62
     0
 10
2.84703
 20
127.883
 30
0.0
 11
2.70509
 21
128.162
 31
0.0
  0
LINE
  8
0
 62
     0
 10
2.70509
 20
128.162
 30
0.0
 11
2.48185
 21
128.384
 31
0.0
  0
LINE
  8
0
 62
     0
 10
2.48185
 20
128.384
 30
0.0
 11
2.20486
 21
128.525
 31
0.0
  0
LINE
  8
0
 62
     0
 10
2.20486
 20
128.525
 30
0.0
 11
1.8948
 21
128.574
 31
0.0
  0
LINE
  8
0
 62
     0
 10
1.8948
 20
128.574
 30
0.0
 11
1.58612
 21
128.525
 31
0.0
  0
ENDSEC
  0
EOF
