  0
SECTION
  2
HEADER
  9
$ACADVER
  1
AC1009
  9
$FILLMODE
 70
 0
  9
$SPLFRAME
 70
 1
  9
$EXTMIN
 10
0
 20
0
 30
0.0
  9
$EXTMAX
 10
1058.33
 20
1058.33
 30
0.0
  0
ENDSEC
  0
SECTION
  2
TABLES
  0
TABLE
  2
LAYER
 70
1
  0
LAYER
  2
0
 70
     0
 62
     7
  6
CONTINUOUS
  0
ENDTAB
  0
ENDSEC
  0
SECTION
  2
ENTITIES
  0
LINE
  8
0
 62
     0
 10
333.947
 20
129.374
 30
0.0
 11
334.103
 21
129.367
 31
0.0
  0
LINE
  8
0
 62
     0
 10
334.103
 20
129.367
 30
0.0
 11
334.258
 21
129.35
 31
0.0
  0
LINE
  8
0
 62
     0
 10
334.258
 20
129.35
 30
0.0
 11
334.413
 21
129.319
 31
0.0
  0
LINE
  8
0
 62
     0
 10
334.413
 20
129.319
 30
0.0
 11
334.564
 21
129.276
 31
0.0
  0
LINE
  8
0
 62
     0
 10
334.564
 20
129.276
 30
0.0
 11
334.712
 21
129.221
 31
0.0
  0
LINE
  8
0
 62
     0
 10
334.712
 20
129.221
 30
0.0
 11
334.853
 21
129.157
 31
0.0
  0
LINE
  8
0
 62
     0
 10
334.853
 20
129.157
 30
0.0
 11
334.99
 21
129.08
 31
0.0
  0
LINE
  8
0
 62
     0
 10
334.99
 20
129.08
 30
0.0
 11
335.121
 21
128.992
 31
0.0
  0
LINE
  8
0
 62
     0
 10
335.121
 20
128.992
 30
0.0
 11
335.245
 21
128.895
 31
0.0
  0
LINE
  8
0
 62
     0
 10
335.245
 20
128.895
 30
0.0
 11
335.361
 21
128.789
 31
0.0
  0
LINE
  8
0
 62
     0
 10
335.361
 20
128.789
 30
0.0
 11
335.467
 21
128.673
 31
0.0
  0
LINE
  8
0
 62
     0
 10
335.467
 20
128.673
 30
0.0
 11
335.565
 21
128.55
 31
0.0
  0
LINE
  8
0
 62
     0
 10
335.565
 20
128.55
 30
0.0
 11
335.651
 21
128.419
 31
0.0
  0
LINE
  8
0
 62
     0
 10
335.651
 20
128.419
 30
0.0
 11
335.729
 21
128.282
 31
0.0
  0
LINE
  8
0
 62
     0
 10
335.729
 20
128.282
 30
0.0
 11
335.793
 21
128.139
 31
0.0
  0
LINE
  8
0
 62
     0
 10
335.793
 20
128.139
 30
0.0
 11
335.849
 21
127.993
 31
0.0
  0
LINE
  8
0
 62
     0
 10
335.849
 20
127.993
 30
0.0
 11
335.89
 21
127.841
 31
0.0
  0
LINE
  8
0
 62
     0
 10
335.89
 20
127.841
 30
0.0
 11
335.922
 21
127.688
 31
0.0
  0
LINE
  8
0
 62
     0
 10
335.922
 20
127.688
 30
0.0
 11
335.94
 21
127.531
 31
0.0
  0
LINE
  8
0
 62
     0
 10
335.94
 20
127.531
 30
0.0
 11
335.946
 21
127.374
 31
0.0
  0
LINE
  8
0
 62
     0
 10
335.946
 20
127.374
 30
0.0
 11
335.946
 21
2.21589
 31
0.0
  0
LINE
  8
0
 62
     0
 10
335.946
 20
2.21589
 30
0.0
 11
335.94
 21
2.05879
 31
0.0
  0
LINE
  8
0
 62
     0
 10
335.94
 20
2.05879
 30
0.0
 11
335.922
 21
1.90307
 31
0.0
  0
LINE
  8
0
 62
     0
 10
335.922
 20
1.90307
 30
0.0
 11
335.89
 21
1.74873
 31
0.0
  0
LINE
  8
0
 62
     0
 10
335.89
 20
1.74873
 30
0.0
 11
335.849
 21
1.59852
 31
0.0
  0
LINE
  8
0
 62
     0
 10
335.849
 20
1.59852
 30
0.0
 11
335.793
 21
1.45107
 31
0.0
  0
LINE
  8
0
 62
     0
 10
335.793
 20
1.45107
 30
0.0
 11
335.729
 21
1.30776
 31
0.0
  0
LINE
  8
0
 62
     0
 10
335.729
 20
1.30776
 30
0.0
 11
335.651
 21
1.17133
 31
0.0
  0
LINE
  8
0
 62
     0
 10
335.651
 20
1.17133
 30
0.0
 11
335.565
 21
1.04042
 31
0.0
  0
LINE
  8
0
 62
     0
 10
335.565
 20
1.04042
 30
0.0
 11
335.467
 21
0.916397
 31
0.0
  0
LINE
  8
0
 62
     0
 10
335.467
 20
0.916397
 30
0.0
 11
335.361
 21
0.802019
 31
0.0
  0
LINE
  8
0
 62
     0
 10
335.361
 20
0.802019
 30
0.0
 11
335.245
 21
0.694531
 31
0.0
  0
LINE
  8
0
 62
     0
 10
335.245
 20
0.694531
 30
0.0
 11
335.121
 21
0.598068
 31
0.0
  0
LINE
  8
0
 62
     0
 10
335.121
 20
0.598068
 30
0.0
 11
334.99
 21
0.511253
 31
0.0
  0
LINE
  8
0
 62
     0
 10
334.99
 20
0.511253
 30
0.0
 11
334.853
 21
0.434082
 31
0.0
  0
LINE
  8
0
 62
     0
 10
334.853
 20
0.434082
 30
0.0
 11
334.712
 21
0.367937
 31
0.0
  0
LINE
  8
0
 62
     0
 10
334.712
 20
0.367937
 30
0.0
 11
334.564
 21
0.314193
 31
0.0
  0
LINE
  8
0
 62
     0
 10
334.564
 20
0.314193
 30
0.0
 11
334.413
 21
0.271473
 31
0.0
  0
LINE
  8
0
 62
     0
 10
334.413
 20
0.271473
 30
0.0
 11
334.258
 21
0.241157
 31
0.0
  0
LINE
  8
0
 62
     0
 10
334.258
 20
0.241157
 30
0.0
 11
334.103
 21
0.221864
 31
0.0
  0
LINE
  8
0
 62
     0
 10
334.103
 20
0.221864
 30
0.0
 11
333.945
 21
0.216352
 31
0.0
  0
LINE
  8
0
 62
     0
 10
333.945
 20
0.216352
 30
0.0
 11
2.096
 21
0.216352
 31
0.0
  0
LINE
  8
0
 62
     0
 10
2.096
 20
0.216352
 30
0.0
 11
1.9389
 21
0.221864
 31
0.0
  0
LINE
  8
0
 62
     0
 10
1.9389
 20
0.221864
 30
0.0
 11
1.7818
 21
0.241157
 31
0.0
  0
LINE
  8
0
 62
     0
 10
1.7818
 20
0.241157
 30
0.0
 11
1.62884
 21
0.271473
 31
0.0
  0
LINE
  8
0
 62
     0
 10
1.62884
 20
0.271473
 30
0.0
 11
1.47588
 21
0.314193
 31
0.0
  0
LINE
  8
0
 62
     0
 10
1.47588
 20
0.314193
 30
0.0
 11
1.32981
 21
0.367937
 31
0.0
  0
LINE
  8
0
 62
     0
 10
1.32981
 20
0.367937
 30
0.0
 11
1.18787
 21
0.434082
 31
0.0
  0
LINE
  8
0
 62
     0
 10
1.18787
 20
0.434082
 30
0.0
 11
1.05006
 21
0.511253
 31
0.0
  0
LINE
  8
0
 62
     0
 10
1.05006
 20
0.511253
 30
0.0
 11
0.919152
 21
0.598068
 31
0.0
  0
LINE
  8
0
 62
     0
 10
0.919152
 20
0.598068
 30
0.0
 11
0.796505
 21
0.694531
 31
0.0
  0
LINE
  8
0
 62
     0
 10
0.796505
 20
0.694531
 30
0.0
 11
0.680752
 21
0.802019
 31
0.0
  0
LINE
  8
0
 62
     0
 10
0.680752
 20
0.802019
 30
0.0
 11
0.574643
 21
0.916397
 31
0.0
  0
LINE
  8
0
 62
     0
 10
0.574643
 20
0.916397
 30
0.0
 11
0.4768
 21
1.04042
 31
0.0
  0
LINE
  8
0
 62
     0
 10
0.4768
 20
1.04042
 30
0.0
 11
0.389985
 21
1.17133
 31
0.0
  0
LINE
  8
0
 62
     0
 10
0.389985
 20
1.17133
 30
0.0
 11
0.312815
 21
1.30776
 31
0.0
  0
LINE
  8
0
 62
     0
 10
0.312815
 20
1.30776
 30
0.0
 11
0.248047
 21
1.45107
 31
0.0
  0
LINE
  8
0
 62
     0
 10
0.248047
 20
1.45107
 30
0.0
 11
0.192925
 21
1.59852
 31
0.0
  0
LINE
  8
0
 62
     0
 10
0.192925
 20
1.59852
 30
0.0
 11
0.150206
 21
1.74873
 31
0.0
  0
LINE
  8
0
 62
     0
 10
0.150206
 20
1.74873
 30
0.0
 11
0.119889
 21
1.90307
 31
0.0
  0
LINE
  8
0
 62
     0
 10
0.119889
 20
1.90307
 30
0.0
 11
0.101975
 21
2.05879
 31
0.0
  0
LINE
  8
0
 62
     0
 10
0.101975
 20
2.05879
 30
0.0
 11
0.0950846
 21
2.21589
 31
0.0
  0
LINE
  8
0
 62
     0
 10
0.0950846
 20
2.21589
 30
0.0
 11
0.0950846
 21
127.374
 31
0.0
  0
LINE
  8
0
 62
     0
 10
0.0950846
 20
127.374
 30
0.0
 11
0.101975
 21
127.531
 31
0.0
  0
LINE
  8
0
 62
     0
 10
0.101975
 20
127.531
 30
0.0
 11
0.119889
 21
127.688
 31
0.0
  0
LINE
  8
0
 62
     0
 10
0.119889
 20
127.688
 30
0.0
 11
0.150206
 21
127.841
 31
0.0
  0
LINE
  8
0
 62
     0
 10
0.150206
 20
127.841
 30
0.0
 11
0.192925
 21
127.993
 31
0.0
  0
LINE
  8
0
 62
     0
 10
0.192925
 20
127.993
 30
0.0
 11
0.248047
 21
128.139
 31
0.0
  0
LINE
  8
0
 62
     0
 10
0.248047
 20
128.139
 30
0.0
 11
0.312815
 21
128.282
 31
0.0
  0
LINE
  8
0
 62
     0
 10
0.312815
 20
128.282
 30
0.0
 11
0.389985
 21
128.419
 31
0.0
  0
LINE
  8
0
 62
     0
 10
0.389985
 20
128.419
 30
0.0
 11
0.4768
 21
128.55
 31
0.0
  0
LINE
  8
0
 62
     0
 10
0.4768
 20
128.55
 30
0.0
 11
0.574643
 21
128.673
 31
0.0
  0
LINE
  8
0
 62
     0
 10
0.574643
 20
128.673
 30
0.0
 11
0.680752
 21
128.789
 31
0.0
  0
LINE
  8
0
 62
     0
 10
0.680752
 20
128.789
 30
0.0
 11
0.796505
 21
128.895
 31
0.0
  0
LINE
  8
0
 62
     0
 10
0.796505
 20
128.895
 30
0.0
 11
0.919152
 21
128.992
 31
0.0
  0
LINE
  8
0
 62
     0
 10
0.919152
 20
128.992
 30
0.0
 11
1.05006
 21
129.08
 31
0.0
  0
LINE
  8
0
 62
     0
 10
1.05006
 20
129.08
 30
0.0
 11
1.18787
 21
129.157
 31
0.0
  0
LINE
  8
0
 62
     0
 10
1.18787
 20
129.157
 30
0.0
 11
1.32981
 21
129.221
 31
0.0
  0
LINE
  8
0
 62
     0
 10
1.32981
 20
129.221
 30
0.0
 11
1.47588
 21
129.276
 31
0.0
  0
LINE
  8
0
 62
     0
 10
1.47588
 20
129.276
 30
0.0
 11
1.62884
 21
129.319
 31
0.0
  0
LINE
  8
0
 62
     0
 10
1.62884
 20
129.319
 30
0.0
 11
1.7818
 21
129.35
 31
0.0
  0
LINE
  8
0
 62
     0
 10
1.7818
 20
129.35
 30
0.0
 11
1.9389
 21
129.367
 31
0.0
  0
LINE
  8
0
 62
     0
 10
1.9389
 20
129.367
 30
0.0
 11
2.096
 21
129.374
 31
0.0
  0
LINE
  8
0
 62
     0
 10
2.096
 20
129.374
 30
0.0
 11
333.947
 21
129.374
 31
0.0
  0
LINE
  8
0
 62
     0
 10
333.837
 20
2.96692
 30
0.0
 11
333.558
 21
2.82498
 31
0.0
  0
LINE
  8
0
 62
     0
 10
333.558
 20
2.82498
 30
0.0
 11
333.337
 21
2.60449
 31
0.0
  0
LINE
  8
0
 62
     0
 10
333.337
 20
2.60449
 30
0.0
 11
333.194
 21
2.32475
 31
0.0
  0
LINE
  8
0
 62
     0
 10
333.194
 20
2.32475
 30
0.0
 11
333.146
 21
2.01607
 31
0.0
  0
LINE
  8
0
 62
     0
 10
333.146
 20
2.01607
 30
0.0
 11
333.194
 21
1.70739
 31
0.0
  0
LINE
  8
0
 62
     0
 10
333.194
 20
1.70739
 30
0.0
 11
333.337
 21
1.42765
 31
0.0
  0
LINE
  8
0
 62
     0
 10
333.337
 20
1.42765
 30
0.0
 11
333.558
 21
1.20716
 31
0.0
  0
LINE
  8
0
 62
     0
 10
333.558
 20
1.20716
 30
0.0
 11
333.837
 21
1.06522
 31
0.0
  0
LINE
  8
0
 62
     0
 10
333.837
 20
1.06522
 30
0.0
 11
334.147
 21
1.01562
 31
0.0
  0
LINE
  8
0
 62
     0
 10
334.147
 20
1.01562
 30
0.0
 11
334.456
 21
1.06522
 31
0.0
  0
LINE
  8
0
 62
     0
 10
334.456
 20
1.06522
 30
0.0
 11
334.734
 21
1.20716
 31
0.0
  0
LINE
  8
0
 62
     0
 10
334.734
 20
1.20716
 30
0.0
 11
334.955
 21
1.42765
 31
0.0
  0
LINE
  8
0
 62
     0
 10
334.955
 20
1.42765
 30
0.0
 11
335.098
 21
1.70739
 31
0.0
  0
LINE
  8
0
 62
     0
 10
335.098
 20
1.70739
 30
0.0
 11
335.147
 21
2.01607
 31
0.0
  0
LINE
  8
0
 62
     0
 10
335.147
 20
2.01607
 30
0.0
 11
335.098
 21
2.32475
 31
0.0
  0
LINE
  8
0
 62
     0
 10
335.098
 20
2.32475
 30
0.0
 11
334.955
 21
2.60449
 31
0.0
  0
LINE
  8
0
 62
     0
 10
334.955
 20
2.60449
 30
0.0
 11
334.734
 21
2.82498
 31
0.0
  0
LINE
  8
0
 62
     0
 10
334.734
 20
2.82498
 30
0.0
 11
334.456
 21
2.96692
 31
0.0
  0
LINE
  8
0
 62
     0
 10
334.456
 20
2.96692
 30
0.0
 11
334.147
 21
3.01653
 31
0.0
  0
LINE
  8
0
 62
     0
 10
334.147
 20
3.01653
 30
0.0
 11
333.837
 21
2.96692
 31
0.0
  0
LINE
  8
0
 62
     0
 10
223.086
 20
2.96692
 30
0.0
 11
222.808
 21
2.82498
 31
0.0
  0
LINE
  8
0
 62
     0
 10
222.808
 20
2.82498
 30
0.0
 11
222.586
 21
2.60449
 31
0.0
  0
LINE
  8
0
 62
     0
 10
222.586
 20
2.60449
 30
0.0
 11
222.444
 21
2.32475
 31
0.0
  0
LINE
  8
0
 62
     0
 10
222.444
 20
2.32475
 30
0.0
 11
222.396
 21
2.01607
 31
0.0
  0
LINE
  8
0
 62
     0
 10
222.396
 20
2.01607
 30
0.0
 11
222.444
 21
1.70739
 31
0.0
  0
LINE
  8
0
 62
     0
 10
222.444
 20
1.70739
 30
0.0
 11
222.586
 21
1.42765
 31
0.0
  0
LINE
  8
0
 62
     0
 10
222.586
 20
1.42765
 30
0.0
 11
222.808
 21
1.20716
 31
0.0
  0
LINE
  8
0
 62
     0
 10
222.808
 20
1.20716
 30
0.0
 11
223.086
 21
1.06522
 31
0.0
  0
LINE
  8
0
 62
     0
 10
223.086
 20
1.06522
 30
0.0
 11
223.395
 21
1.01562
 31
0.0
  0
LINE
  8
0
 62
     0
 10
223.395
 20
1.01562
 30
0.0
 11
223.704
 21
1.06522
 31
0.0
  0
LINE
  8
0
 62
     0
 10
223.704
 20
1.06522
 30
0.0
 11
223.984
 21
1.20716
 31
0.0
  0
LINE
  8
0
 62
     0
 10
223.984
 20
1.20716
 30
0.0
 11
224.204
 21
1.42765
 31
0.0
  0
LINE
  8
0
 62
     0
 10
224.204
 20
1.42765
 30
0.0
 11
224.346
 21
1.70739
 31
0.0
  0
LINE
  8
0
 62
     0
 10
224.346
 20
1.70739
 30
0.0
 11
224.396
 21
2.01607
 31
0.0
  0
LINE
  8
0
 62
     0
 10
224.396
 20
2.01607
 30
0.0
 11
224.346
 21
2.32475
 31
0.0
  0
LINE
  8
0
 62
     0
 10
224.346
 20
2.32475
 30
0.0
 11
224.204
 21
2.60449
 31
0.0
  0
LINE
  8
0
 62
     0
 10
224.204
 20
2.60449
 30
0.0
 11
223.984
 21
2.82498
 31
0.0
  0
LINE
  8
0
 62
     0
 10
223.984
 20
2.82498
 30
0.0
 11
223.704
 21
2.96692
 31
0.0
  0
LINE
  8
0
 62
     0
 10
223.704
 20
2.96692
 30
0.0
 11
223.395
 21
3.01653
 31
0.0
  0
LINE
  8
0
 62
     0
 10
223.395
 20
3.01653
 30
0.0
 11
223.086
 21
2.96692
 31
0.0
  0
LINE
  8
0
 62
     0
 10
112.336
 20
2.96692
 30
0.0
 11
112.058
 21
2.82498
 31
0.0
  0
LINE
  8
0
 62
     0
 10
112.058
 20
2.82498
 30
0.0
 11
111.836
 21
2.60449
 31
0.0
  0
LINE
  8
0
 62
     0
 10
111.836
 20
2.60449
 30
0.0
 11
111.694
 21
2.32475
 31
0.0
  0
LINE
  8
0
 62
     0
 10
111.694
 20
2.32475
 30
0.0
 11
111.646
 21
2.01607
 31
0.0
  0
LINE
  8
0
 62
     0
 10
111.646
 20
2.01607
 30
0.0
 11
111.694
 21
1.70739
 31
0.0
  0
LINE
  8
0
 62
     0
 10
111.694
 20
1.70739
 30
0.0
 11
111.836
 21
1.42765
 31
0.0
  0
LINE
  8
0
 62
     0
 10
111.836
 20
1.42765
 30
0.0
 11
112.058
 21
1.20716
 31
0.0
  0
LINE
  8
0
 62
     0
 10
112.058
 20
1.20716
 30
0.0
 11
112.336
 21
1.06522
 31
0.0
  0
LINE
  8
0
 62
     0
 10
112.336
 20
1.06522
 30
0.0
 11
112.645
 21
1.01562
 31
0.0
  0
LINE
  8
0
 62
     0
 10
112.645
 20
1.01562
 30
0.0
 11
112.955
 21
1.06522
 31
0.0
  0
LINE
  8
0
 62
     0
 10
112.955
 20
1.06522
 30
0.0
 11
113.234
 21
1.20716
 31
0.0
  0
LINE
  8
0
 62
     0
 10
113.234
 20
1.20716
 30
0.0
 11
113.454
 21
1.42765
 31
0.0
  0
LINE
  8
0
 62
     0
 10
113.454
 20
1.42765
 30
0.0
 11
113.596
 21
1.70739
 31
0.0
  0
LINE
  8
0
 62
     0
 10
113.596
 20
1.70739
 30
0.0
 11
113.646
 21
2.01607
 31
0.0
  0
LINE
  8
0
 62
     0
 10
113.646
 20
2.01607
 30
0.0
 11
113.596
 21
2.32475
 31
0.0
  0
LINE
  8
0
 62
     0
 10
113.596
 20
2.32475
 30
0.0
 11
113.454
 21
2.60449
 31
0.0
  0
LINE
  8
0
 62
     0
 10
113.454
 20
2.60449
 30
0.0
 11
113.234
 21
2.82498
 31
0.0
  0
LINE
  8
0
 62
     0
 10
113.234
 20
2.82498
 30
0.0
 11
112.955
 21
2.96692
 31
0.0
  0
LINE
  8
0
 62
     0
 10
112.955
 20
2.96692
 30
0.0
 11
112.645
 21
3.01653
 31
0.0
  0
LINE
  8
0
 62
     0
 10
112.645
 20
3.01653
 30
0.0
 11
112.336
 21
2.96692
 31
0.0
  0
LINE
  8
0
 62
     0
 10
1.58612
 20
2.96692
 30
0.0
 11
1.30776
 21
2.82498
 31
0.0
  0
LINE
  8
0
 62
     0
 10
1.30776
 20
2.82498
 30
0.0
 11
1.0859
 21
2.60449
 31
0.0
  0
LINE
  8
0
 62
     0
 10
1.0859
 20
2.60449
 30
0.0
 11
0.943956
 21
2.32475
 31
0.0
  0
LINE
  8
0
 62
     0
 10
0.943956
 20
2.32475
 30
0.0
 11
0.895724
 21
2.01607
 31
0.0
  0
LINE
  8
0
 62
     0
 10
0.895724
 20
2.01607
 30
0.0
 11
0.943956
 21
1.70739
 31
0.0
  0
LINE
  8
0
 62
     0
 10
0.943956
 20
1.70739
 30
0.0
 11
1.0859
 21
1.42765
 31
0.0
  0
LINE
  8
0
 62
     0
 10
1.0859
 20
1.42765
 30
0.0
 11
1.30776
 21
1.20716
 31
0.0
  0
LINE
  8
0
 62
     0
 10
1.30776
 20
1.20716
 30
0.0
 11
1.58612
 21
1.06522
 31
0.0
  0
LINE
  8
0
 62
     0
 10
1.58612
 20
1.06522
 30
0.0
 11
1.8948
 21
1.01562
 31
0.0
  0
LINE
  8
0
 62
     0
 10
1.8948
 20
1.01562
 30
0.0
 11
2.20486
 21
1.06522
 31
0.0
  0
LINE
  8
0
 62
     0
 10
2.20486
 20
1.06522
 30
0.0
 11
2.48185
 21
1.20716
 31
0.0
  0
LINE
  8
0
 62
     0
 10
2.48185
 20
1.20716
 30
0.0
 11
2.70509
 21
1.42765
 31
0.0
  0
LINE
  8
0
 62
     0
 10
2.70509
 20
1.42765
 30
0.0
 11
2.84703
 21
1.70739
 31
0.0
  0
LINE
  8
0
 62
     0
 10
2.84703
 20
1.70739
 30
0.0
 11
2.89526
 21
2.01607
 31
0.0
  0
LINE
  8
0
 62
     0
 10
2.89526
 20
2.01607
 30
0.0
 11
2.84703
 21
2.32475
 31
0.0
  0
LINE
  8
0
 62
     0
 10
2.84703
 20
2.32475
 30
0.0
 11
2.70509
 21
2.60449
 31
0.0
  0
LINE
  8
0
 62
     0
 10
2.70509
 20
2.60449
 30
0.0
 11
2.48185
 21
2.82498
 31
0.0
  0
LINE
  8
0
 62
     0
 10
2.48185
 20
2.82498
 30
0.0
 11
2.20486
 21
2.96692
 31
0.0
  0
LINE
  8
0
 62
     0
 10
2.20486
 20
2.96692
 30
0.0
 11
1.8948
 21
3.01653
 31
0.0
  0
LINE
  8
0
 62
     0
 10
1.8948
 20
3.01653
 30
0.0
 11
1.58612
 21
2.96692
 31
0.0
  0
LINE
  8
0
 62
     0
 10
6.09367
 20
101.468
 30
0.0
 11
6.09367
 21
82.4163
 31
0.0
  0
LINE
  8
0
 62
     0
 10
6.09367
 20
82.4163
 30
0.0
 11
6.09505
 21
82.4163
 31
0.0
  0
LINE
  8
0
 62
     0
 10
6.09505
 20
82.4163
 30
0.0
 11
6.09505
 21
63.3677
 31
0.0
  0
LINE
  8
0
 62
     0
 10
6.09505
 20
63.3677
 30
0.0
 11
6.09367
 21
63.3677
 31
0.0
  0
LINE
  8
0
 62
     0
 10
6.09367
 20
63.3677
 30
0.0
 11
6.09367
 21
44.3163
 31
0.0
  0
LINE
  8
0
 62
     0
 10
6.09367
 20
44.3163
 30
0.0
 11
6.09505
 21
44.3163
 31
0.0
  0
LINE
  8
0
 62
     0
 10
6.09505
 20
44.3163
 30
0.0
 11
6.09505
 21
6.21633
 31
0.0
  0
LINE
  8
0
 62
     0
 10
6.09505
 20
6.21633
 30
0.0
 11
268.034
 21
6.21633
 31
0.0
  0
LINE
  8
0
 62
     0
 10
268.034
 20
6.21633
 30
0.0
 11
268.034
 21
25.2663
 31
0.0
  0
LINE
  8
0
 62
     0
 10
268.034
 20
25.2663
 30
0.0
 11
272.795
 21
25.2663
 31
0.0
  0
LINE
  8
0
 62
     0
 10
272.795
 20
25.2663
 30
0.0
 11
272.795
 21
6.21633
 31
0.0
  0
LINE
  8
0
 62
     0
 10
272.795
 20
6.21633
 30
0.0
 11
329.946
 21
6.21633
 31
0.0
  0
LINE
  8
0
 62
     0
 10
329.946
 20
6.21633
 30
0.0
 11
329.946
 21
25.2677
 31
0.0
  0
LINE
  8
0
 62
     0
 10
329.946
 20
25.2677
 30
0.0
 11
310.896
 21
25.2677
 31
0.0
  0
LINE
  8
0
 62
     0
 10
310.896
 20
25.2677
 30
0.0
 11
310.896
 21
44.3177
 31
0.0
  0
LINE
  8
0
 62
     0
 10
310.896
 20
44.3177
 30
0.0
 11
291.846
 21
44.3177
 31
0.0
  0
LINE
  8
0
 62
     0
 10
291.846
 20
44.3177
 30
0.0
 11
291.846
 21
101.468
 31
0.0
  0
LINE
  8
0
 62
     0
 10
291.846
 20
101.468
 30
0.0
 11
6.09367
 21
101.468
 31
0.0
  0
LINE
  8
0
 62
     0
 10
6.09367
 20
123.376
 30
0.0
 11
25.1465
 21
123.376
 31
0.0
  0
LINE
  8
0
 62
     0
 10
25.1465
 20
123.376
 30
0.0
 11
25.1465
 21
104.323
 31
0.0
  0
LINE
  8
0
 62
     0
 10
25.1465
 20
104.323
 30
0.0
 11
6.09367
 21
104.323
 31
0.0
  0
LINE
  8
0
 62
     0
 10
6.09367
 20
104.323
 30
0.0
 11
6.09367
 21
123.376
 31
0.0
  0
LINE
  8
0
 62
     0
 10
44.1949
 20
123.376
 30
0.0
 11
120.395
 21
123.376
 31
0.0
  0
LINE
  8
0
 62
     0
 10
120.395
 20
123.376
 30
0.0
 11
120.395
 21
104.323
 31
0.0
  0
LINE
  8
0
 62
     0
 10
120.395
 20
104.323
 30
0.0
 11
44.1949
 21
104.323
 31
0.0
  0
LINE
  8
0
 62
     0
 10
44.1949
 20
104.323
 30
0.0
 11
44.1949
 21
123.376
 31
0.0
  0
LINE
  8
0
 62
     0
 10
129.919
 20
123.376
 30
0.0
 11
206.121
 21
123.376
 31
0.0
  0
LINE
  8
0
 62
     0
 10
206.121
 20
123.376
 30
0.0
 11
206.121
 21
104.323
 31
0.0
  0
LINE
  8
0
 62
     0
 10
206.121
 20
104.323
 30
0.0
 11
129.919
 21
104.323
 31
0.0
  0
LINE
  8
0
 62
     0
 10
129.919
 20
104.323
 30
0.0
 11
129.919
 21
123.376
 31
0.0
  0
LINE
  8
0
 62
     0
 10
215.645
 20
123.376
 30
0.0
 11
291.846
 21
123.376
 31
0.0
  0
LINE
  8
0
 62
     0
 10
291.846
 20
123.376
 30
0.0
 11
291.846
 21
104.323
 31
0.0
  0
LINE
  8
0
 62
     0
 10
291.846
 20
104.323
 30
0.0
 11
215.645
 21
104.323
 31
0.0
  0
LINE
  8
0
 62
     0
 10
215.645
 20
104.323
 30
0.0
 11
215.645
 21
123.376
 31
0.0
  0
LINE
  8
0
 62
     0
 10
112.336
 20
128.525
 30
0.0
 11
112.058
 21
128.384
 31
0.0
  0
LINE
  8
0
 62
     0
 10
112.058
 20
128.384
 30
0.0
 11
111.836
 21
128.162
 31
0.0
  0
LINE
  8
0
 62
     0
 10
111.836
 20
128.162
 30
0.0
 11
111.694
 21
127.883
 31
0.0
  0
LINE
  8
0
 62
     0
 10
111.694
 20
127.883
 30
0.0
 11
111.646
 21
127.575
 31
0.0
  0
LINE
  8
0
 62
     0
 10
111.646
 20
127.575
 30
0.0
 11
111.694
 21
127.265
 31
0.0
  0
LINE
  8
0
 62
     0
 10
111.694
 20
127.265
 30
0.0
 11
111.836
 21
126.988
 31
0.0
  0
LINE
  8
0
 62
     0
 10
111.836
 20
126.988
 30
0.0
 11
112.058
 21
126.764
 31
0.0
  0
LINE
  8
0
 62
     0
 10
112.058
 20
126.764
 30
0.0
 11
112.336
 21
126.623
 31
0.0
  0
LINE
  8
0
 62
     0
 10
112.336
 20
126.623
 30
0.0
 11
112.645
 21
126.574
 31
0.0
  0
LINE
  8
0
 62
     0
 10
112.645
 20
126.574
 30
0.0
 11
112.955
 21
126.623
 31
0.0
  0
LINE
  8
0
 62
     0
 10
112.955
 20
126.623
 30
0.0
 11
113.234
 21
126.764
 31
0.0
  0
LINE
  8
0
 62
     0
 10
113.234
 20
126.764
 30
0.0
 11
113.454
 21
126.988
 31
0.0
  0
LINE
  8
0
 62
     0
 10
113.454
 20
126.988
 30
0.0
 11
113.596
 21
127.265
 31
0.0
  0
LINE
  8
0
 62
     0
 10
113.596
 20
127.265
 30
0.0
 11
113.646
 21
127.575
 31
0.0
  0
LINE
  8
0
 62
     0
 10
113.646
 20
127.575
 30
0.0
 11
113.596
 21
127.883
 31
0.0
  0
LINE
  8
0
 62
     0
 10
113.596
 20
127.883
 30
0.0
 11
113.454
 21
128.162
 31
0.0
  0
LINE
  8
0
 62
     0
 10
113.454
 20
128.162
 30
0.0
 11
113.234
 21
128.384
 31
0.0
  0
LINE
  8
0
 62
     0
 10
113.234
 20
128.384
 30
0.0
 11
112.955
 21
128.525
 31
0.0
  0
LINE
  8
0
 62
     0
 10
112.955
 20
128.525
 30
0.0
 11
112.645
 21
128.574
 31
0.0
  0
LINE
  8
0
 62
     0
 10
112.645
 20
128.574
 30
0.0
 11
112.336
 21
128.525
 31
0.0
  0
LINE
  8
0
 62
     0
 10
223.086
 20
128.525
 30
0.0
 11
222.808
 21
128.384
 31
0.0
  0
LINE
  8
0
 62
     0
 10
222.808
 20
128.384
 30
0.0
 11
222.586
 21
128.162
 31
0.0
  0
LINE
  8
0
 62
     0
 10
222.586
 20
128.162
 30
0.0
 11
222.444
 21
127.883
 31
0.0
  0
LINE
  8
0
 62
     0
 10
222.444
 20
127.883
 30
0.0
 11
222.396
 21
127.575
 31
0.0
  0
LINE
  8
0
 62
     0
 10
222.396
 20
127.575
 30
0.0
 11
222.444
 21
127.265
 31
0.0
  0
LINE
  8
0
 62
     0
 10
222.444
 20
127.265
 30
0.0
 11
222.586
 21
126.988
 31
0.0
  0
LINE
  8
0
 62
     0
 10
222.586
 20
126.988
 30
0.0
 11
222.808
 21
126.764
 31
0.0
  0
LINE
  8
0
 62
     0
 10
222.808
 20
126.764
 30
0.0
 11
223.086
 21
126.623
 31
0.0
  0
LINE
  8
0
 62
     0
 10
223.086
 20
126.623
 30
0.0
 11
223.395
 21
126.574
 31
0.0
  0
LINE
  8
0
 62
     0
 10
223.395
 20
126.574
 30
0.0
 11
223.704
 21
126.623
 31
0.0
  0
LINE
  8
0
 62
     0
 10
223.704
 20
126.623
 30
0.0
 11
223.984
 21
126.764
 31
0.0
  0
LINE
  8
0
 62
     0
 10
223.984
 20
126.764
 30
0.0
 11
224.204
 21
126.988
 31
0.0
  0
LINE
  8
0
 62
     0
 10
224.204
 20
126.988
 30
0.0
 11
224.346
 21
127.265
 31
0.0
  0
LINE
  8
0
 62
     0
 10
224.346
 20
127.265
 30
0.0
 11
224.396
 21
127.575
 31
0.0
  0
LINE
  8
0
 62
     0
 10
224.396
 20
127.575
 30
0.0
 11
224.346
 21
127.883
 31
0.0
  0
LINE
  8
0
 62
     0
 10
224.346
 20
127.883
 30
0.0
 11
224.204
 21
128.162
 31
0.0
  0
LINE
  8
0
 62
     0
 10
224.204
 20
128.162
 30
0.0
 11
223.984
 21
128.384
 31
0.0
  0
LINE
  8
0
 62
     0
 10
223.984
 20
128.384
 30
0.0
 11
223.704
 21
128.525
 31
0.0
  0
LINE
  8
0
 62
     0
 10
223.704
 20
128.525
 30
0.0
 11
223.395
 21
128.574
 31
0.0
  0
LINE
  8
0
 62
     0
 10
223.395
 20
128.574
 30
0.0
 11
223.086
 21
128.525
 31
0.0
  0
LINE
  8
0
 62
     0
 10
333.837
 20
128.525
 30
0.0
 11
333.558
 21
128.384
 31
0.0
  0
LINE
  8
0
 62
     0
 10
333.558
 20
128.384
 30
0.0
 11
333.337
 21
128.162
 31
0.0
  0
LINE
  8
0
 62
     0
 10
333.337
 20
128.162
 30
0.0
 11
333.194
 21
127.883
 31
0.0
  0
LINE
  8
0
 62
     0
 10
333.194
 20
127.883
 30
0.0
 11
333.146
 21
127.575
 31
0.0
  0
LINE
  8
0
 62
     0
 10
333.146
 20
127.575
 30
0.0
 11
333.194
 21
127.265
 31
0.0
  0
LINE
  8
0
 62
     0
 10
333.194
 20
127.265
 30
0.0
 11
333.337
 21
126.988
 31
0.0
  0
LINE
  8
0
 62
     0
 10
333.337
 20
126.988
 30
0.0
 11
333.558
 21
126.764
 31
0.0
  0
LINE
  8
0
 62
     0
 10
333.558
 20
126.764
 30
0.0
 11
333.837
 21
126.623
 31
0.0
  0
LINE
  8
0
 62
     0
 10
333.837
 20
126.623
 30
0.0
 11
334.147
 21
126.574
 31
0.0
  0
LINE
  8
0
 62
     0
 10
334.147
 20
126.574
 30
0.0
 11
334.456
 21
126.623
 31
0.0
  0
LINE
  8
0
 62
     0
 10
334.456
 20
126.623
 30
0.0
 11
334.734
 21
126.764
 31
0.0
  0
LINE
  8
0
 62
     0
 10
334.734
 20
126.764
 30
0.0
 11
334.955
 21
126.988
 31
0.0
  0
LINE
  8
0
 62
     0
 10
334.955
 20
126.988
 30
0.0
 11
335.098
 21
127.265
 31
0.0
  0
LINE
  8
0
 62
     0
 10
335.098
 20
127.265
 30
0.0
 11
335.147
 21
127.575
 31
0.0
  0
LINE
  8
0
 62
     0
 10
335.147
 20
127.575
 30
0.0
 11
335.098
 21
127.883
 31
0.0
  0
LINE
  8
0
 62
     0
 10
335.098
 20
127.883
 30
0.0
 11
334.955
 21
128.162
 31
0.0
  0
LINE
  8
0
 62
     0
 10
334.955
 20
128.162
 30
0.0
 11
334.734
 21
128.384
 31
0.0
  0
LINE
  8
0
 62
     0
 10
334.734
 20
128.384
 30
0.0
 11
334.456
 21
128.525
 31
0.0
  0
LINE
  8
0
 62
     0
 10
334.456
 20
128.525
 30
0.0
 11
334.147
 21
128.574
 31
0.0
  0
LINE
  8
0
 62
     0
 10
334.147
 20
128.574
 30
0.0
 11
333.837
 21
128.525
 31
0.0
  0
LINE
  8
0
 62
     0
 10
1.58612
 20
128.525
 30
0.0
 11
1.30776
 21
128.384
 31
0.0
  0
LINE
  8
0
 62
     0
 10
1.30776
 20
128.384
 30
0.0
 11
1.0859
 21
128.162
 31
0.0
  0
LINE
  8
0
 62
     0
 10
1.0859
 20
128.162
 30
0.0
 11
0.943956
 21
127.883
 31
0.0
  0
LINE
  8
0
 62
     0
 10
0.943956
 20
127.883
 30
0.0
 11
0.895724
 21
127.575
 31
0.0
  0
LINE
  8
0
 62
     0
 10
0.895724
 20
127.575
 30
0.0
 11
0.943956
 21
127.265
 31
0.0
  0
LINE
  8
0
 62
     0
 10
0.943956
 20
127.265
 30
0.0
 11
1.0859
 21
126.988
 31
0.0
  0
LINE
  8
0
 62
     0
 10
1.0859
 20
126.988
 30
0.0
 11
1.30776
 21
126.764
 31
0.0
  0
LINE
  8
0
 62
     0
 10
1.30776
 20
126.764
 30
0.0
 11
1.58612
 21
126.623
 31
0.0
  0
LINE
  8
0
 62
     0
 10
1.58612
 20
126.623
 30
0.0
 11
1.8948
 21
126.574
 31
0.0
  0
LINE
  8
0
 62
     0
 10
1.8948
 20
126.574
 30
0.0
 11
2.20486
 21
126.623
 31
0.0
  0
LINE
  8
0
 62
     0
 10
2.20486
 20
126.623
 30
0.0
 11
2.48185
 21
126.764
 31
0.0
  0
LINE
  8
0
 62
     0
 10
2.48185
 20
126.764
 30
0.0
 11
2.70509
 21
126.988
 31
0.0
  0
LINE
  8
0
 62
     0
 10
2.70509
 20
126.988
 30
0.0
 11
2.84703
 21
127.265
 31
0.0
  0
LINE
  8
0
 62
     0
 10
2.84703
 20
127.265
 30
0.0
 11
2.89526
 21
127.575
 31
0.0
  0
LINE
  8
0
 62
     0
 10
2.89526
 20
127.575
 30
0.0
 11
2.84703
 21
127.883
 31
0.0
  0
LINE
  8
0
 62
     0
 10
2.84703
 20
127.883
 30
0.0
 11
2.70509
 21
128.162
 31
0.0
  0
LINE
  8
0
 62
     0
 10
2.70509
 20
128.162
 30
0.0
 11
2.48185
 21
128.384
 31
0.0
  0
LINE
  8
0
 62
     0
 10
2.48185
 20
128.384
 30
0.0
 11
2.20486
 21
128.525
 31
0.0
  0
LINE
  8
0
 62
     0
 10
2.20486
 20
128.525
 30
0.0
 11
1.8948
 21
128.574
 31
0.0
  0
LINE
  8
0
 62
     0
 10
1.8948
 20
128.574
 30
0.0
 11
1.58612
 21
128.525
 31
0.0
  0
ENDSEC
  0
EOF
